<?xml version="1.0" standalone="no"?><!DOCTYPE svg PUBLIC "-//W3C//DTD SVG 1.1//EN" "http://www.w3.org/Graphics/SVG/1.1/DTD/svg11.dtd" ><svg xmlns="http://www.w3.org/2000/svg"><metadata></metadata><defs><font id="H&Co: Whitney Book Italic: 2.201 Basic (Latin-X, Greek, Cyrillic-X)" horiz-adv-x="2144"><font-face font-family="Whitney Book" font-weight="325" font-stretch="normal" units-per-em="2048" panose-1="0 0 0 0 0 0 0 0 0 0" ascent="2071" descent="-589" x-height="0" bbox="-268 -549 2075 2071" underline-thickness="102" underline-position="-459" unicode-range="U+0020-fb04" /><missing-glyph horiz-adv-x="1024" d="M0 -410 L0 1638 L1024 1638 L1024 -410 L0 -410 ZM145 1536 L512 737 L879 1536 L145 1536 ZM102 -156 L455 614 L102 1384 L102 -156 ZM922 1384 L569 614 L922 -156 L922 1384 ZM512 492 L145 -307 L879 -307 L512 492 Z" /><glyph glyph-name="space" unicode=" " d="" /><glyph glyph-name="exclam" unicode="!" d="M498 1413 L299 408 L213 391 L334 1413 L498 1413 ZM303 201 L270 0 L113 0 L143 201 L303 201 Z" /><glyph glyph-name="quotedbl" unicode="&quot;" d="M788 1384 L684 1006 L610 1024 L625 1384 L788 1384 ZM444 1384 L340 1006 L266 1024 L281 1384 L444 1384 Z" /><glyph glyph-name="numbersign" unicode="#" d="M1112 1376 L1040 1018 L1264 1018 L1264 901 L1018 901 L936 483 L1182 483 L1202 367 L913 367 L842 -4 L731 -4 L803 367 L424 367 L352 -14 L246 8 L315 367 L94 367 L94 483 L338 483 L420 901 L178 901 L158 1018 L442 1018 L516 1389 L627 1389 L555 1018 L932 1018 L1006 1399 L1112 1376 ZM530 901 L446 483 L825 483 L909 901 L530 901 Z" /><glyph glyph-name="dollar" unicode="$" d="M874 1522 L827 1374 Q929 1352 1022 1307 L991 1182 Q904 1236 791 1266 L633 758 Q796 674 864 591 Q932 508 932 389 Q932 205 800.5 96.5 Q669 -12 467 -12 Q443 -12 389 -8 L313 -252 L215 -229 L289 6 Q148 37 29 104 L57 231 Q191 147 326 115 L504 680 Q355 757 285 835.5 Q215 914 215 1034 Q215 1194 331 1294.5 Q447 1395 639 1395 Q671 1395 725 1391 L774 1546 L874 1522 ZM807 379 Q807 457 760 513.5 Q713 570 594 635 L424 98 Q440 96 475 96 Q621 96 714 173.5 Q807 251 807 379 ZM336 1042 Q336 971 382.5 917 Q429 863 543 803 L694 1284 Q648 1288 631 1288 Q493 1288 414.5 1220.5 Q336 1153 336 1042 Z" /><glyph glyph-name="percent" unicode="%" d="M750 1079 Q750 960 706.5 855.5 Q663 751 585.5 687 Q508 623 416 623 Q292 623 225 709.5 Q158 796 158 944 Q158 1063 201.5 1168 Q245 1273 322.5 1337 Q400 1401 492 1401 Q616 1401 683 1313.5 Q750 1226 750 1079 ZM1491 1374 L946 690 L393 -14 L285 10 L877 754 L1382 1399 L1491 1374 ZM489 1305 Q428 1305 378 1252.5 Q328 1200 301 1115.5 Q274 1031 274 936 Q274 830 313.5 774.5 Q353 719 418 719 Q480 719 529.5 771 Q579 823 606 906.5 Q633 990 633 1085 Q633 1191 592.5 1248 Q552 1305 489 1305 ZM1618 440 Q1618 321 1574.5 216.5 Q1531 112 1454 48 Q1377 -16 1284 -16 Q1160 -16 1093 71 Q1026 158 1026 305 Q1026 424 1069.5 529 Q1113 634 1190.5 698 Q1268 762 1360 762 Q1484 762 1551 675 Q1618 588 1618 440 ZM1501 449 Q1501 556 1462 611 Q1423 666 1358 666 Q1297 666 1247 614 Q1197 562 1170 478 Q1143 394 1143 299 Q1143 193 1183 136.5 Q1223 80 1286 80 Q1347 80 1397 132.5 Q1447 185 1474 269.5 Q1501 354 1501 449 Z" /><glyph glyph-name="ampersand" unicode="&amp;" d="M440 -27 Q275 -27 170.5 68 Q66 163 66 322 Q66 637 492 795 Q429 882 401 950.5 Q373 1019 373 1096 Q373 1247 475.5 1343.5 Q578 1440 739 1440 Q897 1440 1049 1356 L1014 1227 Q861 1321 733 1321 Q631 1321 569.5 1262 Q508 1203 508 1108 Q508 1043 532.5 986.5 Q557 930 618 846 L924 436 Q1019 599 1085 823 L1208 795 Q1121 530 997 336 L1231 23 L1094 -12 L915 225 Q701 -27 440 -27 ZM455 90 Q665 90 844 319 L559 702 Q203 579 203 330 Q203 221 272 155.5 Q341 90 455 90 Z" /><glyph glyph-name="quotesingle" unicode="&#39;" d="M444 1384 L340 1006 L266 1024 L281 1384 L444 1384 Z" /><glyph glyph-name="parenleft" unicode="(" d="M811 1356 Q293 1036 293 506 Q293 330 367 169 Q441 8 598 -168 L471 -197 Q315 -32 233.5 135 Q152 302 152 494 Q152 794 310.5 1041 Q469 1288 819 1489 L811 1356 Z" /><glyph glyph-name="parenright" unicode=")" d="M45 -74 Q563 246 563 776 Q563 952 489.5 1112.5 Q416 1273 258 1450 L387 1479 Q542 1313 623.5 1146 Q705 979 705 788 Q705 487 546 240.5 Q387 -6 37 -207 L45 -74 Z" /><glyph glyph-name="asterisk" unicode="*" d="M813 1180 L573 1075 L707 846 L670 821 L498 1020 L322 821 L287 846 L418 1075 L182 1180 L195 1221 L449 1167 L473 1425 L520 1425 L545 1167 L799 1221 L813 1180 Z" /><glyph glyph-name="plus" unicode="+" d="M1075 637 L668 637 L604 223 L485 223 L551 637 L143 637 L160 748 L567 748 L633 1161 L750 1161 L686 748 L1092 748 L1075 637 Z" /><glyph glyph-name="comma" unicode="," d="M291 201 L20 -272 L-49 -254 L127 201 L291 201 Z" /><glyph glyph-name="hyphen" unicode="-" d="M639 647 L621 512 L125 512 L141 647 L639 647 Z" /><glyph glyph-name="period" unicode="." d="M254 201 L221 0 L61 0 L94 201 L254 201 Z" /><glyph glyph-name="slash" unicode="/" d="M1151 1401 L-68 -254 L-188 -227 L1028 1427 L1151 1401 Z" /><glyph glyph-name="zero" unicode="0" d="M530 -27 Q344 -27 237.5 121.5 Q131 270 131 520 Q131 756 199 953 Q267 1150 387 1270 Q528 1411 711 1411 Q897 1411 1003.5 1262.5 Q1110 1114 1110 864 Q1110 629 1042 432 Q974 235 854 115 Q712 -27 530 -27 ZM541 90 Q658 90 754 186 Q853 285 913 464.5 Q973 644 973 862 Q973 1068 900.5 1181 Q828 1294 700 1294 Q583 1294 487 1198 Q387 1099 327.5 920 Q268 741 268 522 Q268 316 340 203 Q412 90 541 90 Z" /><glyph glyph-name="one" unicode="1" d="M631 1391 L412 0 L281 0 L479 1245 L172 1130 L172 1239 L526 1391 L631 1391 Z" /><glyph glyph-name="two" unicode="2" d="M999 1081 Q999 959 936.5 855.5 Q874 752 713 598 L213 119 L854 119 L854 0 L16 0 L31 100 L639 684 Q757 798 809.5 886 Q862 974 862 1071 Q862 1172 800 1231 Q738 1290 629 1290 Q460 1290 250 1145 L250 1276 Q444 1411 641 1411 Q810 1411 904.5 1320.5 Q999 1230 999 1081 Z" /><glyph glyph-name="three" unicode="3" d="M967 1098 Q967 1019 939.5 954.5 Q912 890 863.5 845.5 Q815 801 759 772 Q703 743 637 725 Q752 683 817.5 602.5 Q883 522 883 401 Q883 211 748 92 Q613 -27 408 -27 Q205 -27 16 88 L57 211 Q242 90 414 90 Q561 90 654.5 174.5 Q748 259 748 401 Q748 530 656 601 Q564 672 397 672 L352 672 L352 788 L412 788 Q599 788 714 865.5 Q829 943 829 1081 Q829 1181 762.5 1236.5 Q696 1292 584 1292 Q410 1292 227 1169 L227 1296 Q407 1411 594 1411 Q764 1411 865.5 1326 Q967 1241 967 1098 Z" /><glyph glyph-name="four" unicode="4" d="M1096 440 L1077 330 L848 330 L795 0 L672 0 L727 330 L57 330 L72 422 L856 1389 L1018 1389 L864 440 L1096 440 ZM741 440 L870 1241 L223 440 L741 440 Z" /><glyph glyph-name="five" unicode="5" d="M989 1270 L438 1270 L342 854 Q622 817 759.5 708 Q897 599 897 412 Q897 280 832.5 178.5 Q768 77 662 25 Q556 -27 428 -27 Q231 -27 33 78 L74 199 Q261 92 436 92 Q579 92 670.5 176 Q762 260 762 397 Q762 554 630 638 Q498 722 201 750 L344 1384 L989 1384 L989 1270 Z" /><glyph glyph-name="six" unicode="6" d="M961 1292 Q698 1239 522.5 1085 Q347 931 283 709 Q474 831 659 831 Q821 831 915.5 737 Q1010 643 1010 469 Q1010 334 945.5 220 Q881 106 769 39.5 Q657 -27 524 -27 Q336 -27 227.5 102 Q119 231 119 461 Q119 819 346 1078 Q573 1337 961 1415 L961 1292 ZM631 717 Q455 717 258 580 Q252 528 252 469 Q252 290 326 189 Q400 88 532 88 Q676 88 775 195.5 Q874 303 874 459 Q874 584 810.5 650.5 Q747 717 631 717 Z" /><glyph glyph-name="seven" unicode="7" d="M1075 1384 L1059 1288 L297 -14 L176 16 L909 1268 L227 1268 L227 1384 L1075 1384 Z" /><glyph glyph-name="eight" unicode="8" d="M76 332 Q76 470 162.5 570 Q249 670 422 745 Q233 861 233 1042 Q233 1197 348 1304 Q463 1411 655 1411 Q834 1411 938 1320 Q1042 1229 1042 1087 Q1042 851 752 715 Q871 647 929 566 Q987 485 987 377 Q987 204 854.5 89.5 Q722 -25 516 -25 Q310 -25 193 76 Q76 177 76 332 ZM209 342 Q209 230 298 158 Q387 86 524 86 Q665 86 757.5 165.5 Q850 245 850 367 Q850 465 784.5 534 Q719 603 537 688 Q209 559 209 342 ZM367 1053 Q367 971 427.5 904.5 Q488 838 637 770 Q911 887 911 1079 Q911 1179 841 1238.5 Q771 1298 651 1298 Q522 1298 444.5 1225.5 Q367 1153 367 1053 Z" /><glyph glyph-name="nine" unicode="9" d="M199 92 Q457 144 631 291.5 Q805 439 874 653 Q690 537 506 537 Q342 537 249 632 Q156 727 156 903 Q156 1041 220 1157.5 Q284 1274 395 1342.5 Q506 1411 639 1411 Q828 1411 936 1282.5 Q1044 1154 1044 924 Q1044 564 816 305.5 Q588 47 199 -31 L199 92 ZM535 651 Q707 651 903 784 Q913 856 913 915 Q913 1095 838.5 1195.5 Q764 1296 631 1296 Q486 1296 388.5 1184.5 Q291 1073 291 915 Q291 787 354 719 Q417 651 535 651 Z" /><glyph glyph-name="colon" unicode=":" d="M383 969 L352 770 L193 770 L223 969 L383 969 ZM264 201 L236 0 L74 0 L104 201 L264 201 Z" /><glyph glyph-name="semicolon" unicode=";" d="M393 969 L362 770 L203 770 L233 969 L393 969 ZM281 201 L10 -272 L-59 -254 L117 201 L281 201 Z" /><glyph glyph-name="less" unicode="&lt;" d="M967 182 L143 639 L160 745 L1130 1202 L1108 1065 L291 688 L987 309 L967 182 Z" /><glyph glyph-name="equal" unicode="=" d="M1135 856 L213 856 L233 979 L1155 979 L1135 856 ZM1063 406 L141 406 L162 528 L1083 528 L1063 406 Z" /><glyph glyph-name="greater" unicode="&gt;" d="M268 1202 L1092 745 L1075 639 L104 182 L127 319 L944 696 L246 1075 L268 1202 Z" /><glyph glyph-name="question" unicode="?" d="M946 1126 Q946 963 844.5 858.5 Q743 754 510 655 L453 410 L356 389 L389 731 L438 752 Q637 833 722 913.5 Q807 994 807 1112 Q807 1209 743 1263 Q679 1317 573 1317 Q404 1317 205 1184 L205 1319 Q297 1379 388 1409.5 Q479 1440 592 1440 Q756 1440 851 1354 Q946 1268 946 1126 ZM453 201 L420 0 L264 0 L295 201 L453 201 Z" /><glyph glyph-name="at" unicode="@" d="M1229 96 Q1123 96 1059 149.5 Q995 203 987 297 Q896 191 829 143.5 Q762 96 688 96 Q596 96 536.5 168.5 Q477 241 477 367 Q477 481 515.5 583.5 Q554 686 617.5 757 Q681 828 765.5 869.5 Q850 911 940 911 Q1059 911 1188 852 L1114 422 Q1104 350 1104 313 Q1104 248 1139 210 Q1174 172 1245 172 Q1363 172 1442.5 296.5 Q1522 421 1522 637 Q1522 913 1365 1066 Q1208 1219 938 1219 Q782 1219 642.5 1157 Q503 1095 400.5 985.5 Q298 876 238 718 Q178 560 178 377 Q178 80 338 -73.5 Q498 -227 772 -227 Q1020 -227 1214 -129 L1225 -188 Q1025 -287 764 -287 Q454 -287 279 -114 Q104 59 104 375 Q104 629 214.5 836.5 Q325 1044 517.5 1162 Q710 1280 944 1280 Q1246 1280 1418.5 1107 Q1591 934 1591 639 Q1591 393 1487.5 244.5 Q1384 96 1229 96 ZM719 203 Q773 203 834 251.5 Q895 300 991 418 L1057 782 Q989 809 932 809 Q799 809 699.5 686.5 Q600 564 600 381 Q600 203 719 203 Z" /><glyph glyph-name="A" unicode="a" d="M1042 -14 L946 457 L379 457 L141 0 L-6 0 L748 1421 L877 1421 L1176 16 L1042 -14 ZM786 1243 L440 578 L922 578 L786 1243 Z" /><glyph glyph-name="B" unicode="b" d="M1008 1098 Q1008 969 934 878 Q860 787 739 743 Q969 651 969 436 Q969 233 825 116.5 Q681 0 446 0 L100 0 L326 1413 L625 1413 Q806 1413 907 1329 Q1008 1245 1008 1098 ZM868 1083 Q868 1182 803.5 1238 Q739 1294 614 1294 L442 1294 L365 799 L520 799 Q671 799 769.5 877 Q868 955 868 1083 ZM829 428 Q829 548 744 615 Q659 682 502 682 L346 682 L256 119 L461 119 Q631 119 730 201 Q829 283 829 428 Z" /><glyph glyph-name="C" unicode="c" d="M1196 1313 L1161 1167 Q1009 1313 829 1313 Q709 1313 604.5 1253.5 Q500 1194 428 1094 Q356 994 315 861.5 Q274 729 274 586 Q274 356 382 228 Q490 100 666 100 Q852 100 1032 223 L1032 84 Q854 -25 655 -25 Q420 -25 276.5 134 Q133 293 133 575 Q133 803 222 1000 Q311 1197 473.5 1317.5 Q636 1438 834 1438 Q1045 1438 1196 1313 Z" /><glyph glyph-name="D" unicode="d" d="M1257 831 Q1257 644 1196.5 488 Q1136 332 1022 221 Q801 0 457 0 L100 0 L326 1413 L659 1413 Q946 1413 1101.5 1258.5 Q1257 1104 1257 831 ZM1114 823 Q1114 1047 994.5 1168.5 Q875 1290 643 1290 L444 1290 L258 123 L469 123 Q740 123 915 295 Q1010 389 1062 524 Q1114 659 1114 823 Z" /><glyph glyph-name="E" unicode="e" d="M1016 1413 L995 1288 L444 1288 L367 803 L797 803 L797 676 L346 676 L258 125 L829 125 L811 0 L100 0 L326 1413 L1016 1413 Z" /><glyph glyph-name="F" unicode="f" d="M989 1413 L969 1288 L444 1288 L362 780 L776 780 L776 655 L342 655 L240 0 L100 0 L326 1413 L989 1413 Z" /><glyph glyph-name="G" unicode="g" d="M1206 741 L1104 100 Q897 -25 680 -25 Q434 -25 282.5 139 Q131 303 131 573 Q131 710 165.5 839.5 Q200 969 265 1077 Q330 1185 417 1266 Q504 1347 615.5 1392.5 Q727 1438 848 1438 Q1076 1438 1231 1317 L1194 1174 Q1042 1313 846 1313 Q726 1313 619 1254 Q512 1195 436.5 1096 Q361 997 317.5 862.5 Q274 728 274 582 Q274 356 390 227 Q506 98 686 98 Q854 98 981 174 L1051 616 L719 616 L719 741 L1206 741 Z" /><glyph glyph-name="H" unicode="h" d="M1319 1413 L1094 0 L956 0 L1063 676 L346 676 L240 0 L100 0 L326 1413 L463 1413 L367 801 L1083 801 L1180 1413 L1319 1413 Z" /><glyph glyph-name="I" unicode="i" d="M477 1413 L252 0 L115 0 L340 1413 L477 1413 Z" /><glyph glyph-name="J" unicode="j" d="M694 1413 L528 360 Q469 -12 143 -12 Q95 -12 -4 4 L-4 133 Q79 111 141 111 Q246 111 308 170.5 Q370 230 393 367 L557 1413 L694 1413 Z" /><glyph glyph-name="K" unicode="k" d="M1237 1413 L502 750 L1055 18 L909 -14 L354 729 L240 0 L100 0 L326 1413 L463 1413 L360 772 L1057 1413 L1237 1413 Z" /><glyph glyph-name="L" unicode="l" d="M764 0 L100 0 L326 1413 L463 1413 L258 127 L764 127 L764 0 Z" /><glyph glyph-name="M" unicode="m" d="M1657 1413 L1546 0 L1413 0 L1511 1210 L854 -8 L756 -8 L483 1210 L199 0 L72 0 L408 1413 L573 1413 L838 195 L1485 1413 L1657 1413 Z" /><glyph glyph-name="N" unicode="n" d="M1317 1413 L1092 0 L1008 0 L418 1200 L229 0 L100 0 L326 1413 L457 1413 L1012 281 L1190 1413 L1317 1413 Z" /><glyph glyph-name="O" unicode="o" d="M668 -27 Q502 -27 380 55 Q258 137 196.5 276.5 Q135 416 135 594 Q135 792 203 964.5 Q271 1137 391 1257 Q577 1440 825 1440 Q990 1440 1112 1358 Q1234 1276 1296 1136.5 Q1358 997 1358 819 Q1358 622 1289.5 449.5 Q1221 277 1100 156 Q917 -27 668 -27 ZM672 94 Q852 94 999 238 Q1100 340 1157 490.5 Q1214 641 1214 817 Q1214 1046 1109 1182.5 Q1004 1319 819 1319 Q637 1319 494 1176 Q393 1073 334.5 922.5 Q276 772 276 596 Q276 367 381.5 230.5 Q487 94 672 94 Z" /><glyph glyph-name="P" unicode="p" d="M1038 1049 Q1038 842 890 719 Q742 596 494 596 L334 596 L240 0 L100 0 L326 1413 L602 1413 Q812 1413 925 1317 Q1038 1221 1038 1049 ZM899 1040 Q899 1160 823.5 1225 Q748 1290 596 1290 L444 1290 L354 719 L502 719 Q691 719 795 805.5 Q899 892 899 1040 Z" /><glyph glyph-name="Q" unicode="q" d="M1178 -164 L1141 -297 L520 -14 Q320 76 227.5 220.5 Q135 365 135 596 Q135 791 203 964 Q271 1137 391 1257 Q577 1440 825 1440 Q991 1440 1113.5 1357.5 Q1236 1275 1297 1136 Q1358 997 1358 821 Q1358 662 1315.5 521.5 Q1273 381 1198.5 277 Q1124 173 1024.5 101 Q925 29 809 -2 L1178 -164 ZM672 94 Q852 94 999 238 Q1100 340 1157 490.5 Q1214 641 1214 817 Q1214 1046 1109 1182.5 Q1004 1319 819 1319 Q637 1319 494 1176 Q393 1073 334.5 922.5 Q276 772 276 596 Q276 367 381.5 230.5 Q487 94 672 94 Z" /><glyph glyph-name="R" unicode="r" d="M1032 1063 Q1032 890 927.5 777.5 Q823 665 651 633 L995 18 L854 -14 L502 618 L336 618 L238 0 L100 0 L326 1413 L598 1413 Q806 1413 919 1323.5 Q1032 1234 1032 1063 ZM893 1051 Q893 1290 596 1290 L442 1290 L354 737 L524 737 Q697 737 795 824 Q893 911 893 1051 Z" /><glyph glyph-name="S" unicode="s" d="M965 1343 L932 1208 Q779 1313 627 1313 Q501 1313 428.5 1241 Q356 1169 356 1065 Q356 988 408 928.5 Q460 869 590 793 Q760 692 826.5 603 Q893 514 893 391 Q893 205 762.5 93.5 Q632 -18 440 -18 Q331 -18 226.5 14 Q122 46 51 94 L84 229 Q163 170 258 135 Q353 100 449 100 Q580 100 666 176 Q752 252 752 373 Q752 463 705.5 522.5 Q659 582 530 659 Q356 763 287.5 845 Q219 927 219 1049 Q219 1214 335.5 1323 Q452 1432 639 1432 Q821 1432 965 1343 Z" /><glyph glyph-name="T" unicode="t" d="M1188 1288 L754 1288 L549 0 L412 0 L616 1288 L188 1288 L209 1413 L1188 1413 L1188 1288 Z" /><glyph glyph-name="U" unicode="u" d="M1335 1413 L1190 489 Q1151 242 1004.5 109.5 Q858 -23 633 -23 Q417 -23 290.5 95 Q164 213 164 430 Q164 508 176 584 L307 1413 L444 1413 L311 565 Q301 497 301 440 Q301 279 389.5 189.5 Q478 100 641 100 Q815 100 919.5 207 Q1024 314 1055 514 L1198 1413 L1335 1413 Z" /><glyph glyph-name="V" unicode="v" d="M1376 1413 L623 -8 L512 -8 L215 1397 L352 1427 L598 190 L1227 1413 L1376 1413 Z" /><glyph glyph-name="W" unicode="w" d="M2075 1413 L1434 0 L1323 0 L1120 1208 L535 0 L424 0 L236 1397 L379 1427 L522 231 L1085 1413 L1223 1413 L1411 231 L1927 1413 L2075 1413 Z" /><glyph glyph-name="X" unicode="x" d="M1255 1413 L725 737 L1073 18 L932 -12 L633 635 L147 0 L-10 0 L573 741 L260 1395 L399 1423 L664 844 L1098 1413 L1255 1413 Z" /><glyph glyph-name="Y" unicode="y" d="M1298 1413 L688 588 L596 0 L459 0 L551 586 L207 1399 L348 1427 L639 711 L1137 1413 L1298 1413 Z" /><glyph glyph-name="Z" unicode="z" d="M1200 1413 L1186 1315 L227 119 L995 119 L995 0 L37 0 L51 98 L1012 1294 L297 1294 L297 1413 L1200 1413 Z" /><glyph glyph-name="bracketleft" unicode="[" d="M838 1413 L821 1309 L453 1309 L225 -111 L590 -111 L590 -215 L84 -215 L340 1413 L838 1413 Z" /><glyph glyph-name="backslash" unicode="\" d="M1126 -229 L1006 -256 L37 1401 L160 1425 L1126 -229 Z" /><glyph glyph-name="bracketright" unicode="]" d="M743 1413 L487 -215 L-10 -215 L6 -111 L375 -111 L602 1309 L238 1309 L238 1413 L743 1413 Z" /><glyph glyph-name="asciicircum" unicode="^" d="M840 1126 L760 1126 L598 1300 L383 1126 L291 1126 L553 1423 L678 1423 L840 1126 Z" /><glyph glyph-name="underscore" unicode="_" d="M854 -106 L838 -215 L-115 -215 L-96 -106 L854 -106 Z" /><glyph glyph-name="grave" unicode="`" d="M735 1126 L647 1126 L412 1401 L588 1440 L735 1126 Z" /><glyph glyph-name="a" unicode="a" d="M680 201 Q575 91 493.5 35.5 Q412 -20 332 -20 Q215 -20 147.5 65 Q80 150 80 305 Q80 449 124.5 576 Q169 703 243.5 792 Q318 881 418.5 932 Q519 983 629 983 Q763 983 907 922 L803 281 L803 0 L690 0 L680 201 ZM682 334 L766 842 Q700 870 612 870 Q535 870 462.5 829 Q390 788 335 717 Q280 646 246.5 541.5 Q213 437 213 317 Q213 209 250 151.5 Q287 94 354 94 Q415 94 489.5 150.5 Q564 207 682 334 Z" /><glyph glyph-name="b" unicode="b" d="M84 55 L305 1446 L438 1470 L332 815 Q411 899 483.5 944 Q556 989 639 989 Q766 989 842 895.5 Q918 802 918 633 Q918 492 876 370.5 Q834 249 761.5 165.5 Q689 82 591 35 Q493 -12 383 -12 Q245 -12 84 55 ZM227 135 Q308 98 399 98 Q476 98 545 134 Q614 170 667.5 235 Q721 300 752.5 400.5 Q784 501 784 621 Q784 740 739.5 807 Q695 874 614 874 Q549 874 479 824.5 Q409 775 311 666 L227 135 Z" /><glyph glyph-name="c" unicode="c" d="M825 907 L791 780 Q673 874 565 874 Q470 874 389 807 Q308 740 262.5 631 Q217 522 217 401 Q217 252 282.5 173 Q348 94 465 94 Q579 94 713 186 L713 63 Q591 -20 451 -20 Q282 -20 183 88 Q84 196 84 389 Q82 546 145 684 Q208 822 321 905.5 Q434 989 569 989 Q706 989 825 907 Z" /><glyph glyph-name="d" unicode="d" d="M1001 1470 L813 281 L813 0 L696 0 L688 176 Q598 78 521.5 29 Q445 -20 358 -20 Q231 -20 155.5 74 Q80 168 80 338 Q80 478 122 599.5 Q164 721 235.5 804 Q307 887 403.5 934 Q500 981 608 981 Q707 981 791 950 L866 1446 L1001 1470 ZM772 836 Q694 870 602 870 Q524 870 453.5 833.5 Q383 797 329 732 Q275 667 243 567.5 Q211 468 211 350 Q211 230 256.5 162 Q302 94 383 94 Q448 94 518 143.5 Q588 193 688 303 L772 836 Z" /><glyph glyph-name="e" unicode="e" d="M453 92 Q528 92 599.5 122.5 Q671 153 760 217 L760 90 Q601 -20 438 -20 Q268 -20 175 88 Q82 196 82 383 Q82 514 119.5 628.5 Q157 743 219.5 821 Q282 899 365 944 Q448 989 537 989 Q681 989 759.5 894 Q838 799 838 629 Q838 569 823 481 L219 481 Q215 423 215 391 Q215 250 278 171 Q341 92 453 92 ZM528 885 Q433 885 354 802 Q275 719 238 582 L705 582 Q717 727 672.5 806 Q628 885 528 885 Z" /><glyph glyph-name="f" unicode="f" d="M682 1335 Q640 1346 594 1346 Q522 1346 484 1309 Q446 1272 434 1194 L399 969 L594 969 L594 858 L381 858 L190 -352 L57 -375 L252 858 L109 858 L125 969 L270 969 L309 1217 Q329 1341 398.5 1401.5 Q468 1462 594 1462 Q622 1462 682 1456 L682 1335 Z" /><glyph glyph-name="g" unicode="g" d="M913 913 L774 37 Q710 -369 346 -369 Q189 -369 23 -295 L55 -178 Q213 -254 356 -254 Q598 -254 643 25 L668 176 Q589 90 516.5 45 Q444 0 360 0 Q233 0 157.5 91 Q82 182 82 340 Q82 525 153.5 673 Q225 821 346 902 Q467 983 614 983 Q744 983 913 913 ZM772 834 Q687 870 598 870 Q440 870 327.5 728 Q215 586 215 354 Q215 239 260 177 Q305 115 385 115 Q451 115 522 165.5 Q593 216 690 324 L772 834 Z" /><glyph glyph-name="h" unicode="h" d="M899 774 Q899 726 889 668 L782 0 L651 0 L758 670 Q766 728 766 758 Q766 810 737.5 840 Q709 870 653 870 Q589 870 510 811.5 Q431 753 301 614 L207 0 L76 0 L305 1446 L438 1470 L326 768 Q434 881 515.5 935 Q597 989 682 989 Q784 989 841.5 933 Q899 877 899 774 Z" /><glyph glyph-name="i" unicode="i" d="M455 1298 Q455 1259 425.5 1230.5 Q396 1202 356 1202 Q317 1202 288.5 1230.5 Q260 1259 260 1298 Q260 1339 288.5 1368 Q317 1397 356 1397 Q396 1397 425.5 1368 Q455 1339 455 1298 ZM371 969 L215 0 L84 0 L240 969 L371 969 Z" /><glyph glyph-name="j" unicode="j" d="M455 1298 Q455 1259 425.5 1230.5 Q396 1202 356 1202 Q317 1202 288.5 1230.5 Q260 1259 260 1298 Q260 1339 288.5 1368 Q317 1397 356 1397 Q396 1397 425.5 1368 Q455 1339 455 1298 ZM371 969 L193 -150 Q173 -267 113 -318 Q53 -369 -49 -369 Q-56 -369 -137 -360 L-137 -244 Q-95 -254 -57 -254 Q46 -254 66 -131 L240 969 L371 969 Z" /><glyph glyph-name="k" unicode="k" d="M207 0 L76 0 L305 1446 L438 1470 L293 553 L735 969 L909 969 L424 528 L793 12 L651 -14 L285 514 L207 0 Z" /><glyph glyph-name="l" unicode="l" d="M449 1470 L215 0 L84 0 L313 1446 L449 1470 Z" /><glyph glyph-name="m" unicode="m" d="M1458 774 Q1458 756 1448 668 L1341 0 L1210 0 L1317 670 Q1325 724 1325 758 Q1325 812 1298.5 841 Q1272 870 1221 870 Q1156 870 1076.5 811 Q997 752 870 614 L774 0 L643 0 L750 670 Q758 724 758 758 Q758 810 731 840 Q704 870 653 870 Q589 870 511 812 Q433 754 303 614 L209 0 L78 0 L188 688 L188 969 L303 969 L313 754 Q426 874 510.5 931.5 Q595 989 684 989 Q784 989 836.5 932 Q889 875 889 780 L889 764 Q992 877 1076 933 Q1160 989 1249 989 Q1349 989 1403.5 931.5 Q1458 874 1458 774 Z" /><glyph glyph-name="n" unicode="n" d="M901 774 Q901 738 893 668 L784 0 L653 0 L762 670 Q770 728 770 758 Q770 810 740.5 840 Q711 870 655 870 Q591 870 512 811.5 Q433 753 303 614 L209 0 L78 0 L188 688 L188 969 L303 969 L313 754 Q426 874 510.5 931.5 Q595 989 684 989 Q787 989 844 933.5 Q901 878 901 774 Z" /><glyph glyph-name="o" unicode="o" d="M895 578 Q895 419 835.5 282.5 Q776 146 667 63 Q558 -20 424 -20 Q265 -20 174.5 91 Q84 202 84 391 Q84 550 143 686.5 Q202 823 310.5 906 Q419 989 553 989 Q712 989 803.5 878 Q895 767 895 578 ZM764 571 Q764 722 704.5 801.5 Q645 881 545 881 Q453 881 376 811.5 Q299 742 257 631.5 Q215 521 215 399 Q215 246 274 167 Q333 88 434 88 Q527 88 604 157.5 Q681 227 722.5 337.5 Q764 448 764 571 Z" /><glyph glyph-name="p" unicode="p" d="M16 -375 L188 688 L188 969 L303 969 L313 793 Q402 892 478 940.5 Q554 989 641 989 Q768 989 844 895.5 Q920 802 920 633 Q920 445 848 296.5 Q776 148 655.5 68 Q535 -12 391 -12 Q301 -12 209 18 L152 -350 L16 -375 ZM229 133 Q313 98 397 98 Q559 98 672.5 241.5 Q786 385 786 621 Q786 740 741.5 807 Q697 874 616 874 Q551 874 481 824.5 Q411 775 313 666 L229 133 Z" /><glyph glyph-name="q" unicode="q" d="M913 913 L713 -350 L580 -375 L664 156 Q585 70 513 25 Q441 -20 358 -20 Q230 -20 155 74.5 Q80 169 80 338 Q80 526 152 674.5 Q224 823 345.5 903 Q467 983 614 983 Q744 983 913 913 ZM772 834 Q687 870 598 870 Q521 870 451.5 834.5 Q382 799 328.5 734 Q275 669 243 569 Q211 469 211 350 Q211 230 256 162 Q301 94 381 94 Q445 94 515 144 Q585 194 686 303 L772 834 Z" /><glyph glyph-name="r" unicode="r" d="M672 854 Q558 843 468.5 773 Q379 703 299 578 L209 0 L78 0 L188 688 L188 969 L303 969 L313 729 Q481 984 672 987 L672 854 Z" /><glyph glyph-name="s" unicode="s" d="M719 913 L684 788 Q551 877 440 877 Q359 877 310.5 835.5 Q262 794 262 733 Q262 682 297 646.5 Q332 611 428 563 Q569 493 623.5 432.5 Q678 372 678 272 Q678 138 587.5 59 Q497 -20 348 -20 Q167 -20 16 86 L53 209 Q200 92 358 92 Q440 92 495.5 139 Q551 186 551 258 Q551 317 514 353 Q477 389 369 444 Q243 508 190 566.5 Q137 625 137 717 Q137 840 223 914.5 Q309 989 449 989 Q587 989 719 913 Z" /><glyph glyph-name="t" unicode="t" d="M623 858 L383 858 L293 283 Q285 227 285 197 Q285 100 393 100 Q438 100 496 113 L496 0 Q426 -16 367 -16 Q152 -16 152 176 Q152 222 162 285 L252 858 L106 858 L125 969 L270 969 L322 1305 L457 1327 L401 969 L623 969 L623 858 Z" /><glyph glyph-name="u" unicode="u" d="M100 195 Q100 222 109 301 L217 969 L348 969 L240 299 Q231 234 231 213 Q231 161 260.5 129.5 Q290 98 346 98 Q410 98 488.5 156.5 Q567 215 698 354 L793 969 L924 969 L813 281 L813 0 L698 0 L688 215 Q575 95 490.5 37.5 Q406 -20 317 -20 Q214 -20 157 35.5 Q100 91 100 195 Z" /><glyph glyph-name="v" unicode="v" d="M915 969 L426 -8 L313 -8 L131 956 L260 981 L397 170 L776 969 L915 969 Z" /><glyph glyph-name="w" unicode="w" d="M1427 969 L961 -6 L858 -6 L752 776 L401 -6 L299 -6 L139 961 L266 985 L381 190 L727 973 L842 973 L942 190 L1294 969 L1427 969 Z" /><glyph glyph-name="x" unicode="x" d="M893 969 L522 498 L762 10 L633 -14 L440 403 L137 0 L-10 0 L381 502 L162 958 L291 985 L465 598 L745 969 L893 969 Z" /><glyph glyph-name="y" unicode="y" d="M936 969 L381 -135 Q316 -265 245.5 -317 Q175 -369 70 -369 Q68 -369 12 -362 L12 -246 Q58 -254 86 -254 Q141 -254 182 -222.5 Q223 -191 260 -121 L328 8 L131 956 L262 981 L416 164 L795 969 L936 969 Z" /><glyph glyph-name="z" unicode="z" d="M848 969 L829 868 L176 109 L713 109 L713 0 L2 0 L18 102 L674 860 L182 860 L182 969 L848 969 Z" /><glyph glyph-name="braceleft" unicode="{" d="M967 1413 L952 1311 L780 1311 Q675 1311 625 1255.5 Q575 1200 575 1100 L575 926 Q575 771 508.5 696 Q442 621 315 596 L315 592 Q403 572 446 529 Q489 486 489 406 Q489 348 446 199.5 Q403 51 403 4 Q403 -53 443.5 -83 Q484 -113 559 -113 L719 -113 L719 -215 L530 -215 Q410 -215 343 -164.5 Q276 -114 276 -10 Q276 46 319 192 Q362 338 362 395 Q362 474 314.5 511.5 Q267 549 162 549 L111 549 L111 649 L182 649 Q315 649 383 716.5 Q451 784 451 932 L451 1104 Q451 1413 788 1413 L967 1413 Z" /><glyph glyph-name="bar" unicode="|" d="M334 -367 L211 -387 L211 1460 L334 1481 L334 -367 Z" /><glyph glyph-name="braceright" unicode="}" d="M4 -215 L20 -113 L193 -113 Q296 -113 345.5 -57.5 Q395 -2 395 98 L395 272 Q395 427 462.5 502 Q530 577 657 602 L657 606 Q569 626 526 669 Q483 712 483 793 Q483 851 525 999 Q567 1147 567 1194 Q567 1251 527 1281 Q487 1311 412 1311 L254 1311 L254 1413 L440 1413 Q560 1413 627 1362.5 Q694 1312 694 1208 Q694 1152 652 1006 Q610 860 610 803 Q610 724 657 686.5 Q704 649 809 649 L862 649 L862 549 L791 549 Q657 549 589.5 481 Q522 413 522 266 L522 94 Q522 -215 184 -215 L4 -215 Z" /><glyph glyph-name="asciitilde" unicode="~" d="M748 674 Q714 570 664.5 516.5 Q615 463 553 463 Q516 463 486 474 Q456 485 410 514 Q359 547 335.5 557 Q312 567 289 567 Q240 567 197 459 L106 477 Q140 581 190.5 635.5 Q241 690 301 690 Q339 690 368.5 678 Q398 666 444 637 Q502 603 523 593.5 Q544 584 567 584 Q616 584 657 694 L748 674 Z" /><glyph glyph-name="nonbreakingspace" unicode=" " d="" /><glyph glyph-name="exclamdown" unicode="¡" d="M496 1413 L463 1212 L305 1212 L338 1413 L496 1413 ZM395 1022 L274 0 L111 0 L309 1006 L395 1022 Z" /><glyph glyph-name="cent" unicode="¢" d="M811 1382 L741 1171 Q836 1147 913 1081 L874 969 Q793 1040 707 1063 L469 309 Q485 305 522 305 Q658 305 803 397 L803 285 Q659 197 510 197 Q472 197 438 203 L369 -20 L270 2 L342 229 Q241 273 181 370.5 Q121 468 121 602 Q121 756 185.5 889.5 Q250 1023 366.5 1104.5 Q483 1186 625 1186 L645 1186 L713 1403 L811 1382 ZM250 610 Q250 418 379 340 L610 1077 L608 1077 Q504 1077 421 1010 Q338 943 294 837 Q250 731 250 610 Z" /><glyph glyph-name="sterling" unicode="£" d="M145 739 L346 739 L500 1102 Q568 1263 652.5 1337 Q737 1411 877 1411 Q972 1411 1071 1376 L1042 1257 Q952 1292 864 1292 Q780 1292 723 1238.5 Q666 1185 621 1077 L477 739 L842 739 L842 625 L430 625 L215 115 L934 115 L934 0 L59 0 L76 102 L297 625 L127 625 L145 739 Z" /><glyph glyph-name="yen" unicode="¥" d="M201 498 L215 602 L530 602 L207 1366 L336 1399 L625 686 L1122 1384 L1272 1384 L694 602 L997 602 L997 498 L657 498 L629 311 L958 311 L944 205 L612 205 L580 0 L457 0 L487 205 L160 205 L160 311 L504 311 L532 498 L201 498 Z" /><glyph glyph-name="section" unicode="§" d="M987 741 Q987 630 903 530 L793 561 Q860 643 860 725 Q860 769 825 800 Q790 831 694 860 L557 901 Q428 939 366.5 993.5 Q305 1048 305 1145 Q305 1259 397 1330 Q489 1401 639 1401 Q799 1401 961 1329 L924 1217 Q773 1294 625 1294 Q535 1294 482.5 1254.5 Q430 1215 430 1155 Q430 1100 471.5 1068.5 Q513 1037 610 1008 L739 969 Q868 929 927.5 877.5 Q987 826 987 741 ZM135 643 Q135 754 219 854 L330 823 Q260 737 260 659 Q260 615 295.5 584 Q331 553 428 524 L565 483 Q694 445 755.5 391 Q817 337 817 240 Q817 126 725 55 Q633 -16 483 -16 Q318 -16 162 55 L199 168 Q349 90 498 90 Q587 90 639.5 129.5 Q692 169 692 229 Q692 284 650.5 316 Q609 348 512 377 L383 416 Q254 456 194.5 507.5 Q135 559 135 643 Z" /><glyph glyph-name="dieresis" unicode="¨" d="M834 1145 L664 1145 L694 1327 L864 1327 L834 1145 ZM481 1145 L311 1145 L342 1327 L510 1327 L481 1145 Z" /><glyph glyph-name="copyright" unicode="©" d="M1565 707 Q1565 494 1477.5 327 Q1390 160 1228.5 66.5 Q1067 -27 858 -27 Q650 -27 489 66 Q328 159 240 326 Q152 493 152 707 Q152 920 240 1087 Q328 1254 489 1347 Q650 1440 858 1440 Q1067 1440 1228.5 1347 Q1390 1254 1477.5 1087.5 Q1565 921 1565 707 ZM1493 707 Q1493 1012 1317 1196 Q1141 1380 858 1380 Q573 1380 399 1196.5 Q225 1013 225 707 Q225 402 401 217.5 Q577 33 860 33 Q1145 33 1319 217 Q1493 401 1493 707 ZM1133 383 Q1012 297 874 297 Q711 297 609.5 412.5 Q508 528 508 713 Q508 897 612 1013.5 Q716 1130 879 1130 Q1003 1130 1120 1057 L1102 946 Q990 1030 877 1030 Q758 1030 687 942.5 Q616 855 616 713 Q616 573 688.5 484 Q761 395 877 395 Q991 395 1118 487 L1133 383 Z" /><glyph glyph-name="ordfeminine" unicode="ª" d="M637 481 L115 481 L129 578 L637 578 L637 481 ZM580 922 L604 1075 Q425 1059 350.5 1012 Q276 965 276 891 Q276 852 298.5 829.5 Q321 807 362 807 Q448 807 580 922 ZM289 1247 L289 1339 Q418 1393 524 1393 Q644 1393 693.5 1335 Q743 1277 725 1171 L676 893 L672 735 L584 735 L580 834 Q453 723 342 723 Q266 723 218 767 Q170 811 170 885 Q170 1114 616 1147 L623 1176 Q633 1243 605.5 1275 Q578 1307 512 1307 Q417 1307 289 1247 Z" /><glyph glyph-name="guillemotleft" unicode="«" d="M1022 969 L647 475 L860 14 L762 -10 L496 485 L899 969 L1022 969 ZM608 969 L233 475 L446 14 L346 -10 L80 485 L487 969 L608 969 Z" /><glyph glyph-name="uni00AD" unicode="­" d="M639 647 L621 512 L125 512 L141 647 L639 647 Z" /><glyph glyph-name="registered" unicode="®" d="M1118 956 Q1118 747 988.5 614 Q859 481 655 481 Q448 481 319 614 Q190 747 190 958 Q190 1168 320 1301 Q450 1434 655 1434 Q860 1434 989 1300.5 Q1118 1167 1118 956 ZM1065 956 Q1065 1149 949.5 1267.5 Q834 1386 655 1386 Q474 1386 360 1268 Q246 1150 246 958 Q246 765 360.5 646.5 Q475 528 655 528 Q835 528 950 646 Q1065 764 1065 956 ZM874 723 L795 705 L637 930 L580 930 L580 711 L504 711 L504 1239 L647 1239 Q731 1239 780 1198 Q829 1157 829 1085 Q829 971 717 940 L874 723 ZM723.5 1014.5 Q754 1038 754 1081 Q754 1124 726 1146.5 Q698 1169 645 1169 L578 1169 L578 991 L641 991 Q693 991 723.5 1014.5 Z" /><glyph glyph-name="macron" unicode="¯" d="M844 1182 L311 1182 L330 1296 L862 1296 L844 1182 Z" /><glyph glyph-name="degree" unicode="°" d="M852 1071 Q852 931 759 839.5 Q666 748 526 748 Q387 748 294 839.5 Q201 931 201 1071 Q201 1210 294.5 1302.5 Q388 1395 526 1395 Q666 1395 759 1302.5 Q852 1210 852 1071 ZM743 1071 Q743 1167 680.5 1232.5 Q618 1298 524 1298 Q431 1298 370 1232.5 Q309 1167 309 1071 Q309 974 371 909 Q433 844 528 844 Q621 844 682 909 Q743 974 743 1071 Z" /><glyph glyph-name="plusminus" unicode="±" d="M653 776 L600 446 L483 446 L535 776 L215 776 L231 885 L553 885 L604 1212 L723 1212 L670 885 L991 885 L975 776 L653 776 ZM952 231 L61 231 L80 344 L971 344 L952 231 Z" /><glyph glyph-name="twosuperior" unicode="²" d="M694 842 L186 842 L201 928 L522 1214 Q585 1271 613 1313.5 Q641 1356 641 1405 Q641 1451 608 1480 Q575 1509 518 1509 Q424 1509 315 1440 L315 1542 Q427 1608 535 1608 Q637 1608 695.5 1552.5 Q754 1497 754 1417 Q754 1343 716 1285 Q678 1227 586 1149 L346 942 L694 942 L694 842 Z" /><glyph glyph-name="threesuperior" unicode="³" d="M688 1053 Q688 948 611 885.5 Q534 823 414 823 Q292 823 172 899 L209 989 Q316 918 414 918 Q487 918 531 956 Q575 994 575 1053 Q575 1119 523.5 1153.5 Q472 1188 375 1188 L350 1188 L350 1278 L416 1278 Q513 1278 569 1316.5 Q625 1355 625 1417 Q625 1463 592 1488 Q559 1513 504 1513 Q402 1513 295 1450 L295 1548 Q402 1608 514 1608 Q612 1608 674.5 1561.5 Q737 1515 737 1432 Q737 1352 684 1300.5 Q631 1249 543 1227 Q609 1207 648.5 1163 Q688 1119 688 1053 Z" /><glyph glyph-name="acute" unicode="´" d="M817 1401 L496 1126 L389 1126 L635 1440 L817 1401 Z" /><glyph glyph-name="paragraph" unicode="¶" d="M795 0 L676 0 L879 1284 L709 1284 L662 989 L541 614 Q364 623 262 707.5 Q160 792 160 950 Q160 1143 299 1263.5 Q438 1384 682 1384 L1014 1384 L795 0 Z" /><glyph glyph-name="periodcentered" unicode="·" d="M299 479 L139 479 L170 680 L330 680 L299 479 Z" /><glyph glyph-name="cedilla" unicode="¸" d="M483 -168 L197 -401 L100 -401 L315 -127 L483 -168 Z" /><glyph glyph-name="onesuperior" unicode="¹" d="M678 842 L221 842 L236 936 L414 936 L502 1489 L311 1413 L317 1511 L547 1608 L625 1608 L518 936 L678 936 L678 842 Z" /><glyph glyph-name="ordmasculine" unicode="º" d="M432 723 Q316 723 250 795.5 Q184 868 184 997 Q184 1101 225.5 1191.5 Q267 1282 344 1337.5 Q421 1393 516 1393 Q631 1393 697.5 1320.5 Q764 1248 764 1120 Q764 958 669 840.5 Q574 723 432 723 ZM659 481 L117 481 L131 578 L659 578 L659 481 ZM510 1305 Q413 1305 352 1212.5 Q291 1120 291 1001 Q291 906 332.5 859.5 Q374 813 438 813 Q535 813 596 904 Q657 995 657 1114 Q657 1211 615.5 1258 Q574 1305 510 1305 Z" /><glyph glyph-name="guillemotright" unicode="»" d="M442 0 L817 494 L604 954 L705 979 L971 483 L565 0 L442 0 ZM29 0 L406 494 L190 954 L291 979 L557 483 L152 0 L29 0 Z" /><glyph glyph-name="onequarter" unicode="¼" d="M653 637 L197 637 L211 731 L389 731 L477 1284 L287 1208 L293 1307 L524 1403 L602 1403 L496 731 L653 731 L653 637 ZM1522 164 L1415 164 L1389 -6 L1286 -6 L1315 164 L963 164 L975 236 L1378 754 L1507 754 L1427 248 L1536 248 L1522 164 ZM1327 248 L1366 492 L1393 645 L1391 645 L1288 510 L1153 340 L1075 248 L1077 246 L1192 248 L1327 248 ZM969 672 L453 -16 L358 10 L903 719 L1421 1407 L1513 1380 L969 672 Z" /><glyph glyph-name="onehalf" unicode="½" d="M653 637 L197 637 L211 731 L389 731 L477 1284 L287 1208 L293 1307 L524 1403 L602 1403 L496 731 L653 731 L653 637 ZM1487 0 L981 0 L993 86 L1317 373 Q1380 431 1407 472.5 Q1434 514 1434 563 Q1434 609 1401 638.5 Q1368 668 1311 668 Q1219 668 1108 598 L1108 700 Q1220 766 1329 766 Q1430 766 1489 710 Q1548 654 1548 575 Q1548 501 1509 443.5 Q1470 386 1378 307 L1139 100 L1487 100 L1487 0 ZM924 672 L408 -16 L313 10 L858 719 L1376 1407 L1468 1380 L924 672 Z" /><glyph glyph-name="threequarters" unicode="¾" d="M1522 164 L1415 164 L1389 -6 L1286 -6 L1315 164 L963 164 L975 236 L1378 754 L1507 754 L1427 248 L1536 248 L1522 164 ZM664 848 Q664 743 587 680.5 Q510 618 389 618 Q267 618 147 694 L186 784 Q290 713 389 713 Q463 713 508 751 Q553 789 553 848 Q553 914 500.5 948.5 Q448 983 350 983 L328 983 L328 1073 L391 1073 Q488 1073 545 1111.5 Q602 1150 602 1212 Q602 1258 568 1283.5 Q534 1309 479 1309 Q379 1309 270 1245 L270 1343 Q377 1403 489 1403 Q588 1403 650.5 1356.5 Q713 1310 713 1227 Q713 1147 659.5 1095.5 Q606 1044 520 1022 Q585 1002 624.5 958 Q664 914 664 848 ZM946 672 L430 -16 L336 10 L881 719 L1399 1407 L1491 1380 L946 672 ZM1327 248 L1366 492 L1393 645 L1391 645 L1288 510 L1153 340 L1075 248 L1077 246 L1192 248 L1327 248 Z" /><glyph glyph-name="questiondown" unicode="¿" d="M436 96 Q604 96 807 229 L807 96 Q714 35 623 4 Q532 -27 418 -27 Q254 -27 158.5 59 Q63 145 63 287 Q63 398 112.5 482 Q162 566 253.5 628.5 Q345 691 500 758 L559 1004 L653 1024 L621 682 L571 662 Q373 583 289 501.5 Q205 420 205 301 Q205 204 267.5 150 Q330 96 436 96 ZM557 1212 L590 1413 L748 1413 L717 1212 L557 1212 Z" /><glyph glyph-name="Agrave" unicode="à" d="M1042 -14 L946 457 L379 457 L141 0 L-6 0 L748 1421 L877 1421 L1176 16 L1042 -14 ZM786 1243 L440 578 L922 578 L786 1243 ZM877 1561 L788 1561 L553 1835 L729 1874 L877 1561 Z" /><glyph glyph-name="Aacute" unicode="á" d="M1042 -14 L946 457 L379 457 L141 0 L-6 0 L748 1421 L877 1421 L1176 16 L1042 -14 ZM786 1243 L440 578 L922 578 L786 1243 ZM1196 1835 L874 1561 L768 1561 L1014 1874 L1196 1835 Z" /><glyph glyph-name="Acircumflex" unicode="â" d="M1042 -14 L946 457 L379 457 L141 0 L-6 0 L748 1421 L877 1421 L1176 16 L1042 -14 ZM786 1243 L440 578 L922 578 L786 1243 ZM1100 1542 L1020 1542 L858 1716 L643 1542 L551 1542 L813 1839 L938 1839 L1100 1542 Z" /><glyph glyph-name="Atilde" unicode="ã" d="M1042 -14 L946 457 L379 457 L141 0 L-6 0 L748 1421 L877 1421 L1176 16 L1042 -14 ZM786 1243 L440 578 L922 578 L786 1243 ZM1178 1786 Q1110 1573 983 1573 Q946 1573 918 1584 Q890 1595 840 1624 Q786 1657 763.5 1667 Q741 1677 717 1677 Q669 1677 627 1569 L537 1587 Q570 1692 620 1746 Q670 1800 731 1800 Q769 1800 798 1788.5 Q827 1777 874 1749 Q928 1716 950.5 1706 Q973 1696 997 1696 Q1047 1696 1087 1804 L1178 1786 Z" /><glyph glyph-name="Adieresis" unicode="ä" d="M1042 -14 L946 457 L379 457 L141 0 L-6 0 L748 1421 L877 1421 L1176 16 L1042 -14 ZM786 1243 L440 578 L922 578 L786 1243 ZM1098 1579 L928 1579 L958 1761 L1128 1761 L1098 1579 ZM745 1579 L575 1579 L606 1761 L774 1761 L745 1579 Z" /><glyph glyph-name="Aring" unicode="å" d="M1042 -14 L946 457 L379 457 L141 0 L-6 0 L702 1335 Q618 1393 618 1499 Q618 1584 676.5 1643 Q735 1702 821 1702 Q907 1702 964.5 1643 Q1022 1584 1022 1499 Q1022 1434 989 1385.5 Q956 1337 899 1315 L1176 16 L1042 -14 ZM786 1243 L440 578 L922 578 L786 1243 ZM821 1374 Q872 1374 906 1409.5 Q940 1445 940 1499 Q940 1553 906 1589.5 Q872 1626 821 1626 Q769 1626 734.5 1589.5 Q700 1553 700 1499 Q700 1445 734.5 1409.5 Q769 1374 821 1374 Z" /><glyph glyph-name="AE" unicode="æ" d="M94 0 L-55 0 L1004 1413 L1776 1413 L1755 1288 L1202 1288 L1126 801 L1556 801 L1556 676 L1106 676 L1018 125 L1589 125 L1571 0 L860 0 L932 457 L434 457 L94 0 ZM524 578 L952 578 L1067 1305 L524 578 Z" /><glyph glyph-name="Ccedilla" unicode="ç" d="M1196 1313 L1161 1167 Q1009 1313 829 1313 Q709 1313 604.5 1253.5 Q500 1194 428 1094 Q356 994 315 861.5 Q274 729 274 586 Q274 356 382 228 Q490 100 666 100 Q852 100 1032 223 L1032 84 Q854 -25 655 -25 Q420 -25 276.5 134 Q133 293 133 575 Q133 803 222 1000 Q311 1197 473.5 1317.5 Q636 1438 834 1438 Q1045 1438 1196 1313 ZM692 -172 L406 -406 L309 -406 L524 -131 L692 -172 Z" /><glyph glyph-name="Egrave" unicode="è" d="M1016 1413 L995 1288 L444 1288 L367 803 L797 803 L797 676 L346 676 L258 125 L829 125 L811 0 L100 0 L326 1413 L1016 1413 ZM733 1540 L645 1540 L410 1815 L586 1853 L733 1540 Z" /><glyph glyph-name="Eacute" unicode="é" d="M1051 1815 L729 1540 L623 1540 L868 1853 L1051 1815 ZM1016 1413 L995 1288 L444 1288 L367 803 L797 803 L797 676 L346 676 L258 125 L829 125 L811 0 L100 0 L326 1413 L1016 1413 Z" /><glyph glyph-name="Ecircumflex" unicode="ê" d="M958 1540 L879 1540 L717 1714 L502 1540 L410 1540 L672 1837 L797 1837 L958 1540 ZM1016 1413 L995 1288 L444 1288 L367 803 L797 803 L797 676 L346 676 L258 125 L829 125 L811 0 L100 0 L326 1413 L1016 1413 Z" /><glyph glyph-name="Edieresis" unicode="ë" d="M952 1559 L782 1559 L813 1741 L983 1741 L952 1559 ZM600 1559 L430 1559 L461 1741 L629 1741 L600 1559 ZM1016 1413 L995 1288 L444 1288 L367 803 L797 803 L797 676 L346 676 L258 125 L829 125 L811 0 L100 0 L326 1413 L1016 1413 Z" /><glyph glyph-name="Igrave" unicode="ì" d="M477 1413 L252 0 L115 0 L340 1413 L477 1413 ZM471 1540 L383 1540 L147 1815 L324 1853 L471 1540 Z" /><glyph glyph-name="Iacute" unicode="í" d="M477 1413 L252 0 L115 0 L340 1413 L477 1413 ZM793 1815 L471 1540 L365 1540 L610 1853 L793 1815 Z" /><glyph glyph-name="Icircumflex" unicode="î" d="M477 1413 L252 0 L115 0 L340 1413 L477 1413 ZM698 1540 L618 1540 L457 1714 L242 1540 L150 1540 L412 1837 L537 1837 L698 1540 Z" /><glyph glyph-name="Idieresis" unicode="ï" d="M477 1413 L252 0 L115 0 L340 1413 L477 1413 ZM692 1559 L522 1559 L553 1741 L723 1741 L692 1559 ZM340 1559 L170 1559 L201 1741 L369 1741 L340 1559 Z" /><glyph glyph-name="Eth" unicode="ð" d="M1282 831 Q1282 645 1220.5 489 Q1159 333 1047 221 Q940 114 794.5 57 Q649 0 479 0 L125 0 L233 678 L70 678 L70 801 L252 801 L350 1413 L684 1413 Q970 1413 1126 1258.5 Q1282 1104 1282 831 ZM713 678 L371 678 L283 123 L494 123 Q765 123 940 295 Q1034 389 1086.5 524.5 Q1139 660 1139 823 Q1139 1047 1019.5 1168.5 Q900 1290 668 1290 L469 1290 L391 801 L731 801 L713 678 Z" /><glyph glyph-name="Ntilde" unicode="ñ" d="M1317 1413 L1092 0 L1008 0 L418 1200 L229 0 L100 0 L326 1413 L457 1413 L1012 281 L1190 1413 L1317 1413 ZM1192 1755 Q1124 1542 997 1542 Q960 1542 932 1553 Q904 1564 854 1593 Q799 1627 777 1637 Q755 1647 731 1647 Q683 1647 641 1538 L551 1556 Q584 1661 634 1715 Q684 1769 745 1769 Q783 1769 812.5 1757.5 Q842 1746 889 1718 Q943 1685 965.5 1675 Q988 1665 1012 1665 Q1061 1665 1102 1774 L1192 1755 Z" /><glyph glyph-name="Ograve" unicode="ò" d="M668 -27 Q502 -27 380 55 Q258 137 196.5 276.5 Q135 416 135 594 Q135 792 203 964.5 Q271 1137 391 1257 Q577 1440 825 1440 Q990 1440 1112 1358 Q1234 1276 1296 1136.5 Q1358 997 1358 819 Q1358 622 1289.5 449.5 Q1221 277 1100 156 Q917 -27 668 -27 ZM672 94 Q852 94 999 238 Q1100 340 1157 490.5 Q1214 641 1214 817 Q1214 1046 1109 1182.5 Q1004 1319 819 1319 Q637 1319 494 1176 Q393 1073 334.5 922.5 Q276 772 276 596 Q276 367 381.5 230.5 Q487 94 672 94 ZM932 1561 L844 1561 L608 1835 L784 1874 L932 1561 Z" /><glyph glyph-name="Oacute" unicode="ó" d="M1251 1835 L930 1561 L823 1561 L1069 1874 L1251 1835 ZM668 -27 Q502 -27 380 55 Q258 137 196.5 276.5 Q135 416 135 594 Q135 792 203 964.5 Q271 1137 391 1257 Q577 1440 825 1440 Q990 1440 1112 1358 Q1234 1276 1296 1136.5 Q1358 997 1358 819 Q1358 622 1289.5 449.5 Q1221 277 1100 156 Q917 -27 668 -27 ZM672 94 Q852 94 999 238 Q1100 340 1157 490.5 Q1214 641 1214 817 Q1214 1046 1109 1182.5 Q1004 1319 819 1319 Q637 1319 494 1176 Q393 1073 334.5 922.5 Q276 772 276 596 Q276 367 381.5 230.5 Q487 94 672 94 Z" /><glyph glyph-name="Ocircumflex" unicode="ô" d="M1159 1561 L1079 1561 L918 1735 L702 1561 L610 1561 L872 1858 L997 1858 L1159 1561 ZM668 -27 Q502 -27 380 55 Q258 137 196.5 276.5 Q135 416 135 594 Q135 792 203 964.5 Q271 1137 391 1257 Q577 1440 825 1440 Q990 1440 1112 1358 Q1234 1276 1296 1136.5 Q1358 997 1358 819 Q1358 622 1289.5 449.5 Q1221 277 1100 156 Q917 -27 668 -27 ZM672 94 Q852 94 999 238 Q1100 340 1157 490.5 Q1214 641 1214 817 Q1214 1046 1109 1182.5 Q1004 1319 819 1319 Q637 1319 494 1176 Q393 1073 334.5 922.5 Q276 772 276 596 Q276 367 381.5 230.5 Q487 94 672 94 Z" /><glyph glyph-name="Otilde" unicode="õ" d="M668 -27 Q502 -27 380 55 Q258 137 196.5 276.5 Q135 416 135 594 Q135 792 203 964.5 Q271 1137 391 1257 Q577 1440 825 1440 Q990 1440 1112 1358 Q1234 1276 1296 1136.5 Q1358 997 1358 819 Q1358 622 1289.5 449.5 Q1221 277 1100 156 Q917 -27 668 -27 ZM672 94 Q852 94 999 238 Q1100 340 1157 490.5 Q1214 641 1214 817 Q1214 1046 1109 1182.5 Q1004 1319 819 1319 Q637 1319 494 1176 Q393 1073 334.5 922.5 Q276 772 276 596 Q276 367 381.5 230.5 Q487 94 672 94 ZM1235 1786 Q1167 1573 1040 1573 Q1003 1573 975 1584 Q947 1595 897 1624 Q843 1657 820.5 1667 Q798 1677 774 1677 Q726 1677 684 1569 L594 1587 Q627 1692 677 1746 Q727 1800 788 1800 Q826 1800 855.5 1788.5 Q885 1777 932 1749 Q986 1716 1008.5 1706 Q1031 1696 1055 1696 Q1105 1696 1145 1804 L1235 1786 Z" /><glyph glyph-name="Odieresis" unicode="ö" d="M1153 1579 L983 1579 L1014 1761 L1184 1761 L1153 1579 ZM801 1579 L631 1579 L662 1761 L829 1761 L801 1579 ZM668 -27 Q502 -27 380 55 Q258 137 196.5 276.5 Q135 416 135 594 Q135 792 203 964.5 Q271 1137 391 1257 Q577 1440 825 1440 Q990 1440 1112 1358 Q1234 1276 1296 1136.5 Q1358 997 1358 819 Q1358 622 1289.5 449.5 Q1221 277 1100 156 Q917 -27 668 -27 ZM672 94 Q852 94 999 238 Q1100 340 1157 490.5 Q1214 641 1214 817 Q1214 1046 1109 1182.5 Q1004 1319 819 1319 Q637 1319 494 1176 Q393 1073 334.5 922.5 Q276 772 276 596 Q276 367 381.5 230.5 Q487 94 672 94 Z" /><glyph glyph-name="multiply" unicode="×" d="M895 270 L608 616 L211 270 L139 354 L539 696 L248 1038 L338 1116 L625 770 L1022 1116 L1094 1032 L694 690 L985 348 L895 270 Z" /><glyph glyph-name="Oslash" unicode="ø" d="M668 -27 Q439 -27 299 123 L174 -16 L53 10 L231 209 Q135 367 135 594 Q135 792 203 964.5 Q271 1137 391 1257 Q577 1440 825 1440 Q1048 1440 1194 1288 L1321 1430 L1442 1403 L1262 1200 Q1358 1045 1358 819 Q1358 622 1289.5 449.5 Q1221 277 1100 156 Q917 -27 668 -27 ZM274 596 Q274 435 328 315 L1106 1190 Q1000 1321 819 1321 Q634 1321 492 1176 Q390 1076 332 925 Q274 774 274 596 ZM672 92 Q855 92 1001 238 Q1102 339 1160.5 489.5 Q1219 640 1219 817 Q1219 971 1163 1096 L387 221 Q494 92 672 92 Z" /><glyph glyph-name="Ugrave" unicode="ù" d="M1335 1413 L1190 489 Q1151 242 1004.5 109.5 Q858 -23 633 -23 Q417 -23 290.5 95 Q164 213 164 430 Q164 508 176 584 L307 1413 L444 1413 L311 565 Q301 497 301 440 Q301 279 389.5 189.5 Q478 100 641 100 Q815 100 919.5 207 Q1024 314 1055 514 L1198 1413 L1335 1413 ZM883 1530 L795 1530 L559 1804 L735 1843 L883 1530 Z" /><glyph glyph-name="Uacute" unicode="ú" d="M1204 1804 L883 1530 L776 1530 L1022 1843 L1204 1804 ZM1335 1413 L1190 489 Q1151 242 1004.5 109.5 Q858 -23 633 -23 Q417 -23 290.5 95 Q164 213 164 430 Q164 508 176 584 L307 1413 L444 1413 L311 565 Q301 497 301 440 Q301 279 389.5 189.5 Q478 100 641 100 Q815 100 919.5 207 Q1024 314 1055 514 L1198 1413 L1335 1413 Z" /><glyph glyph-name="Ucircumflex" unicode="û" d="M1110 1530 L1030 1530 L868 1704 L653 1530 L561 1530 L823 1827 L948 1827 L1110 1530 ZM1335 1413 L1190 489 Q1151 242 1004.5 109.5 Q858 -23 633 -23 Q417 -23 290.5 95 Q164 213 164 430 Q164 508 176 584 L307 1413 L444 1413 L311 565 Q301 497 301 440 Q301 279 389.5 189.5 Q478 100 641 100 Q815 100 919.5 207 Q1024 314 1055 514 L1198 1413 L1335 1413 Z" /><glyph glyph-name="Udieresis" unicode="ü" d="M1104 1548 L934 1548 L965 1731 L1135 1731 L1104 1548 ZM752 1548 L582 1548 L612 1731 L780 1731 L752 1548 ZM1335 1413 L1190 489 Q1151 242 1004.5 109.5 Q858 -23 633 -23 Q417 -23 290.5 95 Q164 213 164 430 Q164 508 176 584 L307 1413 L444 1413 L311 565 Q301 497 301 440 Q301 279 389.5 189.5 Q478 100 641 100 Q815 100 919.5 207 Q1024 314 1055 514 L1198 1413 L1335 1413 Z" /><glyph glyph-name="Yacute" unicode="ý" d="M1298 1413 L688 588 L596 0 L459 0 L551 586 L207 1399 L348 1427 L639 711 L1137 1413 L1298 1413 ZM1128 1804 L807 1530 L700 1530 L946 1843 L1128 1804 Z" /><glyph glyph-name="Thorn" unicode="þ" d="M987 762 Q987 562 841 438.5 Q695 315 453 315 L289 315 L240 0 L100 0 L326 1413 L463 1413 L420 1133 L547 1133 Q760 1133 873.5 1036.5 Q987 940 987 762 ZM850 754 Q850 878 771.5 944 Q693 1010 541 1010 L399 1010 L309 440 L469 440 Q652 440 751 528.5 Q850 617 850 754 Z" /><glyph glyph-name="germandbls" unicode="ß" d="M1069 326 Q1069 167 965.5 74.5 Q862 -18 700 -18 Q560 -18 416 57 L449 172 Q587 92 713 92 Q813 92 875.5 152 Q938 212 938 311 Q938 421 847 494 Q756 567 557 618 L557 713 Q697 860 757 960.5 Q817 1061 817 1171 Q817 1254 772 1302 Q727 1350 651 1350 Q555 1350 496 1280 Q437 1210 416 1085 L190 -352 L57 -375 L252 858 L109 858 L125 969 L270 969 L289 1100 Q315 1270 412 1366 Q509 1462 659 1462 Q794 1462 872 1386 Q950 1310 950 1184 Q950 1050 886.5 942 Q823 834 686 696 Q1069 588 1069 326 Z" /><glyph glyph-name="agrave" unicode="à" d="M680 201 Q575 91 493.5 35.5 Q412 -20 332 -20 Q215 -20 147.5 65 Q80 150 80 305 Q80 449 124.5 576 Q169 703 243.5 792 Q318 881 418.5 932 Q519 983 629 983 Q763 983 907 922 L803 281 L803 0 L690 0 L680 201 ZM682 334 L766 842 Q700 870 612 870 Q535 870 462.5 829 Q390 788 335 717 Q280 646 246.5 541.5 Q213 437 213 317 Q213 209 250 151.5 Q287 94 354 94 Q415 94 489.5 150.5 Q564 207 682 334 ZM662 1126 L573 1126 L338 1401 L514 1440 L662 1126 Z" /><glyph glyph-name="aacute" unicode="á" d="M680 201 Q575 91 493.5 35.5 Q412 -20 332 -20 Q215 -20 147.5 65 Q80 150 80 305 Q80 449 124.5 576 Q169 703 243.5 792 Q318 881 418.5 932 Q519 983 629 983 Q763 983 907 922 L803 281 L803 0 L690 0 L680 201 ZM682 334 L766 842 Q700 870 612 870 Q535 870 462.5 829 Q390 788 335 717 Q280 646 246.5 541.5 Q213 437 213 317 Q213 209 250 151.5 Q287 94 354 94 Q415 94 489.5 150.5 Q564 207 682 334 ZM979 1401 L657 1126 L551 1126 L797 1440 L979 1401 Z" /><glyph glyph-name="acircumflex" unicode="â" d="M680 201 Q575 91 493.5 35.5 Q412 -20 332 -20 Q215 -20 147.5 65 Q80 150 80 305 Q80 449 124.5 576 Q169 703 243.5 792 Q318 881 418.5 932 Q519 983 629 983 Q763 983 907 922 L803 281 L803 0 L690 0 L680 201 ZM682 334 L766 842 Q700 870 612 870 Q535 870 462.5 829 Q390 788 335 717 Q280 646 246.5 541.5 Q213 437 213 317 Q213 209 250 151.5 Q287 94 354 94 Q415 94 489.5 150.5 Q564 207 682 334 ZM887 1126 L807 1126 L645 1300 L430 1126 L338 1126 L600 1423 L725 1423 L887 1126 Z" /><glyph glyph-name="atilde" unicode="ã" d="M680 201 Q575 91 493.5 35.5 Q412 -20 332 -20 Q215 -20 147.5 65 Q80 150 80 305 Q80 449 124.5 576 Q169 703 243.5 792 Q318 881 418.5 932 Q519 983 629 983 Q763 983 907 922 L803 281 L803 0 L690 0 L680 201 ZM682 334 L766 842 Q700 870 612 870 Q535 870 462.5 829 Q390 788 335 717 Q280 646 246.5 541.5 Q213 437 213 317 Q213 209 250 151.5 Q287 94 354 94 Q415 94 489.5 150.5 Q564 207 682 334 ZM961 1352 Q893 1139 766 1139 Q729 1139 701 1150 Q673 1161 623 1190 Q569 1223 546.5 1233 Q524 1243 500 1243 Q452 1243 410 1135 L319 1153 Q352 1258 402.5 1312 Q453 1366 514 1366 Q552 1366 581 1354.5 Q610 1343 657 1315 Q711 1282 733.5 1272 Q756 1262 780 1262 Q830 1262 870 1370 L961 1352 Z" /><glyph glyph-name="adieresis" unicode="ä" d="M680 201 Q575 91 493.5 35.5 Q412 -20 332 -20 Q215 -20 147.5 65 Q80 150 80 305 Q80 449 124.5 576 Q169 703 243.5 792 Q318 881 418.5 932 Q519 983 629 983 Q763 983 907 922 L803 281 L803 0 L690 0 L680 201 ZM682 334 L766 842 Q700 870 612 870 Q535 870 462.5 829 Q390 788 335 717 Q280 646 246.5 541.5 Q213 437 213 317 Q213 209 250 151.5 Q287 94 354 94 Q415 94 489.5 150.5 Q564 207 682 334 ZM881 1145 L711 1145 L741 1327 L911 1327 L881 1145 ZM528 1145 L358 1145 L389 1327 L557 1327 L528 1145 Z" /><glyph glyph-name="aring" unicode="å" d="M680 201 Q575 91 493.5 35.5 Q412 -20 332 -20 Q215 -20 147.5 65 Q80 150 80 305 Q80 449 124.5 576 Q169 703 243.5 792 Q318 881 418.5 932 Q519 983 629 983 Q763 983 907 922 L803 281 L803 0 L690 0 L680 201 ZM682 334 L766 842 Q700 870 612 870 Q535 870 462.5 829 Q390 788 335 717 Q280 646 246.5 541.5 Q213 437 213 317 Q213 209 250 151.5 Q287 94 354 94 Q415 94 489.5 150.5 Q564 207 682 334 ZM647 1196 Q699 1196 732.5 1230.5 Q766 1265 766 1319 Q766 1373 732.5 1409.5 Q699 1446 647 1446 Q596 1446 561 1409.5 Q526 1373 526 1319 Q526 1266 561 1231 Q596 1196 647 1196 ZM790.5 1176.5 Q733 1120 647 1120 Q561 1120 503.5 1176.5 Q446 1233 446 1319 Q446 1404 503.5 1463 Q561 1522 647 1522 Q733 1522 790.5 1463 Q848 1404 848 1319 Q848 1233 790.5 1176.5 Z" /><glyph glyph-name="ae" unicode="æ" d="M1403 629 Q1403 563 1389 481 L786 481 Q780 440 780 395 Q780 251 843.5 171.5 Q907 92 1020 92 Q1094 92 1165 122.5 Q1236 153 1325 217 L1325 90 Q1166 -20 1004 -20 Q895 -20 815 27.5 Q735 75 692 164 Q477 -18 303 -18 Q188 -18 116.5 45 Q45 108 45 225 Q45 564 678 614 L684 666 Q701 775 661 826 Q621 877 522 877 Q398 877 221 791 L221 911 Q395 989 537 989 Q762 989 801 829 Q926 989 1102 989 Q1246 989 1324.5 894 Q1403 799 1403 629 ZM1270 582 Q1282 727 1238 806 Q1194 885 1094 885 Q1001 885 920 802.5 Q839 720 803 582 L1270 582 ZM659 262 Q647 320 647 387 Q647 448 657 516 Q521 503 425.5 476.5 Q330 450 277 412 Q224 374 201 331.5 Q178 289 178 236 Q178 166 218.5 129 Q259 92 330 92 Q459 92 659 262 Z" /><glyph glyph-name="ccedilla" unicode="ç" d="M825 907 L791 780 Q673 874 565 874 Q470 874 389 807 Q308 740 262.5 631 Q217 522 217 401 Q217 252 282.5 173 Q348 94 465 94 Q579 94 713 186 L713 63 Q591 -20 451 -20 Q282 -20 183 88 Q84 196 84 389 Q82 546 145 684 Q208 822 321 905.5 Q434 989 569 989 Q706 989 825 907 ZM483 -168 L197 -401 L100 -401 L315 -127 L483 -168 Z" /><glyph glyph-name="egrave" unicode="è" d="M453 92 Q528 92 599.5 122.5 Q671 153 760 217 L760 90 Q601 -20 438 -20 Q268 -20 175 88 Q82 196 82 383 Q82 514 119.5 628.5 Q157 743 219.5 821 Q282 899 365 944 Q448 989 537 989 Q681 989 759.5 894 Q838 799 838 629 Q838 569 823 481 L219 481 Q215 423 215 391 Q215 250 278 171 Q341 92 453 92 ZM528 885 Q433 885 354 802 Q275 719 238 582 L705 582 Q717 727 672.5 806 Q628 885 528 885 ZM616 1126 L528 1126 L293 1401 L469 1440 L616 1126 Z" /><glyph glyph-name="eacute" unicode="é" d="M453 92 Q528 92 599.5 122.5 Q671 153 760 217 L760 90 Q601 -20 438 -20 Q268 -20 175 88 Q82 196 82 383 Q82 514 119.5 628.5 Q157 743 219.5 821 Q282 899 365 944 Q448 989 537 989 Q681 989 759.5 894 Q838 799 838 629 Q838 569 823 481 L219 481 Q215 423 215 391 Q215 250 278 171 Q341 92 453 92 ZM528 885 Q433 885 354 802 Q275 719 238 582 L705 582 Q717 727 672.5 806 Q628 885 528 885 ZM936 1401 L614 1126 L508 1126 L754 1440 L936 1401 Z" /><glyph glyph-name="ecircumflex" unicode="ê" d="M453 92 Q528 92 599.5 122.5 Q671 153 760 217 L760 90 Q601 -20 438 -20 Q268 -20 175 88 Q82 196 82 383 Q82 514 119.5 628.5 Q157 743 219.5 821 Q282 899 365 944 Q448 989 537 989 Q681 989 759.5 894 Q838 799 838 629 Q838 569 823 481 L219 481 Q215 423 215 391 Q215 250 278 171 Q341 92 453 92 ZM528 885 Q433 885 354 802 Q275 719 238 582 L705 582 Q717 727 672.5 806 Q628 885 528 885 ZM842 1126 L762 1126 L600 1300 L385 1126 L293 1126 L555 1423 L680 1423 L842 1126 Z" /><glyph glyph-name="edieresis" unicode="ë" d="M453 92 Q528 92 599.5 122.5 Q671 153 760 217 L760 90 Q601 -20 438 -20 Q268 -20 175 88 Q82 196 82 383 Q82 514 119.5 628.5 Q157 743 219.5 821 Q282 899 365 944 Q448 989 537 989 Q681 989 759.5 894 Q838 799 838 629 Q838 569 823 481 L219 481 Q215 423 215 391 Q215 250 278 171 Q341 92 453 92 ZM528 885 Q433 885 354 802 Q275 719 238 582 L705 582 Q717 727 672.5 806 Q628 885 528 885 ZM836 1145 L666 1145 L696 1327 L866 1327 L836 1145 ZM483 1145 L313 1145 L344 1327 L512 1327 L483 1145 Z" /><glyph glyph-name="igrave" unicode="ì" d="M371 969 L215 0 L84 0 L240 969 L371 969 ZM373 1126 L285 1126 L49 1401 L225 1440 L373 1126 Z" /><glyph glyph-name="iacute" unicode="í" d="M694 1401 L373 1126 L266 1126 L512 1440 L694 1401 ZM371 969 L215 0 L84 0 L240 969 L371 969 Z" /><glyph glyph-name="icircumflex" unicode="î" d="M600 1126 L520 1126 L358 1300 L143 1126 L51 1126 L313 1423 L438 1423 L600 1126 ZM371 969 L215 0 L84 0 L240 969 L371 969 Z" /><glyph glyph-name="idieresis" unicode="ï" d="M594 1145 L424 1145 L455 1327 L625 1327 L594 1145 ZM242 1145 L72 1145 L102 1327 L270 1327 L242 1145 ZM371 969 L215 0 L84 0 L240 969 L371 969 Z" /><glyph glyph-name="eth" unicode="ð" d="M592 1047 L477 1047 L625 1243 Q542 1309 420 1356 L444 1473 Q591 1419 696 1337 L799 1470 L901 1446 L764 1272 Q930 1094 930 791 Q930 575 866.5 393 Q803 211 690 98 Q572 -20 418 -20 Q273 -20 178.5 82.5 Q84 185 84 371 Q84 517 141 642.5 Q198 768 296.5 841.5 Q395 915 512 915 Q600 915 668.5 877 Q737 839 803 768 L803 795 Q803 1039 690 1176 L592 1047 ZM430 86 Q560 86 661.5 243 Q763 400 791 635 Q725 723 659.5 765 Q594 807 510 807 Q386 807 301.5 677.5 Q217 548 217 367 Q217 231 274 158.5 Q331 86 430 86 Z" /><glyph glyph-name="ntilde" unicode="ñ" d="M901 774 Q901 738 893 668 L784 0 L653 0 L762 670 Q770 728 770 758 Q770 810 740.5 840 Q711 870 655 870 Q591 870 512 811.5 Q433 753 303 614 L209 0 L78 0 L188 688 L188 969 L303 969 L313 754 Q426 874 510.5 931.5 Q595 989 684 989 Q787 989 844 933.5 Q901 878 901 774 ZM940 1352 Q872 1139 745 1139 Q708 1139 680 1150 Q652 1161 602 1190 Q548 1223 525.5 1233 Q503 1243 479 1243 Q431 1243 389 1135 L299 1153 Q332 1258 382.5 1312 Q433 1366 494 1366 Q532 1366 561 1354.5 Q590 1343 637 1315 Q691 1282 713.5 1272 Q736 1262 760 1262 Q810 1262 850 1370 L940 1352 Z" /><glyph glyph-name="ograve" unicode="ò" d="M895 578 Q895 419 835.5 282.5 Q776 146 667 63 Q558 -20 424 -20 Q265 -20 174.5 91 Q84 202 84 391 Q84 550 143 686.5 Q202 823 310.5 906 Q419 989 553 989 Q712 989 803.5 878 Q895 767 895 578 ZM764 571 Q764 722 704.5 801.5 Q645 881 545 881 Q453 881 376 811.5 Q299 742 257 631.5 Q215 521 215 399 Q215 246 274 167 Q333 88 434 88 Q527 88 604 157.5 Q681 227 722.5 337.5 Q764 448 764 571 ZM635 1126 L547 1126 L311 1401 L487 1440 L635 1126 Z" /><glyph glyph-name="oacute" unicode="ó" d="M952 1401 L631 1126 L524 1126 L770 1440 L952 1401 ZM895 578 Q895 419 835.5 282.5 Q776 146 667 63 Q558 -20 424 -20 Q265 -20 174.5 91 Q84 202 84 391 Q84 550 143 686.5 Q202 823 310.5 906 Q419 989 553 989 Q712 989 803.5 878 Q895 767 895 578 ZM764 571 Q764 722 704.5 801.5 Q645 881 545 881 Q453 881 376 811.5 Q299 742 257 631.5 Q215 521 215 399 Q215 246 274 167 Q333 88 434 88 Q527 88 604 157.5 Q681 227 722.5 337.5 Q764 448 764 571 Z" /><glyph glyph-name="ocircumflex" unicode="ô" d="M860 1126 L780 1126 L618 1300 L403 1126 L311 1126 L573 1423 L698 1423 L860 1126 ZM895 578 Q895 419 835.5 282.5 Q776 146 667 63 Q558 -20 424 -20 Q265 -20 174.5 91 Q84 202 84 391 Q84 550 143 686.5 Q202 823 310.5 906 Q419 989 553 989 Q712 989 803.5 878 Q895 767 895 578 ZM764 571 Q764 722 704.5 801.5 Q645 881 545 881 Q453 881 376 811.5 Q299 742 257 631.5 Q215 521 215 399 Q215 246 274 167 Q333 88 434 88 Q527 88 604 157.5 Q681 227 722.5 337.5 Q764 448 764 571 Z" /><glyph glyph-name="otilde" unicode="õ" d="M895 578 Q895 419 835.5 282.5 Q776 146 667 63 Q558 -20 424 -20 Q265 -20 174.5 91 Q84 202 84 391 Q84 550 143 686.5 Q202 823 310.5 906 Q419 989 553 989 Q712 989 803.5 878 Q895 767 895 578 ZM764 571 Q764 722 704.5 801.5 Q645 881 545 881 Q453 881 376 811.5 Q299 742 257 631.5 Q215 521 215 399 Q215 246 274 167 Q333 88 434 88 Q527 88 604 157.5 Q681 227 722.5 337.5 Q764 448 764 571 ZM934 1352 Q866 1139 739 1139 Q702 1139 674 1150 Q646 1161 596 1190 Q542 1223 519.5 1233 Q497 1243 473 1243 Q425 1243 383 1135 L293 1153 Q326 1258 376 1312 Q426 1366 487 1366 Q525 1366 554.5 1354.5 Q584 1343 631 1315 Q685 1282 707.5 1272 Q730 1262 754 1262 Q804 1262 844 1370 L934 1352 Z" /><glyph glyph-name="odieresis" unicode="ö" d="M852 1145 L682 1145 L713 1327 L883 1327 L852 1145 ZM500 1145 L330 1145 L360 1327 L528 1327 L500 1145 ZM895 578 Q895 419 835.5 282.5 Q776 146 667 63 Q558 -20 424 -20 Q265 -20 174.5 91 Q84 202 84 391 Q84 550 143 686.5 Q202 823 310.5 906 Q419 989 553 989 Q712 989 803.5 878 Q895 767 895 578 ZM764 571 Q764 722 704.5 801.5 Q645 881 545 881 Q453 881 376 811.5 Q299 742 257 631.5 Q215 521 215 399 Q215 246 274 167 Q333 88 434 88 Q527 88 604 157.5 Q681 227 722.5 337.5 Q764 448 764 571 Z" /><glyph glyph-name="divide" unicode="÷" d="M741 977 L584 977 L612 1161 L770 1161 L741 977 ZM1075 637 L143 637 L160 748 L1092 748 L1075 637 ZM623 223 L467 223 L496 408 L651 408 L623 223 Z" /><glyph glyph-name="oslash" unicode="ø" d="M965 961 L842 819 Q895 719 895 578 Q895 419 835.5 282.5 Q776 146 667 63 Q558 -20 424 -20 Q283 -20 195 68 L123 -14 L14 10 L135 150 Q84 252 84 391 Q84 550 143 686.5 Q202 823 310.5 906 Q419 989 553 989 Q692 989 782 899 L856 985 L965 961 ZM768 573 Q768 656 750 717 L272 158 Q334 84 434 84 Q529 84 607 154.5 Q685 225 726.5 336.5 Q768 448 768 573 ZM209 395 Q209 318 225 252 L705 809 Q644 885 545 885 Q450 885 371.5 813.5 Q293 742 251 630.5 Q209 519 209 395 Z" /><glyph glyph-name="ugrave" unicode="ù" d="M100 195 Q100 222 109 301 L217 969 L348 969 L240 299 Q231 234 231 213 Q231 161 260.5 129.5 Q290 98 346 98 Q410 98 488.5 156.5 Q567 215 698 354 L793 969 L924 969 L813 281 L813 0 L698 0 L688 215 Q575 95 490.5 37.5 Q406 -20 317 -20 Q214 -20 157 35.5 Q100 91 100 195 ZM633 1122 L545 1122 L309 1397 L485 1436 L633 1122 Z" /><glyph glyph-name="uacute" unicode="ú" d="M952 1397 L631 1122 L524 1122 L770 1436 L952 1397 ZM100 195 Q100 222 109 301 L217 969 L348 969 L240 299 Q231 234 231 213 Q231 161 260.5 129.5 Q290 98 346 98 Q410 98 488.5 156.5 Q567 215 698 354 L793 969 L924 969 L813 281 L813 0 L698 0 L688 215 Q575 95 490.5 37.5 Q406 -20 317 -20 Q214 -20 157 35.5 Q100 91 100 195 Z" /><glyph glyph-name="ucircumflex" unicode="û" d="M858 1122 L778 1122 L616 1296 L401 1122 L309 1122 L571 1419 L696 1419 L858 1122 ZM100 195 Q100 222 109 301 L217 969 L348 969 L240 299 Q231 234 231 213 Q231 161 260.5 129.5 Q290 98 346 98 Q410 98 488.5 156.5 Q567 215 698 354 L793 969 L924 969 L813 281 L813 0 L698 0 L688 215 Q575 95 490.5 37.5 Q406 -20 317 -20 Q214 -20 157 35.5 Q100 91 100 195 Z" /><glyph glyph-name="udieresis" unicode="ü" d="M852 1141 L682 1141 L713 1323 L883 1323 L852 1141 ZM500 1141 L330 1141 L360 1323 L528 1323 L500 1141 ZM100 195 Q100 222 109 301 L217 969 L348 969 L240 299 Q231 234 231 213 Q231 161 260.5 129.5 Q290 98 346 98 Q410 98 488.5 156.5 Q567 215 698 354 L793 969 L924 969 L813 281 L813 0 L698 0 L688 215 Q575 95 490.5 37.5 Q406 -20 317 -20 Q214 -20 157 35.5 Q100 91 100 195 Z" /><glyph glyph-name="yacute" unicode="ý" d="M936 969 L381 -135 Q316 -265 245.5 -317 Q175 -369 70 -369 Q68 -369 12 -362 L12 -246 Q58 -254 86 -254 Q141 -254 182 -222.5 Q223 -191 260 -121 L328 8 L131 956 L262 981 L416 164 L795 969 L936 969 ZM930 1397 L608 1122 L502 1122 L748 1436 L930 1397 Z" /><glyph glyph-name="thorn" unicode="þ" d="M922 633 Q922 491 879.5 369.5 Q837 248 765 165 Q693 82 596 35 Q499 -12 391 -12 Q303 -12 209 16 L150 -352 L16 -375 L303 1446 L438 1470 L334 815 Q415 901 486 945 Q557 989 643 989 Q771 989 846.5 895.5 Q922 802 922 633 ZM227 133 Q311 98 397 98 Q474 98 545 133.5 Q616 169 671 234 Q726 299 758.5 398 Q791 497 791 616 Q791 737 744.5 805.5 Q698 874 616 874 Q551 874 481.5 824 Q412 774 311 664 L227 133 Z" /><glyph glyph-name="ydieresis" unicode="ÿ" d="M936 969 L381 -135 Q316 -265 245.5 -317 Q175 -369 70 -369 Q68 -369 12 -362 L12 -246 Q58 -254 86 -254 Q141 -254 182 -222.5 Q223 -191 260 -121 L328 8 L131 956 L262 981 L416 164 L795 969 L936 969 ZM831 1141 L662 1141 L692 1323 L862 1323 L831 1141 ZM479 1141 L309 1141 L340 1323 L508 1323 L479 1141 Z" /><glyph glyph-name="Amacron" unicode="&#x100;" d="M1042 -14 L946 457 L379 457 L141 0 L-6 0 L748 1421 L877 1421 L1176 16 L1042 -14 ZM786 1243 L440 578 L922 578 L786 1243 ZM1110 1616 L578 1616 L596 1731 L1128 1731 L1110 1616 Z" /><glyph glyph-name="amacron" unicode="&#x101;" d="M680 201 Q575 91 493.5 35.5 Q412 -20 332 -20 Q215 -20 147.5 65 Q80 150 80 305 Q80 449 124.5 576 Q169 703 243.5 792 Q318 881 418.5 932 Q519 983 629 983 Q763 983 907 922 L803 281 L803 0 L690 0 L680 201 ZM682 334 L766 842 Q700 870 612 870 Q535 870 462.5 829 Q390 788 335 717 Q280 646 246.5 541.5 Q213 437 213 317 Q213 209 250 151.5 Q287 94 354 94 Q415 94 489.5 150.5 Q564 207 682 334 ZM893 1182 L360 1182 L379 1296 L911 1296 L893 1182 Z" /><glyph glyph-name="Abreve" unicode="&#x102;" d="M1042 -14 L946 457 L379 457 L141 0 L-6 0 L748 1421 L877 1421 L1176 16 L1042 -14 ZM786 1243 L440 578 L922 578 L786 1243 ZM1133 1798 Q1106 1693 1029.5 1630 Q953 1567 838 1567 Q720 1567 661 1631 Q602 1695 604 1798 L705 1815 Q713 1753 750 1719.5 Q787 1686 850 1686 Q979 1686 1040 1815 L1133 1798 Z" /><glyph glyph-name="abreve" unicode="&#x103;" d="M680 201 Q575 91 493.5 35.5 Q412 -20 332 -20 Q215 -20 147.5 65 Q80 150 80 305 Q80 449 124.5 576 Q169 703 243.5 792 Q318 881 418.5 932 Q519 983 629 983 Q763 983 907 922 L803 281 L803 0 L690 0 L680 201 ZM682 334 L766 842 Q700 870 612 870 Q535 870 462.5 829 Q390 788 335 717 Q280 646 246.5 541.5 Q213 437 213 317 Q213 209 250 151.5 Q287 94 354 94 Q415 94 489.5 150.5 Q564 207 682 334 ZM915 1364 Q888 1259 812 1196 Q736 1133 621 1133 Q503 1133 444 1197 Q385 1261 387 1364 L487 1380 Q495 1318 532.5 1284.5 Q570 1251 633 1251 Q762 1251 823 1380 L915 1364 Z" /><glyph glyph-name="Aogonek" unicode="&#x104;" d="M1176 16 L1155 12 L1096 -59 Q1045 -119 1026.5 -151 Q1008 -183 1008 -213 Q1008 -268 1079 -268 Q1111 -268 1159 -258 L1145 -344 Q1087 -365 1026 -365 Q960 -365 925.5 -336.5 Q891 -308 891 -254 Q891 -200 921 -149.5 Q951 -99 1026 -20 L1040 -4 L946 457 L379 457 L141 0 L-6 0 L748 1421 L877 1421 L1176 16 ZM786 1243 L440 578 L922 578 L786 1243 Z" /><glyph glyph-name="aogonek" unicode="&#x105;" d="M680 201 Q575 91 493.5 35.5 Q412 -20 332 -20 Q215 -20 147.5 65 Q80 150 80 305 Q80 449 124.5 576 Q169 703 243.5 792 Q318 881 418.5 932 Q519 983 629 983 Q763 983 907 922 L803 281 L803 0 L770 0 L721 -59 Q670 -119 651.5 -151 Q633 -183 633 -213 Q633 -268 705 -268 Q736 -268 784 -258 L770 -344 Q711 -365 651 -365 Q585 -365 550.5 -336.5 Q516 -308 516 -254 Q516 -200 546 -149.5 Q576 -99 651 -20 L688 18 L680 201 ZM682 334 L766 842 Q700 870 612 870 Q535 870 462.5 829 Q390 788 335 717 Q280 646 246.5 541.5 Q213 437 213 317 Q213 209 250 151.5 Q287 94 354 94 Q415 94 489.5 150.5 Q564 207 682 334 Z" /><glyph glyph-name="Cacute" unicode="&#x106;" d="M1233 1835 L911 1561 L805 1561 L1051 1874 L1233 1835 ZM1196 1313 L1161 1167 Q1009 1313 829 1313 Q709 1313 604.5 1253.5 Q500 1194 428 1094 Q356 994 315 861.5 Q274 729 274 586 Q274 356 382 228 Q490 100 666 100 Q852 100 1032 223 L1032 84 Q854 -25 655 -25 Q420 -25 276.5 134 Q133 293 133 575 Q133 803 222 1000 Q311 1197 473.5 1317.5 Q636 1438 834 1438 Q1045 1438 1196 1313 Z" /><glyph glyph-name="cacute" unicode="&#x107;" d="M954 1401 L633 1126 L526 1126 L772 1440 L954 1401 ZM825 907 L791 780 Q673 874 565 874 Q470 874 389 807 Q308 740 262.5 631 Q217 522 217 401 Q217 252 282.5 173 Q348 94 465 94 Q579 94 713 186 L713 63 Q591 -20 451 -20 Q282 -20 183 88 Q84 196 84 389 Q82 546 145 684 Q208 822 321 905.5 Q434 989 569 989 Q706 989 825 907 Z" /><glyph glyph-name="Cdotaccent" unicode="&#x10a;" d="M1196 1313 L1161 1167 Q1009 1313 829 1313 Q709 1313 604.5 1253.5 Q500 1194 428 1094 Q356 994 315 861.5 Q274 729 274 586 Q274 356 382 228 Q490 100 666 100 Q852 100 1032 223 L1032 84 Q854 -25 655 -25 Q420 -25 276.5 134 Q133 293 133 575 Q133 803 222 1000 Q311 1197 473.5 1317.5 Q636 1438 834 1438 Q1045 1438 1196 1313 ZM958 1575 L786 1575 L815 1759 L987 1759 L958 1575 Z" /><glyph glyph-name="cdotaccent" unicode="&#x10b;" d="M825 907 L791 780 Q673 874 565 874 Q470 874 389 807 Q308 740 262.5 631 Q217 522 217 401 Q217 252 282.5 173 Q348 94 465 94 Q579 94 713 186 L713 63 Q591 -20 451 -20 Q282 -20 183 88 Q84 196 84 389 Q82 546 145 684 Q208 822 321 905.5 Q434 989 569 989 Q706 989 825 907 ZM678 1141 L506 1141 L535 1325 L707 1325 L678 1141 Z" /><glyph glyph-name="Ccaron" unicode="&#x10c;" d="M643 1858 L721 1858 L885 1683 L1100 1858 L1192 1858 L930 1561 L805 1561 L643 1858 ZM1196 1313 L1161 1167 Q1009 1313 829 1313 Q709 1313 604.5 1253.5 Q500 1194 428 1094 Q356 994 315 861.5 Q274 729 274 586 Q274 356 382 228 Q490 100 666 100 Q852 100 1032 223 L1032 84 Q854 -25 655 -25 Q420 -25 276.5 134 Q133 293 133 575 Q133 803 222 1000 Q311 1197 473.5 1317.5 Q636 1438 834 1438 Q1045 1438 1196 1313 Z" /><glyph glyph-name="ccaron" unicode="&#x10d;" d="M365 1423 L442 1423 L606 1249 L821 1423 L913 1423 L651 1126 L526 1126 L365 1423 ZM825 907 L791 780 Q673 874 565 874 Q470 874 389 807 Q308 740 262.5 631 Q217 522 217 401 Q217 252 282.5 173 Q348 94 465 94 Q579 94 713 186 L713 63 Q591 -20 451 -20 Q282 -20 183 88 Q84 196 84 389 Q82 546 145 684 Q208 822 321 905.5 Q434 989 569 989 Q706 989 825 907 Z" /><glyph glyph-name="Dcaron" unicode="&#x10e;" d="M555 1837 L633 1837 L797 1663 L1012 1837 L1104 1837 L842 1540 L717 1540 L555 1837 ZM1257 831 Q1257 644 1196.5 488 Q1136 332 1022 221 Q801 0 457 0 L100 0 L326 1413 L659 1413 Q946 1413 1101.5 1258.5 Q1257 1104 1257 831 ZM1114 823 Q1114 1047 994.5 1168.5 Q875 1290 643 1290 L444 1290 L258 123 L469 123 Q740 123 915 295 Q1010 389 1062 524 Q1114 659 1114 823 Z" /><glyph glyph-name="dcaron" unicode="&#x10f;" d="M1231 1475 Q1251 1422 1251 1370 Q1251 1219 1079 1083 L1014 1100 Q1120 1220 1120 1327 Q1120 1382 1096 1450 L1231 1475 ZM1001 1470 L813 281 L813 0 L696 0 L688 176 Q598 78 521.5 29 Q445 -20 358 -20 Q231 -20 155.5 74 Q80 168 80 338 Q80 478 122 599.5 Q164 721 235.5 804 Q307 887 403.5 934 Q500 981 608 981 Q707 981 791 950 L866 1446 L1001 1470 ZM772 836 Q694 870 602 870 Q524 870 453.5 833.5 Q383 797 329 732 Q275 667 243 567.5 Q211 468 211 350 Q211 230 256.5 162 Q302 94 383 94 Q448 94 518 143.5 Q588 193 688 303 L772 836 Z" /><glyph glyph-name="Dcroat" unicode="&#x110;" d="M1282 831 Q1282 645 1220.5 489 Q1159 333 1047 221 Q940 114 794.5 57 Q649 0 479 0 L125 0 L233 678 L70 678 L70 801 L252 801 L350 1413 L684 1413 Q970 1413 1126 1258.5 Q1282 1104 1282 831 ZM713 678 L371 678 L283 123 L494 123 Q765 123 940 295 Q1034 389 1086.5 524.5 Q1139 660 1139 823 Q1139 1047 1019.5 1168.5 Q900 1290 668 1290 L469 1290 L391 801 L731 801 L713 678 Z" /><glyph glyph-name="dcroat" unicode="&#x111;" d="M1001 1470 L973 1294 L1130 1294 L1112 1186 L956 1186 L813 281 L813 0 L696 0 L688 176 Q598 78 521.5 29 Q445 -20 358 -20 Q231 -20 155.5 74 Q80 168 80 338 Q80 478 122 599.5 Q164 721 235.5 804 Q307 887 403.5 934 Q500 981 608 981 Q707 981 791 950 L825 1186 L582 1186 L582 1294 L842 1294 L866 1446 L1001 1470 ZM772 836 Q694 870 602 870 Q524 870 453.5 833.5 Q383 797 329 732 Q275 667 243 567.5 Q211 468 211 350 Q211 230 256.5 162 Q302 94 383 94 Q448 94 518 143.5 Q588 193 688 303 L772 836 Z" /><glyph glyph-name="Emacron" unicode="&#x112;" d="M1016 1413 L995 1288 L444 1288 L367 803 L797 803 L797 676 L346 676 L258 125 L829 125 L811 0 L100 0 L326 1413 L1016 1413 ZM965 1595 L432 1595 L451 1710 L983 1710 L965 1595 Z" /><glyph glyph-name="emacron" unicode="&#x113;" d="M453 92 Q528 92 599.5 122.5 Q671 153 760 217 L760 90 Q601 -20 438 -20 Q268 -20 175 88 Q82 196 82 383 Q82 514 119.5 628.5 Q157 743 219.5 821 Q282 899 365 944 Q448 989 537 989 Q681 989 759.5 894 Q838 799 838 629 Q838 569 823 481 L219 481 Q215 423 215 391 Q215 250 278 171 Q341 92 453 92 ZM528 885 Q433 885 354 802 Q275 719 238 582 L705 582 Q717 727 672.5 806 Q628 885 528 885 ZM846 1182 L313 1182 L332 1296 L864 1296 L846 1182 Z" /><glyph glyph-name="Ebreve" unicode="&#x114;" d="M1016 1413 L995 1288 L444 1288 L367 803 L797 803 L797 676 L346 676 L258 125 L829 125 L811 0 L100 0 L326 1413 L1016 1413 ZM987 1778 Q960 1673 883.5 1609.5 Q807 1546 692 1546 Q575 1546 516 1610.5 Q457 1675 459 1778 L559 1794 Q567 1732 604.5 1698.5 Q642 1665 705 1665 Q834 1665 895 1794 L987 1778 Z" /><glyph glyph-name="ebreve" unicode="&#x115;" d="M453 92 Q528 92 599.5 122.5 Q671 153 760 217 L760 90 Q601 -20 438 -20 Q268 -20 175 88 Q82 196 82 383 Q82 514 119.5 628.5 Q157 743 219.5 821 Q282 899 365 944 Q448 989 537 989 Q681 989 759.5 894 Q838 799 838 629 Q838 569 823 481 L219 481 Q215 423 215 391 Q215 250 278 171 Q341 92 453 92 ZM528 885 Q433 885 354 802 Q275 719 238 582 L705 582 Q717 727 672.5 806 Q628 885 528 885 ZM872 1364 Q845 1259 769 1196 Q693 1133 578 1133 Q460 1133 401 1197 Q342 1261 344 1364 L444 1380 Q452 1318 489.5 1284.5 Q527 1251 590 1251 Q719 1251 780 1380 L872 1364 Z" /><glyph glyph-name="Edotaccent" unicode="&#x116;" d="M1016 1413 L995 1288 L444 1288 L367 803 L797 803 L797 676 L346 676 L258 125 L829 125 L811 0 L100 0 L326 1413 L1016 1413 ZM776 1554 L604 1554 L633 1739 L805 1739 L776 1554 Z" /><glyph glyph-name="edotaccent" unicode="&#x117;" d="M453 92 Q528 92 599.5 122.5 Q671 153 760 217 L760 90 Q601 -20 438 -20 Q268 -20 175 88 Q82 196 82 383 Q82 514 119.5 628.5 Q157 743 219.5 821 Q282 899 365 944 Q448 989 537 989 Q681 989 759.5 894 Q838 799 838 629 Q838 569 823 481 L219 481 Q215 423 215 391 Q215 250 278 171 Q341 92 453 92 ZM528 885 Q433 885 354 802 Q275 719 238 582 L705 582 Q717 727 672.5 806 Q628 885 528 885 ZM659 1141 L487 1141 L516 1325 L688 1325 L659 1141 Z" /><glyph glyph-name="Eogonek" unicode="&#x118;" d="M1016 1413 L995 1288 L444 1288 L367 803 L797 803 L797 676 L346 676 L258 125 L829 125 L811 0 L764 0 L715 -59 Q664 -119 645.5 -151 Q627 -183 627 -213 Q627 -268 698 -268 Q730 -268 778 -258 L764 -344 Q706 -365 645 -365 Q579 -365 544.5 -336.5 Q510 -308 510 -254 Q510 -200 540 -149.5 Q570 -99 645 -20 L664 0 L100 0 L326 1413 L1016 1413 Z" /><glyph glyph-name="eogonek" unicode="&#x119;" d="M457 92 Q536 92 606 121.5 Q676 151 766 217 L766 104 L629 -59 Q578 -119 559.5 -151 Q541 -183 541 -213 Q541 -268 610 -268 Q640 -268 692 -258 L678 -344 Q616 -365 557 -365 Q491 -365 456.5 -336.5 Q422 -308 422 -254 Q422 -201 450.5 -153.5 Q479 -106 549 -31 L575 -2 Q510 -20 440 -20 Q271 -20 176.5 85.5 Q82 191 82 379 Q82 514 120.5 630.5 Q159 747 222 824.5 Q285 902 366 945.5 Q447 989 532 989 Q678 989 758 895 Q838 801 838 629 Q838 569 823 481 L219 481 Q215 419 215 387 Q215 247 278.5 169.5 Q342 92 457 92 ZM528 885 Q433 885 353.5 803 Q274 721 238 582 L705 582 Q717 726 672.5 805.5 Q628 885 528 885 Z" /><glyph glyph-name="Ecaron" unicode="&#x11a;" d="M461 1837 L539 1837 L702 1663 L918 1837 L1010 1837 L748 1540 L623 1540 L461 1837 ZM1016 1413 L995 1288 L444 1288 L367 803 L797 803 L797 676 L346 676 L258 125 L829 125 L811 0 L100 0 L326 1413 L1016 1413 Z" /><glyph glyph-name="ecaron" unicode="&#x11b;" d="M453 92 Q528 92 599.5 122.5 Q671 153 760 217 L760 90 Q601 -20 438 -20 Q268 -20 175 88 Q82 196 82 383 Q82 514 119.5 628.5 Q157 743 219.5 821 Q282 899 365 944 Q448 989 537 989 Q681 989 759.5 894 Q838 799 838 629 Q838 569 823 481 L219 481 Q215 423 215 391 Q215 250 278 171 Q341 92 453 92 ZM528 885 Q433 885 354 802 Q275 719 238 582 L705 582 Q717 727 672.5 806 Q628 885 528 885 ZM344 1423 L422 1423 L586 1249 L801 1423 L893 1423 L631 1126 L506 1126 L344 1423 Z" /><glyph glyph-name="Gbreve" unicode="&#x11e;" d="M1206 741 L1104 100 Q897 -25 680 -25 Q434 -25 282.5 139 Q131 303 131 573 Q131 710 165.5 839.5 Q200 969 265 1077 Q330 1185 417 1266 Q504 1347 615.5 1392.5 Q727 1438 848 1438 Q1076 1438 1231 1317 L1194 1174 Q1042 1313 846 1313 Q726 1313 619 1254 Q512 1195 436.5 1096 Q361 997 317.5 862.5 Q274 728 274 582 Q274 356 390 227 Q506 98 686 98 Q854 98 981 174 L1051 616 L719 616 L719 741 L1206 741 ZM1167 1798 Q1140 1693 1063.5 1630 Q987 1567 872 1567 Q755 1567 696 1631 Q637 1695 639 1798 L739 1815 Q747 1753 784.5 1719.5 Q822 1686 885 1686 Q1014 1686 1075 1815 L1167 1798 Z" /><glyph glyph-name="gbreve" unicode="&#x11f;" d="M913 913 L774 37 Q710 -369 346 -369 Q189 -369 23 -295 L55 -178 Q213 -254 356 -254 Q598 -254 643 25 L668 176 Q589 90 516.5 45 Q444 0 360 0 Q233 0 157.5 91 Q82 182 82 340 Q82 525 153.5 673 Q225 821 346 902 Q467 983 614 983 Q744 983 913 913 ZM772 834 Q687 870 598 870 Q440 870 327.5 728 Q215 586 215 354 Q215 239 260 177 Q305 115 385 115 Q451 115 522 165.5 Q593 216 690 324 L772 834 ZM942 1364 Q915 1259 838.5 1196 Q762 1133 647 1133 Q530 1133 471 1197 Q412 1261 414 1364 L514 1380 Q522 1318 559 1284.5 Q596 1251 659 1251 Q789 1251 850 1380 L942 1364 Z" /><glyph glyph-name="Gdotaccent" unicode="&#x120;" d="M1206 741 L1104 100 Q897 -25 680 -25 Q434 -25 282.5 139 Q131 303 131 573 Q131 710 165.5 839.5 Q200 969 265 1077 Q330 1185 417 1266 Q504 1347 615.5 1392.5 Q727 1438 848 1438 Q1076 1438 1231 1317 L1194 1174 Q1042 1313 846 1313 Q726 1313 619 1254 Q512 1195 436.5 1096 Q361 997 317.5 862.5 Q274 728 274 582 Q274 356 390 227 Q506 98 686 98 Q854 98 981 174 L1051 616 L719 616 L719 741 L1206 741 ZM956 1575 L784 1575 L813 1759 L985 1759 L956 1575 Z" /><glyph glyph-name="gdotaccent" unicode="&#x121;" d="M913 913 L774 37 Q710 -369 346 -369 Q189 -369 23 -295 L55 -178 Q213 -254 356 -254 Q598 -254 643 25 L668 176 Q589 90 516.5 45 Q444 0 360 0 Q233 0 157.5 91 Q82 182 82 340 Q82 525 153.5 673 Q225 821 346 902 Q467 983 614 983 Q744 983 913 913 ZM772 834 Q687 870 598 870 Q440 870 327.5 728 Q215 586 215 354 Q215 239 260 177 Q305 115 385 115 Q451 115 522 165.5 Q593 216 690 324 L772 834 ZM731 1141 L559 1141 L588 1325 L760 1325 L731 1141 Z" /><glyph glyph-name="Gcommaaccent" unicode="&#x122;" d="M485 -184 L610 -137 Q678 -202 678 -276 Q678 -342 631.5 -408 Q585 -474 489 -549 L406 -532 Q551 -393 551 -307 Q551 -250 485 -184 ZM1206 741 L1104 100 Q897 -25 680 -25 Q434 -25 282.5 139 Q131 303 131 573 Q131 710 165.5 839.5 Q200 969 265 1077 Q330 1185 417 1266 Q504 1347 615.5 1392.5 Q727 1438 848 1438 Q1076 1438 1231 1317 L1194 1174 Q1042 1313 846 1313 Q726 1313 619 1254 Q512 1195 436.5 1096 Q361 997 317.5 862.5 Q274 728 274 582 Q274 356 390 227 Q506 98 686 98 Q854 98 981 174 L1051 616 L719 616 L719 741 L1206 741 Z" /><glyph glyph-name="gcommaaccent" unicode="&#x123;" d="M748 1174 L623 1126 Q555 1191 555 1266 Q555 1332 601 1397.5 Q647 1463 743 1538 L827 1522 Q682 1383 682 1296 Q682 1240 748 1174 ZM913 913 L774 37 Q710 -369 346 -369 Q189 -369 23 -295 L55 -178 Q213 -254 356 -254 Q598 -254 643 25 L668 176 Q589 90 516.5 45 Q444 0 360 0 Q233 0 157.5 91 Q82 182 82 340 Q82 525 153.5 673 Q225 821 346 902 Q467 983 614 983 Q744 983 913 913 ZM772 834 Q687 870 598 870 Q440 870 327.5 728 Q215 586 215 354 Q215 239 260 177 Q305 115 385 115 Q451 115 522 165.5 Q593 216 690 324 L772 834 Z" /><glyph glyph-name="Hbar" unicode="&#x126;" d="M1454 1075 L1278 1075 L1108 0 L971 0 L1077 672 L360 672 L254 0 L117 0 L287 1075 L121 1075 L121 1194 L305 1194 L340 1413 L477 1413 L442 1194 L1159 1194 L1194 1413 L1333 1413 L1298 1194 L1473 1194 L1454 1075 ZM381 797 L1098 797 L1141 1077 L424 1077 L381 797 Z" /><glyph glyph-name="hbar" unicode="&#x127;" d="M903 774 Q903 726 893 668 L786 0 L655 0 L762 670 Q770 728 770 758 Q770 810 741.5 840 Q713 870 657 870 Q593 870 514 811.5 Q435 753 305 614 L211 0 L80 0 L268 1186 L125 1186 L125 1294 L285 1294 L309 1446 L442 1470 L414 1294 L672 1294 L655 1186 L395 1186 L330 768 Q438 881 519.5 935 Q601 989 686 989 Q788 989 845.5 933 Q903 877 903 774 Z" /><glyph glyph-name="Imacron" unicode="&#x12a;" d="M477 1413 L252 0 L115 0 L340 1413 L477 1413 ZM705 1595 L172 1595 L190 1710 L723 1710 L705 1595 Z" /><glyph glyph-name="imacron" unicode="&#x12b;" d="M371 969 L215 0 L84 0 L240 969 L371 969 ZM604 1182 L72 1182 L90 1296 L623 1296 L604 1182 Z" /><glyph glyph-name="Ibreve" unicode="&#x12c;" d="M477 1413 L252 0 L115 0 L340 1413 L477 1413 ZM727 1778 Q700 1673 623.5 1609.5 Q547 1546 432 1546 Q315 1546 256 1610.5 Q197 1675 199 1778 L299 1794 Q307 1732 344 1698.5 Q381 1665 444 1665 Q574 1665 635 1794 L727 1778 Z" /><glyph glyph-name="ibreve" unicode="&#x12d;" d="M371 969 L215 0 L84 0 L240 969 L371 969 ZM629 1364 Q602 1259 525.5 1196 Q449 1133 334 1133 Q216 1133 157 1197 Q98 1261 100 1364 L201 1380 Q209 1318 246 1284.5 Q283 1251 346 1251 Q476 1251 537 1380 L629 1364 Z" /><glyph glyph-name="Iogonek" unicode="&#x12e;" d="M477 1413 L252 0 L236 0 L186 -59 Q135 -119 116.5 -151 Q98 -183 98 -213 Q98 -268 170 -268 Q202 -268 250 -258 L236 -344 Q178 -365 117 -365 Q51 -365 16.5 -336.5 Q-18 -308 -18 -254 Q-18 -200 12 -149.5 Q42 -99 117 -20 L135 0 L115 0 L340 1413 L477 1413 Z" /><glyph glyph-name="iogonek" unicode="&#x12f;" d="M371 969 L215 0 L201 0 L152 -59 Q101 -120 82 -151.5 Q63 -183 63 -213 Q63 -268 135 -268 Q167 -268 215 -258 L201 -344 Q143 -365 82 -365 Q16 -365 -18.5 -336.5 Q-53 -308 -53 -254 Q-53 -200 -23 -149.5 Q7 -99 82 -20 L100 0 L84 0 L240 969 L371 969 ZM455 1298 Q455 1259 425.5 1230.5 Q396 1202 356 1202 Q317 1202 288.5 1230.5 Q260 1259 260 1298 Q260 1339 288.5 1368 Q317 1397 356 1397 Q396 1397 425.5 1368 Q455 1339 455 1298 Z" /><glyph glyph-name="Idotaccent" unicode="&#x130;" d="M477 1413 L252 0 L115 0 L340 1413 L477 1413 ZM516 1554 L344 1554 L373 1739 L545 1739 L516 1554 Z" /><glyph glyph-name="dotlessi" unicode="&#x131;" d="M371 969 L215 0 L84 0 L240 969 L371 969 Z" /><glyph glyph-name="Kcommaaccent" unicode="&#x136;" d="M399 -176 L524 -129 Q592 -194 592 -268 Q592 -334 545.5 -400 Q499 -466 403 -541 L319 -524 Q465 -384 465 -299 Q465 -242 399 -176 ZM1237 1413 L502 750 L1055 18 L909 -14 L354 729 L240 0 L100 0 L326 1413 L463 1413 L360 772 L1057 1413 L1237 1413 Z" /><glyph glyph-name="kcommaaccent" unicode="&#x137;" d="M260 -180 L385 -133 Q453 -198 453 -272 Q453 -338 406.5 -404 Q360 -470 264 -545 L180 -528 Q326 -388 326 -303 Q326 -246 260 -180 ZM207 0 L76 0 L305 1446 L438 1470 L293 553 L735 969 L909 969 L424 528 L793 12 L651 -14 L285 514 L207 0 Z" /><glyph glyph-name="Lacute" unicode="&#x139;" d="M801 1798 L479 1524 L373 1524 L618 1837 L801 1798 ZM764 0 L100 0 L326 1413 L463 1413 L258 127 L764 127 L764 0 Z" /><glyph glyph-name="lacute" unicode="&#x13a;" d="M768 1825 L446 1550 L340 1550 L586 1864 L768 1825 ZM449 1470 L215 0 L84 0 L313 1446 L449 1470 Z" /><glyph glyph-name="Lcommaaccent" unicode="&#x13b;" d="M291 -180 L416 -133 Q483 -197 483 -272 Q483 -398 295 -545 L211 -528 Q356 -389 356 -303 Q356 -245 291 -180 ZM764 0 L100 0 L326 1413 L463 1413 L258 127 L764 127 L764 0 Z" /><glyph glyph-name="lcommaaccent" unicode="&#x13c;" d="M16 -180 L141 -133 Q209 -198 209 -272 Q209 -338 162.5 -404 Q116 -470 20 -545 L-63 -528 Q82 -389 82 -303 Q82 -246 16 -180 ZM449 1470 L215 0 L84 0 L313 1446 L449 1470 Z" /><glyph glyph-name="Lcaron" unicode="&#x13d;" d="M750 1423 Q770 1370 770 1319 Q770 1168 598 1032 L532 1049 Q639 1170 639 1276 Q639 1329 614 1399 L750 1423 ZM764 0 L100 0 L326 1413 L463 1413 L258 127 L764 127 L764 0 Z" /><glyph glyph-name="lcaron" unicode="&#x13e;" d="M682 1481 Q702 1428 702 1376 Q702 1226 530 1090 L465 1106 Q571 1226 571 1333 Q571 1388 547 1456 L682 1481 ZM449 1470 L215 0 L84 0 L313 1446 L449 1470 Z" /><glyph glyph-name="Ldot" unicode="&#x13f;" d="M786 623 L618 623 L649 803 L815 803 L786 623 ZM764 0 L100 0 L326 1413 L463 1413 L258 127 L764 127 L764 0 Z" /><glyph glyph-name="ldot" unicode="&#x140;" d="M596 637 L459 637 L487 817 L625 817 L596 637 ZM449 1470 L215 0 L84 0 L313 1446 L449 1470 Z" /><glyph glyph-name="Lslash" unicode="&#x141;" d="M786 0 L125 0 L215 565 L51 481 L51 610 L238 705 L350 1413 L487 1413 L385 780 L727 956 L702 815 L362 641 L281 125 L786 125 L786 0 Z" /><glyph glyph-name="lslash" unicode="&#x142;" d="M500 1470 L395 819 L586 920 L565 780 L375 684 L266 0 L135 0 L231 610 L53 520 L53 647 L254 748 L365 1446 L500 1470 Z" /><glyph glyph-name="Nacute" unicode="&#x143;" d="M1210 1804 L889 1530 L782 1530 L1028 1843 L1210 1804 ZM1317 1413 L1092 0 L1008 0 L418 1200 L229 0 L100 0 L326 1413 L457 1413 L1012 281 L1190 1413 L1317 1413 Z" /><glyph glyph-name="nacute" unicode="&#x144;" d="M958 1401 L637 1126 L530 1126 L776 1440 L958 1401 ZM901 774 Q901 738 893 668 L784 0 L653 0 L762 670 Q770 728 770 758 Q770 810 740.5 840 Q711 870 655 870 Q591 870 512 811.5 Q433 753 303 614 L209 0 L78 0 L188 688 L188 969 L303 969 L313 754 Q426 874 510.5 931.5 Q595 989 684 989 Q787 989 844 933.5 Q901 878 901 774 Z" /><glyph glyph-name="Ncommaaccent" unicode="&#x145;" d="M469 -176 L594 -129 Q662 -194 662 -268 Q662 -334 615.5 -400 Q569 -466 473 -541 L389 -524 Q535 -384 535 -299 Q535 -242 469 -176 ZM1317 1413 L1092 0 L1008 0 L418 1200 L229 0 L100 0 L326 1413 L457 1413 L1012 281 L1190 1413 L1317 1413 Z" /><glyph glyph-name="ncommaaccent" unicode="&#x146;" d="M285 -180 L410 -133 Q477 -197 477 -272 Q477 -398 289 -545 L205 -528 Q350 -389 350 -303 Q350 -245 285 -180 ZM901 774 Q901 738 893 668 L784 0 L653 0 L762 670 Q770 728 770 758 Q770 810 740.5 840 Q711 870 655 870 Q591 870 512 811.5 Q433 753 303 614 L209 0 L78 0 L188 688 L188 969 L303 969 L313 754 Q426 874 510.5 931.5 Q595 989 684 989 Q787 989 844 933.5 Q901 878 901 774 Z" /><glyph glyph-name="Ncaron" unicode="&#x147;" d="M618 1827 L696 1827 L860 1653 L1075 1827 L1167 1827 L905 1530 L780 1530 L618 1827 ZM1317 1413 L1092 0 L1008 0 L418 1200 L229 0 L100 0 L326 1413 L457 1413 L1012 281 L1190 1413 L1317 1413 Z" /><glyph glyph-name="ncaron" unicode="&#x148;" d="M369 1423 L446 1423 L610 1249 L825 1423 L918 1423 L655 1126 L530 1126 L369 1423 ZM901 774 Q901 738 893 668 L784 0 L653 0 L762 670 Q770 728 770 758 Q770 810 740.5 840 Q711 870 655 870 Q591 870 512 811.5 Q433 753 303 614 L209 0 L78 0 L188 688 L188 969 L303 969 L313 754 Q426 874 510.5 931.5 Q595 989 684 989 Q787 989 844 933.5 Q901 878 901 774 Z" /><glyph glyph-name="Omacron" unicode="&#x14c;" d="M1165 1616 L633 1616 L651 1731 L1184 1731 L1165 1616 ZM668 -27 Q502 -27 380 55 Q258 137 196.5 276.5 Q135 416 135 594 Q135 792 203 964.5 Q271 1137 391 1257 Q577 1440 825 1440 Q990 1440 1112 1358 Q1234 1276 1296 1136.5 Q1358 997 1358 819 Q1358 622 1289.5 449.5 Q1221 277 1100 156 Q917 -27 668 -27 ZM672 94 Q852 94 999 238 Q1100 340 1157 490.5 Q1214 641 1214 817 Q1214 1046 1109 1182.5 Q1004 1319 819 1319 Q637 1319 494 1176 Q393 1073 334.5 922.5 Q276 772 276 596 Q276 367 381.5 230.5 Q487 94 672 94 Z" /><glyph glyph-name="omacron" unicode="&#x14d;" d="M864 1182 L332 1182 L350 1296 L883 1296 L864 1182 ZM895 578 Q895 419 835.5 282.5 Q776 146 667 63 Q558 -20 424 -20 Q265 -20 174.5 91 Q84 202 84 391 Q84 550 143 686.5 Q202 823 310.5 906 Q419 989 553 989 Q712 989 803.5 878 Q895 767 895 578 ZM764 571 Q764 722 704.5 801.5 Q645 881 545 881 Q453 881 376 811.5 Q299 742 257 631.5 Q215 521 215 399 Q215 246 274 167 Q333 88 434 88 Q527 88 604 157.5 Q681 227 722.5 337.5 Q764 448 764 571 Z" /><glyph glyph-name="Obreve" unicode="&#x14e;" d="M668 -27 Q502 -27 380 55 Q258 137 196.5 276.5 Q135 416 135 594 Q135 792 203 964.5 Q271 1137 391 1257 Q577 1440 825 1440 Q990 1440 1112 1358 Q1234 1276 1296 1136.5 Q1358 997 1358 819 Q1358 622 1289.5 449.5 Q1221 277 1100 156 Q917 -27 668 -27 ZM672 94 Q852 94 999 238 Q1100 340 1157 490.5 Q1214 641 1214 817 Q1214 1046 1109 1182.5 Q1004 1319 819 1319 Q637 1319 494 1176 Q393 1073 334.5 922.5 Q276 772 276 596 Q276 367 381.5 230.5 Q487 94 672 94 ZM1188 1798 Q1161 1693 1084.5 1630 Q1008 1567 893 1567 Q775 1567 716 1631 Q657 1695 659 1798 L760 1815 Q768 1753 805 1719.5 Q842 1686 905 1686 Q1035 1686 1096 1815 L1188 1798 Z" /><glyph glyph-name="obreve" unicode="&#x14f;" d="M895 578 Q895 419 835.5 282.5 Q776 146 667 63 Q558 -20 424 -20 Q265 -20 174.5 91 Q84 202 84 391 Q84 550 143 686.5 Q202 823 310.5 906 Q419 989 553 989 Q712 989 803.5 878 Q895 767 895 578 ZM764 571 Q764 722 704.5 801.5 Q645 881 545 881 Q453 881 376 811.5 Q299 742 257 631.5 Q215 521 215 399 Q215 246 274 167 Q333 88 434 88 Q527 88 604 157.5 Q681 227 722.5 337.5 Q764 448 764 571 ZM887 1364 Q860 1259 783.5 1196 Q707 1133 592 1133 Q474 1133 415 1197 Q356 1261 358 1364 L459 1380 Q467 1318 504 1284.5 Q541 1251 604 1251 Q734 1251 795 1380 L887 1364 Z" /><glyph glyph-name="Ohungarumlaut" unicode="&#x150;" d="M1393 1841 L1075 1569 L985 1569 L1231 1880 L1393 1841 ZM1069 1841 L750 1569 L659 1569 L905 1880 L1069 1841 ZM668 -27 Q502 -27 380 55 Q258 137 196.5 276.5 Q135 416 135 594 Q135 792 203 964.5 Q271 1137 391 1257 Q577 1440 825 1440 Q990 1440 1112 1358 Q1234 1276 1296 1136.5 Q1358 997 1358 819 Q1358 622 1289.5 449.5 Q1221 277 1100 156 Q917 -27 668 -27 ZM672 94 Q852 94 999 238 Q1100 340 1157 490.5 Q1214 641 1214 817 Q1214 1046 1109 1182.5 Q1004 1319 819 1319 Q637 1319 494 1176 Q393 1073 334.5 922.5 Q276 772 276 596 Q276 367 381.5 230.5 Q487 94 672 94 Z" /><glyph glyph-name="ohungarumlaut" unicode="&#x151;" d="M1092 1407 L774 1135 L684 1135 L930 1446 L1092 1407 ZM768 1407 L449 1135 L358 1135 L604 1446 L768 1407 ZM895 578 Q895 419 835.5 282.5 Q776 146 667 63 Q558 -20 424 -20 Q265 -20 174.5 91 Q84 202 84 391 Q84 550 143 686.5 Q202 823 310.5 906 Q419 989 553 989 Q712 989 803.5 878 Q895 767 895 578 ZM764 571 Q764 722 704.5 801.5 Q645 881 545 881 Q453 881 376 811.5 Q299 742 257 631.5 Q215 521 215 399 Q215 246 274 167 Q333 88 434 88 Q527 88 604 157.5 Q681 227 722.5 337.5 Q764 448 764 571 Z" /><glyph glyph-name="OE" unicode="&#x152;" d="M283 590 Q283 366 402.5 243.5 Q522 121 752 121 L891 121 L1077 1292 L926 1292 Q655 1292 481 1118 Q386 1025 334.5 889.5 Q283 754 283 590 ZM940 1413 L1784 1413 L1763 1288 L1212 1288 L1135 801 L1565 801 L1565 676 L1114 676 L1026 125 L1597 125 L1579 0 L735 0 Q449 0 293 154.5 Q137 309 137 582 Q137 768 198.5 923.5 Q260 1079 373 1192 Q480 1299 625 1356 Q770 1413 940 1413 Z" /><glyph glyph-name="oe" unicode="&#x153;" d="M1505 629 Q1505 563 1491 481 L887 481 Q883 427 883 395 Q883 252 946.5 172 Q1010 92 1122 92 Q1195 92 1267 122.5 Q1339 153 1427 217 L1427 90 Q1265 -20 1106 -20 Q984 -20 903 38 Q822 96 786 205 Q725 100 633.5 40 Q542 -20 430 -20 Q268 -20 176 89 Q84 198 84 391 Q84 548 142 684.5 Q200 821 307.5 905 Q415 989 547 989 Q662 989 741.5 931 Q821 873 856 764 Q917 871 1008 930 Q1099 989 1202 989 Q1346 989 1425.5 894 Q1505 799 1505 629 ZM764 571 Q764 725 701 803 Q638 881 541 881 Q448 881 372 809.5 Q296 738 255.5 628 Q215 518 215 399 Q215 244 277 166 Q339 88 438 88 Q531 88 607 159.5 Q683 231 723.5 341 Q764 451 764 571 ZM1194 885 Q1102 885 1021.5 803 Q941 721 905 582 L1372 582 Q1384 727 1339.5 806 Q1295 885 1194 885 Z" /><glyph glyph-name="Racute" unicode="&#x154;" d="M1032 1815 L711 1540 L604 1540 L850 1853 L1032 1815 ZM1032 1063 Q1032 890 927.5 777.5 Q823 665 651 633 L995 18 L854 -14 L502 618 L336 618 L238 0 L100 0 L326 1413 L598 1413 Q806 1413 919 1323.5 Q1032 1234 1032 1063 ZM893 1051 Q893 1290 596 1290 L442 1290 L354 737 L524 737 Q697 737 795 824 Q893 911 893 1051 Z" /><glyph glyph-name="racute" unicode="&#x155;" d="M778 1401 L457 1126 L350 1126 L596 1440 L778 1401 ZM672 854 Q558 843 468.5 773 Q379 703 299 578 L209 0 L78 0 L188 688 L188 969 L303 969 L313 729 Q481 984 672 987 L672 854 Z" /><glyph glyph-name="Rcommaaccent" unicode="&#x156;" d="M371 -176 L496 -129 Q563 -193 563 -268 Q563 -394 375 -541 L291 -524 Q436 -385 436 -299 Q436 -241 371 -176 ZM1032 1063 Q1032 890 927.5 777.5 Q823 665 651 633 L995 18 L854 -14 L502 618 L336 618 L238 0 L100 0 L326 1413 L598 1413 Q806 1413 919 1323.5 Q1032 1234 1032 1063 ZM893 1051 Q893 1290 596 1290 L442 1290 L354 737 L524 737 Q697 737 795 824 Q893 911 893 1051 Z" /><glyph glyph-name="rcommaaccent" unicode="&#x157;" d="M33 -180 L158 -133 Q225 -197 225 -272 Q225 -398 37 -545 L-47 -528 Q98 -389 98 -303 Q98 -245 33 -180 ZM672 854 Q558 843 468.5 773 Q379 703 299 578 L209 0 L78 0 L188 688 L188 969 L303 969 L313 729 Q481 984 672 987 L672 854 Z" /><glyph glyph-name="Rcaron" unicode="&#x158;" d="M442 1837 L520 1837 L684 1663 L899 1837 L991 1837 L729 1540 L604 1540 L442 1837 ZM1032 1063 Q1032 890 927.5 777.5 Q823 665 651 633 L995 18 L854 -14 L502 618 L336 618 L238 0 L100 0 L326 1413 L598 1413 Q806 1413 919 1323.5 Q1032 1234 1032 1063 ZM893 1051 Q893 1290 596 1290 L442 1290 L354 737 L524 737 Q697 737 795 824 Q893 911 893 1051 Z" /><glyph glyph-name="rcaron" unicode="&#x159;" d="M190 1423 L268 1423 L432 1249 L647 1423 L739 1423 L477 1126 L352 1126 L190 1423 ZM672 854 Q558 843 468.5 773 Q379 703 299 578 L209 0 L78 0 L188 688 L188 969 L303 969 L313 729 Q481 984 672 987 L672 854 Z" /><glyph glyph-name="Sacute" unicode="&#x15a;" d="M1042 1835 L721 1561 L614 1561 L860 1874 L1042 1835 ZM965 1343 L932 1208 Q779 1313 627 1313 Q501 1313 428.5 1241 Q356 1169 356 1065 Q356 988 408 928.5 Q460 869 590 793 Q760 692 826.5 603 Q893 514 893 391 Q893 205 762.5 93.5 Q632 -18 440 -18 Q331 -18 226.5 14 Q122 46 51 94 L84 229 Q163 170 258 135 Q353 100 449 100 Q580 100 666 176 Q752 252 752 373 Q752 463 705.5 522.5 Q659 582 530 659 Q356 763 287.5 845 Q219 927 219 1049 Q219 1214 335.5 1323 Q452 1432 639 1432 Q821 1432 965 1343 Z" /><glyph glyph-name="sacute" unicode="&#x15b;" d="M852 1401 L530 1126 L424 1126 L670 1440 L852 1401 ZM719 913 L684 788 Q551 877 440 877 Q359 877 310.5 835.5 Q262 794 262 733 Q262 682 297 646.5 Q332 611 428 563 Q569 493 623.5 432.5 Q678 372 678 272 Q678 138 587.5 59 Q497 -20 348 -20 Q167 -20 16 86 L53 209 Q200 92 358 92 Q440 92 495.5 139 Q551 186 551 258 Q551 317 514 353 Q477 389 369 444 Q243 508 190 566.5 Q137 625 137 717 Q137 840 223 914.5 Q309 989 449 989 Q587 989 719 913 Z" /><glyph glyph-name="Scedilla" unicode="&#x15e;" d="M965 1343 L932 1208 Q779 1313 627 1313 Q501 1313 428.5 1241 Q356 1169 356 1065 Q356 988 408 928.5 Q460 869 590 793 Q760 692 826.5 603 Q893 514 893 391 Q893 205 762.5 93.5 Q632 -18 440 -18 Q331 -18 226.5 14 Q122 46 51 94 L84 229 Q163 170 258 135 Q353 100 449 100 Q580 100 666 176 Q752 252 752 373 Q752 463 705.5 522.5 Q659 582 530 659 Q356 763 287.5 845 Q219 927 219 1049 Q219 1214 335.5 1323 Q452 1432 639 1432 Q821 1432 965 1343 ZM504 -172 L217 -406 L121 -406 L336 -131 L504 -172 Z" /><glyph glyph-name="scedilla" unicode="&#x15f;" d="M719 913 L684 788 Q551 877 440 877 Q359 877 310.5 835.5 Q262 794 262 733 Q262 682 297 646.5 Q332 611 428 563 Q569 493 623.5 432.5 Q678 372 678 272 Q678 138 587.5 59 Q497 -20 348 -20 Q167 -20 16 86 L53 209 Q200 92 358 92 Q440 92 495.5 139 Q551 186 551 258 Q551 317 514 353 Q477 389 369 444 Q243 508 190 566.5 Q137 625 137 717 Q137 840 223 914.5 Q309 989 449 989 Q587 989 719 913 ZM385 -168 L98 -401 L2 -401 L217 -127 L385 -168 Z" /><glyph glyph-name="Scaron" unicode="&#x160;" d="M455 1858 L532 1858 L696 1683 L911 1858 L1004 1858 L741 1561 L616 1561 L455 1858 ZM965 1343 L932 1208 Q779 1313 627 1313 Q501 1313 428.5 1241 Q356 1169 356 1065 Q356 988 408 928.5 Q460 869 590 793 Q760 692 826.5 603 Q893 514 893 391 Q893 205 762.5 93.5 Q632 -18 440 -18 Q331 -18 226.5 14 Q122 46 51 94 L84 229 Q163 170 258 135 Q353 100 449 100 Q580 100 666 176 Q752 252 752 373 Q752 463 705.5 522.5 Q659 582 530 659 Q356 763 287.5 845 Q219 927 219 1049 Q219 1214 335.5 1323 Q452 1432 639 1432 Q821 1432 965 1343 Z" /><glyph glyph-name="scaron" unicode="&#x161;" d="M264 1423 L342 1423 L506 1249 L721 1423 L813 1423 L551 1126 L426 1126 L264 1423 ZM719 913 L684 788 Q551 877 440 877 Q359 877 310.5 835.5 Q262 794 262 733 Q262 682 297 646.5 Q332 611 428 563 Q569 493 623.5 432.5 Q678 372 678 272 Q678 138 587.5 59 Q497 -20 348 -20 Q167 -20 16 86 L53 209 Q200 92 358 92 Q440 92 495.5 139 Q551 186 551 258 Q551 317 514 353 Q477 389 369 444 Q243 508 190 566.5 Q137 625 137 717 Q137 840 223 914.5 Q309 989 449 989 Q587 989 719 913 Z" /><glyph glyph-name="Tcommaaccent" unicode="&#x162;" d="M346 -180 L471 -133 Q539 -198 539 -272 Q539 -338 492.5 -404 Q446 -470 350 -545 L266 -528 Q412 -388 412 -303 Q412 -246 346 -180 ZM1188 1288 L754 1288 L549 0 L412 0 L616 1288 L188 1288 L209 1413 L1188 1413 L1188 1288 Z" /><glyph glyph-name="tcommaaccent" unicode="&#x163;" d="M174 -180 L299 -133 Q367 -198 367 -272 Q367 -338 320.5 -404 Q274 -470 178 -545 L94 -528 Q240 -388 240 -303 Q240 -246 174 -180 ZM623 858 L383 858 L293 283 Q285 227 285 197 Q285 100 393 100 Q438 100 496 113 L496 0 Q426 -16 367 -16 Q152 -16 152 176 Q152 222 162 285 L252 858 L106 858 L125 969 L270 969 L322 1305 L457 1327 L401 969 L623 969 L623 858 Z" /><glyph glyph-name="Tcaron" unicode="&#x164;" d="M498 1837 L575 1837 L739 1663 L954 1837 L1047 1837 L784 1540 L659 1540 L498 1837 ZM1188 1288 L754 1288 L549 0 L412 0 L616 1288 L188 1288 L209 1413 L1188 1413 L1188 1288 Z" /><glyph glyph-name="tcaron" unicode="&#x165;" d="M737 1491 Q758 1435 758 1386 Q758 1236 586 1100 L520 1116 Q627 1237 627 1343 Q627 1396 602 1466 L737 1491 ZM623 858 L383 858 L293 283 Q285 227 285 197 Q285 100 393 100 Q438 100 496 113 L496 0 Q426 -16 367 -16 Q152 -16 152 176 Q152 222 162 285 L252 858 L106 858 L125 969 L270 969 L322 1305 L457 1327 L401 969 L623 969 L623 858 Z" /><glyph glyph-name="Umacron" unicode="&#x16a;" d="M1335 1413 L1190 489 Q1151 242 1004.5 109.5 Q858 -23 633 -23 Q417 -23 290.5 95 Q164 213 164 430 Q164 508 176 584 L307 1413 L444 1413 L311 565 Q301 497 301 440 Q301 279 389.5 189.5 Q478 100 641 100 Q815 100 919.5 207 Q1024 314 1055 514 L1198 1413 L1335 1413 ZM1114 1585 L582 1585 L600 1700 L1133 1700 L1114 1585 Z" /><glyph glyph-name="umacron" unicode="&#x16b;" d="M100 195 Q100 222 109 301 L217 969 L348 969 L240 299 Q231 234 231 213 Q231 161 260.5 129.5 Q290 98 346 98 Q410 98 488.5 156.5 Q567 215 698 354 L793 969 L924 969 L813 281 L813 0 L698 0 L688 215 Q575 95 490.5 37.5 Q406 -20 317 -20 Q214 -20 157 35.5 Q100 91 100 195 ZM862 1178 L330 1178 L348 1292 L881 1292 L862 1178 Z" /><glyph glyph-name="Ubreve" unicode="&#x16c;" d="M1335 1413 L1190 489 Q1151 242 1004.5 109.5 Q858 -23 633 -23 Q417 -23 290.5 95 Q164 213 164 430 Q164 508 176 584 L307 1413 L444 1413 L311 565 Q301 497 301 440 Q301 279 389.5 189.5 Q478 100 641 100 Q815 100 919.5 207 Q1024 314 1055 514 L1198 1413 L1335 1413 ZM1139 1757 Q1112 1652 1035.5 1589 Q959 1526 844 1526 Q726 1526 667 1590 Q608 1654 610 1757 L711 1774 Q719 1712 756 1678.5 Q793 1645 856 1645 Q986 1645 1047 1774 L1139 1757 Z" /><glyph glyph-name="ubreve" unicode="&#x16d;" d="M100 195 Q100 222 109 301 L217 969 L348 969 L240 299 Q231 234 231 213 Q231 161 260.5 129.5 Q290 98 346 98 Q410 98 488.5 156.5 Q567 215 698 354 L793 969 L924 969 L813 281 L813 0 L698 0 L688 215 Q575 95 490.5 37.5 Q406 -20 317 -20 Q214 -20 157 35.5 Q100 91 100 195 ZM887 1350 Q860 1245 783.5 1181.5 Q707 1118 592 1118 Q475 1118 415.5 1182.5 Q356 1247 358 1350 L459 1366 Q467 1304 504 1270.5 Q541 1237 604 1237 Q734 1237 795 1366 L887 1350 Z" /><glyph glyph-name="Uring" unicode="&#x16e;" d="M868 1579 Q920 1579 953.5 1613.5 Q987 1648 987 1702 Q987 1756 953.5 1792.5 Q920 1829 868 1829 Q817 1829 782.5 1792.5 Q748 1756 748 1702 Q748 1648 782.5 1613.5 Q817 1579 868 1579 ZM1011.5 1559.5 Q954 1503 868 1503 Q782 1503 725 1559.5 Q668 1616 668 1702 Q668 1787 725 1846 Q782 1905 868 1905 Q954 1905 1011.5 1846 Q1069 1787 1069 1702 Q1069 1616 1011.5 1559.5 ZM1335 1413 L1190 489 Q1151 242 1004.5 109.5 Q858 -23 633 -23 Q417 -23 290.5 95 Q164 213 164 430 Q164 508 176 584 L307 1413 L444 1413 L311 565 Q301 497 301 440 Q301 279 389.5 189.5 Q478 100 641 100 Q815 100 919.5 207 Q1024 314 1055 514 L1198 1413 L1335 1413 Z" /><glyph glyph-name="uring" unicode="&#x16f;" d="M616 1171 Q668 1171 701.5 1205.5 Q735 1240 735 1294 Q735 1348 701.5 1384.5 Q668 1421 616 1421 Q565 1421 530.5 1384.5 Q496 1348 496 1294 Q496 1240 530.5 1205.5 Q565 1171 616 1171 ZM616 1096 Q530 1096 473 1152 Q416 1208 416 1294 Q416 1379 473 1438 Q530 1497 616 1497 Q702 1497 759.5 1438 Q817 1379 817 1294 Q817 1208 760 1152 Q703 1096 616 1096 ZM100 195 Q100 222 109 301 L217 969 L348 969 L240 299 Q231 234 231 213 Q231 161 260.5 129.5 Q290 98 346 98 Q410 98 488.5 156.5 Q567 215 698 354 L793 969 L924 969 L813 281 L813 0 L698 0 L688 215 Q575 95 490.5 37.5 Q406 -20 317 -20 Q214 -20 157 35.5 Q100 91 100 195 Z" /><glyph glyph-name="Uhungarumlaut" unicode="&#x170;" d="M1335 1413 L1190 489 Q1151 242 1004.5 109.5 Q858 -23 633 -23 Q417 -23 290.5 95 Q164 213 164 430 Q164 508 176 584 L307 1413 L444 1413 L311 565 Q301 497 301 440 Q301 279 389.5 189.5 Q478 100 641 100 Q815 100 919.5 207 Q1024 314 1055 514 L1198 1413 L1335 1413 ZM1341 1810 L1024 1538 L934 1538 L1180 1849 L1341 1810 ZM1018 1810 L698 1538 L608 1538 L854 1849 L1018 1810 Z" /><glyph glyph-name="uhungarumlaut" unicode="&#x171;" d="M100 195 Q100 222 109 301 L217 969 L348 969 L240 299 Q231 234 231 213 Q231 161 260.5 129.5 Q290 98 346 98 Q410 98 488.5 156.5 Q567 215 698 354 L793 969 L924 969 L813 281 L813 0 L698 0 L688 215 Q575 95 490.5 37.5 Q406 -20 317 -20 Q214 -20 157 35.5 Q100 91 100 195 ZM1092 1403 L774 1130 L684 1130 L930 1442 L1092 1403 ZM768 1403 L449 1130 L358 1130 L604 1442 L768 1403 Z" /><glyph glyph-name="Uogonek" unicode="&#x172;" d="M1335 1413 L1190 489 Q1152 251 1014 118.5 Q876 -14 664 -23 L633 -59 Q582 -119 563.5 -151 Q545 -183 545 -213 Q545 -268 616 -268 Q648 -268 696 -258 L682 -344 Q624 -365 563 -365 Q497 -365 462.5 -336.5 Q428 -308 428 -254 Q428 -200 458 -149.5 Q488 -99 563 -20 L565 -18 Q377 0 270.5 115.5 Q164 231 164 430 Q164 508 176 584 L307 1413 L444 1413 L311 565 Q301 497 301 440 Q301 279 389.5 189.5 Q478 100 641 100 Q815 100 919.5 207 Q1024 314 1055 514 L1198 1413 L1335 1413 Z" /><glyph glyph-name="uogonek" unicode="&#x173;" d="M100 195 Q100 222 109 301 L217 969 L348 969 L240 299 Q231 234 231 213 Q231 161 260.5 129.5 Q290 98 346 98 Q410 98 488.5 156.5 Q567 215 698 354 L793 969 L924 969 L813 281 L813 0 L780 0 L731 -59 Q680 -119 661.5 -151 Q643 -183 643 -213 Q643 -268 715 -268 Q747 -268 795 -258 L780 -344 Q722 -365 662 -365 Q596 -365 561 -336.5 Q526 -308 526 -254 Q526 -200 556.5 -150 Q587 -100 662 -20 L696 16 L688 215 Q575 95 490.5 37.5 Q406 -20 317 -20 Q214 -20 157 35.5 Q100 91 100 195 Z" /><glyph glyph-name="Wcircumflex" unicode="&#x174;" d="M1444 1540 L1364 1540 L1202 1714 L987 1540 L895 1540 L1157 1837 L1282 1837 L1444 1540 ZM2075 1413 L1434 0 L1323 0 L1120 1208 L535 0 L424 0 L236 1397 L379 1427 L522 231 L1085 1413 L1223 1413 L1411 231 L1927 1413 L2075 1413 Z" /><glyph glyph-name="wcircumflex" unicode="&#x175;" d="M1077 1126 L997 1126 L836 1300 L621 1126 L528 1126 L791 1423 L915 1423 L1077 1126 ZM1427 969 L961 -6 L858 -6 L752 776 L401 -6 L299 -6 L139 961 L266 985 L381 190 L727 973 L842 973 L942 190 L1294 969 L1427 969 Z" /><glyph glyph-name="Ycircumflex" unicode="&#x176;" d="M1298 1413 L688 588 L596 0 L459 0 L551 586 L207 1399 L348 1427 L639 711 L1137 1413 L1298 1413 ZM1036 1530 L956 1530 L795 1704 L580 1530 L487 1530 L750 1827 L874 1827 L1036 1530 Z" /><glyph glyph-name="ycircumflex" unicode="&#x177;" d="M936 969 L381 -135 Q316 -265 245.5 -317 Q175 -369 70 -369 Q68 -369 12 -362 L12 -246 Q58 -254 86 -254 Q141 -254 182 -222.5 Q223 -191 260 -121 L328 8 L131 956 L262 981 L416 164 L795 969 L936 969 ZM838 1122 L758 1122 L596 1296 L381 1122 L289 1122 L551 1419 L676 1419 L838 1122 Z" /><glyph glyph-name="Ydieresis" unicode="&#x178;" d="M1298 1413 L688 588 L596 0 L459 0 L551 586 L207 1399 L348 1427 L639 711 L1137 1413 L1298 1413 ZM1028 1548 L858 1548 L889 1731 L1059 1731 L1028 1548 ZM676 1548 L506 1548 L537 1731 L705 1731 L676 1548 Z" /><glyph glyph-name="Zacute" unicode="&#x179;" d="M1118 1815 L797 1540 L690 1540 L936 1853 L1118 1815 ZM1200 1413 L1186 1315 L227 119 L995 119 L995 0 L37 0 L51 98 L1012 1294 L297 1294 L297 1413 L1200 1413 Z" /><glyph glyph-name="zacute" unicode="&#x17a;" d="M895 1401 L573 1126 L467 1126 L713 1440 L895 1401 ZM848 969 L829 868 L176 109 L713 109 L713 0 L2 0 L18 102 L674 860 L182 860 L182 969 L848 969 Z" /><glyph glyph-name="Zdotaccent" unicode="&#x17b;" d="M1200 1413 L1186 1315 L227 119 L995 119 L995 0 L37 0 L51 98 L1012 1294 L297 1294 L297 1413 L1200 1413 ZM844 1554 L672 1554 L700 1739 L872 1739 L844 1554 Z" /><glyph glyph-name="zdotaccent" unicode="&#x17c;" d="M848 969 L829 868 L176 109 L713 109 L713 0 L2 0 L18 102 L674 860 L182 860 L182 969 L848 969 ZM621 1141 L449 1141 L477 1325 L649 1325 L621 1141 Z" /><glyph glyph-name="Zcaron" unicode="&#x17d;" d="M528 1837 L606 1837 L770 1663 L985 1837 L1077 1837 L815 1540 L690 1540 L528 1837 ZM1200 1413 L1186 1315 L227 119 L995 119 L995 0 L37 0 L51 98 L1012 1294 L297 1294 L297 1413 L1200 1413 Z" /><glyph glyph-name="zcaron" unicode="&#x17e;" d="M305 1423 L383 1423 L547 1249 L762 1423 L854 1423 L592 1126 L467 1126 L305 1423 ZM848 969 L829 868 L176 109 L713 109 L713 0 L2 0 L18 102 L674 860 L182 860 L182 969 L848 969 Z" /><glyph glyph-name="uni018F" unicode="&#x18f;" d="M139 512 Q139 632 164 782 L1135 782 Q1135 791 1136 811.5 Q1137 832 1137 842 Q1137 1067 1033.5 1191 Q930 1315 748 1315 Q635 1315 527 1278 Q419 1241 291 1163 L291 1300 Q412 1371 522.5 1405.5 Q633 1440 756 1440 Q1001 1440 1138.5 1284.5 Q1276 1129 1276 854 Q1276 679 1223 517.5 Q1170 356 1080 236 Q990 116 861.5 44.5 Q733 -27 590 -27 Q372 -27 255.5 112 Q139 251 139 512 ZM596 94 Q722 94 832.5 170 Q943 246 1016.5 374.5 Q1090 503 1120 662 L285 662 Q274 592 274 512 Q274 305 355.5 199.5 Q437 94 596 94 Z" /><glyph glyph-name="florin" unicode="&#x192;" d="M156 928 L299 928 L334 1141 Q354 1275 427 1338 Q500 1401 627 1401 Q684 1401 711 1395 L711 1276 Q670 1282 623 1282 Q488 1282 463 1128 L430 928 L623 928 L623 815 L412 815 L283 0 L150 0 L281 815 L137 815 L156 928 Z" /><glyph glyph-name="Aringacute" unicode="&#x1fa;" d="M1042 -14 L946 457 L379 457 L141 0 L-6 0 L702 1335 Q618 1393 618 1499 Q618 1584 676.5 1643 Q735 1702 821 1702 Q907 1702 964.5 1643 Q1022 1584 1022 1499 Q1022 1434 989 1385.5 Q956 1337 899 1315 L1176 16 L1042 -14 ZM786 1243 L440 578 L922 578 L786 1243 ZM821 1374 Q872 1374 906 1409.5 Q940 1445 940 1499 Q940 1553 906 1589.5 Q872 1626 821 1626 Q769 1626 734.5 1589.5 Q700 1553 700 1499 Q700 1445 734.5 1409.5 Q769 1374 821 1374 ZM1219 2032 L897 1757 L791 1757 L1036 2071 L1219 2032 Z" /><glyph glyph-name="aringacute" unicode="&#x1fb;" d="M680 201 Q575 91 493.5 35.5 Q412 -20 332 -20 Q215 -20 147.5 65 Q80 150 80 305 Q80 449 124.5 576 Q169 703 243.5 792 Q318 881 418.5 932 Q519 983 629 983 Q763 983 907 922 L803 281 L803 0 L690 0 L680 201 ZM682 334 L766 842 Q700 870 612 870 Q535 870 462.5 829 Q390 788 335 717 Q280 646 246.5 541.5 Q213 437 213 317 Q213 209 250 151.5 Q287 94 354 94 Q415 94 489.5 150.5 Q564 207 682 334 ZM1047 1892 L725 1618 L618 1618 L864 1931 L1047 1892 ZM647 1196 Q699 1196 732.5 1230.5 Q766 1265 766 1319 Q766 1373 732.5 1409.5 Q699 1446 647 1446 Q596 1446 561 1409.5 Q526 1373 526 1319 Q526 1266 561 1231 Q596 1196 647 1196 ZM790.5 1176.5 Q733 1120 647 1120 Q561 1120 503.5 1176.5 Q446 1233 446 1319 Q446 1404 503.5 1463 Q561 1522 647 1522 Q733 1522 790.5 1463 Q848 1404 848 1319 Q848 1233 790.5 1176.5 Z" /><glyph glyph-name="AEacute" unicode="&#x1fc;" d="M94 0 L-55 0 L1004 1413 L1776 1413 L1755 1288 L1202 1288 L1126 801 L1556 801 L1556 676 L1106 676 L1018 125 L1589 125 L1571 0 L860 0 L932 457 L434 457 L94 0 ZM524 578 L952 578 L1067 1305 L524 578 ZM1602 1815 L1280 1540 L1174 1540 L1419 1853 L1602 1815 Z" /><glyph glyph-name="aeacute" unicode="&#x1fd;" d="M1196 1401 L874 1126 L768 1126 L1014 1440 L1196 1401 ZM1403 629 Q1403 563 1389 481 L786 481 Q780 440 780 395 Q780 251 843.5 171.5 Q907 92 1020 92 Q1094 92 1165 122.5 Q1236 153 1325 217 L1325 90 Q1166 -20 1004 -20 Q895 -20 815 27.5 Q735 75 692 164 Q477 -18 303 -18 Q188 -18 116.5 45 Q45 108 45 225 Q45 564 678 614 L684 666 Q701 775 661 826 Q621 877 522 877 Q398 877 221 791 L221 911 Q395 989 537 989 Q762 989 801 829 Q926 989 1102 989 Q1246 989 1324.5 894 Q1403 799 1403 629 ZM1270 582 Q1282 727 1238 806 Q1194 885 1094 885 Q1001 885 920 802.5 Q839 720 803 582 L1270 582 ZM659 262 Q647 320 647 387 Q647 448 657 516 Q521 503 425.5 476.5 Q330 450 277 412 Q224 374 201 331.5 Q178 289 178 236 Q178 166 218.5 129 Q259 92 330 92 Q459 92 659 262 Z" /><glyph glyph-name="Oslashacute" unicode="&#x1fe;" d="M668 -27 Q439 -27 299 123 L174 -16 L53 10 L231 209 Q135 367 135 594 Q135 792 203 964.5 Q271 1137 391 1257 Q577 1440 825 1440 Q1048 1440 1194 1288 L1321 1430 L1442 1403 L1262 1200 Q1358 1045 1358 819 Q1358 622 1289.5 449.5 Q1221 277 1100 156 Q917 -27 668 -27 ZM274 596 Q274 435 328 315 L1106 1190 Q1000 1321 819 1321 Q634 1321 492 1176 Q390 1076 332 925 Q274 774 274 596 ZM672 92 Q855 92 1001 238 Q1102 339 1160.5 489.5 Q1219 640 1219 817 Q1219 971 1163 1096 L387 221 Q494 92 672 92 ZM1251 1835 L930 1561 L823 1561 L1069 1874 L1251 1835 Z" /><glyph glyph-name="oslashacute" unicode="&#x1ff;" d="M965 961 L842 819 Q895 719 895 578 Q895 419 835.5 282.5 Q776 146 667 63 Q558 -20 424 -20 Q283 -20 195 68 L123 -14 L14 10 L135 150 Q84 252 84 391 Q84 550 143 686.5 Q202 823 310.5 906 Q419 989 553 989 Q692 989 782 899 L856 985 L965 961 ZM768 573 Q768 656 750 717 L272 158 Q334 84 434 84 Q529 84 607 154.5 Q685 225 726.5 336.5 Q768 448 768 573 ZM209 395 Q209 318 225 252 L705 809 Q644 885 545 885 Q450 885 371.5 813.5 Q293 742 251 630.5 Q209 519 209 395 ZM952 1401 L631 1126 L524 1126 L770 1440 L952 1401 Z" /><glyph glyph-name="Scommaaccent" unicode="&#x218;" d="M299 -184 L424 -137 Q492 -202 492 -276 Q492 -342 445.5 -408 Q399 -474 303 -549 L219 -532 Q365 -392 365 -307 Q365 -250 299 -184 ZM965 1343 L932 1208 Q779 1313 627 1313 Q501 1313 428.5 1241 Q356 1169 356 1065 Q356 988 408 928.5 Q460 869 590 793 Q760 692 826.5 603 Q893 514 893 391 Q893 205 762.5 93.5 Q632 -18 440 -18 Q331 -18 226.5 14 Q122 46 51 94 L84 229 Q163 170 258 135 Q353 100 449 100 Q580 100 666 176 Q752 252 752 373 Q752 463 705.5 522.5 Q659 582 530 659 Q356 763 287.5 845 Q219 927 219 1049 Q219 1214 335.5 1323 Q452 1432 639 1432 Q821 1432 965 1343 Z" /><glyph glyph-name="scommaaccent" unicode="&#x219;" d="M178 -180 L303 -133 Q371 -198 371 -272 Q371 -338 324.5 -404 Q278 -470 182 -545 L98 -528 Q244 -388 244 -303 Q244 -246 178 -180 ZM719 913 L684 788 Q551 877 440 877 Q359 877 310.5 835.5 Q262 794 262 733 Q262 682 297 646.5 Q332 611 428 563 Q569 493 623.5 432.5 Q678 372 678 272 Q678 138 587.5 59 Q497 -20 348 -20 Q167 -20 16 86 L53 209 Q200 92 358 92 Q440 92 495.5 139 Q551 186 551 258 Q551 317 514 353 Q477 389 369 444 Q243 508 190 566.5 Q137 625 137 717 Q137 840 223 914.5 Q309 989 449 989 Q587 989 719 913 Z" /><glyph glyph-name="schwa" unicode="&#x259;" d="M461 877 Q386 877 314.5 846.5 Q243 816 154 752 L154 879 Q313 989 475 989 Q645 989 738 881 Q831 773 831 586 Q831 455 793.5 341 Q756 227 694 148.5 Q632 70 549 25 Q466 -20 377 -20 Q233 -20 154.5 75 Q76 170 76 340 Q76 405 90 487 L692 487 Q698 531 698 578 Q698 719 635.5 798 Q573 877 461 877 ZM385 84 Q479 84 559 167 Q639 250 674 387 L209 387 Q197 242 241 163 Q285 84 385 84 Z" /><glyph glyph-name="circumflex" unicode="&#x2c6;" d="M840 1126 L760 1126 L598 1300 L383 1126 L291 1126 L553 1423 L678 1423 L840 1126 Z" /><glyph glyph-name="caron" unicode="&#x2c7;" d="M342 1423 L420 1423 L584 1249 L799 1423 L891 1423 L629 1126 L504 1126 L342 1423 Z" /><glyph glyph-name="breve" unicode="&#x2d8;" d="M874 1364 Q847 1259 771 1196 Q695 1133 580 1133 Q462 1133 403 1197 Q344 1261 346 1364 L446 1380 Q454 1318 491.5 1284.5 Q529 1251 592 1251 Q721 1251 782 1380 L874 1364 Z" /><glyph glyph-name="dotaccent" unicode="&#x2d9;" d="M657 1141 L485 1141 L514 1325 L686 1325 L657 1141 Z" /><glyph glyph-name="ring" unicode="&#x2da;" d="M509.5 1231 Q544 1196 596 1196 Q648 1196 681.5 1230.5 Q715 1265 715 1319 Q715 1373 681.5 1409.5 Q648 1446 596 1446 Q545 1446 510 1409.5 Q475 1373 475 1319 Q475 1266 509.5 1231 ZM739.5 1176.5 Q682 1120 596 1120 Q510 1120 452.5 1176.5 Q395 1233 395 1319 Q395 1404 452.5 1463 Q510 1522 596 1522 Q682 1522 739.5 1463 Q797 1404 797 1319 Q797 1233 739.5 1176.5 Z" /><glyph glyph-name="ogonek" unicode="&#x2db;" d="M512 61 L569 18 L504 -59 Q453 -119 434.5 -151 Q416 -183 416 -213 Q416 -268 487 -268 Q519 -268 567 -258 L553 -344 Q495 -365 434 -365 Q368 -365 333.5 -336.5 Q299 -308 299 -254 Q299 -200 329 -149.5 Q359 -99 434 -20 L512 61 Z" /><glyph glyph-name="tilde" unicode="&#x2dc;" d="M909 1352 Q841 1139 715 1139 Q678 1139 649 1150.5 Q620 1162 571 1190 Q516 1224 494.5 1233.5 Q473 1243 449 1243 Q400 1243 358 1135 L268 1153 Q301 1258 351.5 1312 Q402 1366 463 1366 Q501 1366 530 1354.5 Q559 1343 606 1315 Q660 1282 682.5 1272 Q705 1262 729 1262 Q779 1262 819 1370 L909 1352 Z" /><glyph glyph-name="hungarumlaut" unicode="&#x2dd;" d="M950 1407 L633 1135 L543 1135 L788 1446 L950 1407 ZM627 1407 L307 1135 L217 1135 L463 1446 L627 1407 Z" /><glyph glyph-name="commaaccent" unicode="&#x326;" d="M315 -180 L440 -133 Q508 -198 508 -272 Q508 -338 461.5 -404 Q415 -470 319 -545 L236 -528 Q381 -389 381 -303 Q381 -246 315 -180 Z" /><glyph glyph-name="uni0384" unicode="&#x384;" d="M717 1432 L537 1126 L453 1126 L553 1432 L717 1432 Z" /><glyph glyph-name="uni0385" unicode="&#x385;" d="M879 1145 L717 1145 L745 1327 L907 1327 L879 1145 ZM401 1145 L240 1145 L268 1327 L430 1327 L401 1145 ZM739 1454 L557 1126 L477 1126 L586 1454 L739 1454 Z" /><glyph glyph-name="uni0386" unicode="&#x386;" d="M1042 -14 L946 457 L379 457 L141 0 L-6 0 L748 1421 L877 1421 L1176 16 L1042 -14 ZM786 1243 L440 578 L922 578 L786 1243 ZM418 1417 L252 1071 L168 1071 L256 1417 L418 1417 Z" /><glyph glyph-name="uni0387" unicode="&#x387;" d="M383 969 L352 770 L193 770 L223 969 L383 969 Z" /><glyph glyph-name="uni0388" unicode="&#x388;" d="M203 1413 L37 1067 L-47 1067 L41 1413 L203 1413 ZM1016 1413 L995 1288 L444 1288 L367 803 L797 803 L797 676 L346 676 L258 125 L829 125 L811 0 L100 0 L326 1413 L1016 1413 Z" /><glyph glyph-name="uni0389" unicode="&#x389;" d="M1319 1413 L1094 0 L956 0 L1063 676 L346 676 L240 0 L100 0 L326 1413 L463 1413 L367 801 L1083 801 L1180 1413 L1319 1413 ZM203 1413 L37 1067 L-47 1067 L41 1413 L203 1413 Z" /><glyph glyph-name="uni038A" unicode="&#x38a;" d="M477 1413 L252 0 L115 0 L340 1413 L477 1413 ZM207 1413 L41 1067 L-43 1067 L45 1413 L207 1413 Z" /><glyph glyph-name="uni038C" unicode="&#x38c;" d="M229 1427 L63 1081 L-20 1081 L68 1427 L229 1427 ZM651 -27 Q485 -27 363 55 Q241 137 180 276 Q119 415 119 594 Q119 792 187 964.5 Q255 1137 375 1257 Q561 1440 809 1440 Q974 1440 1096 1358 Q1218 1276 1279.5 1136.5 Q1341 997 1341 819 Q1341 622 1272.5 449.5 Q1204 277 1083 156 Q900 -27 651 -27 ZM655 94 Q836 94 983 238 Q1084 340 1141 490.5 Q1198 641 1198 817 Q1198 1046 1093 1182.5 Q988 1319 803 1319 Q620 1319 477 1176 Q376 1074 318 923 Q260 772 260 596 Q260 367 365 230.5 Q470 94 655 94 Z" /><glyph glyph-name="uni038E" unicode="&#x38e;" d="M1298 1413 L688 588 L596 0 L459 0 L551 586 L207 1399 L348 1427 L639 711 L1137 1413 L1298 1413 ZM168 1419 L2 1073 L-82 1073 L6 1419 L168 1419 Z" /><glyph glyph-name="uni038F" unicode="&#x38f;" d="M836 1440 Q1083 1440 1226.5 1288 Q1370 1136 1370 885 Q1370 672 1271.5 501.5 Q1173 331 975 168 L918 121 L1217 121 L1198 0 L741 0 L741 115 L879 233 Q1054 384 1141.5 538.5 Q1229 693 1229 877 Q1229 1079 1122.5 1198.5 Q1016 1318 831 1319 Q681 1319 559.5 1235.5 Q438 1152 369.5 1008 Q301 864 301 690 Q301 432 477 227 L573 115 L539 0 L80 0 L100 121 L412 121 L356 184 Q158 406 158 705 Q158 856 209.5 991.5 Q261 1127 350.5 1225.5 Q440 1324 566.5 1382 Q693 1440 836 1440 ZM221 1427 L55 1081 L-29 1081 L59 1427 L221 1427 Z" /><glyph glyph-name="uni0390" unicode="&#x390;" d="M664 1145 L502 1145 L530 1327 L692 1327 L664 1145 ZM186 1145 L25 1145 L53 1327 L215 1327 L186 1145 ZM524 1454 L342 1126 L262 1126 L371 1454 L524 1454 ZM375 2 Q316 -16 260 -16 Q104 -16 104 139 Q104 162 115 233 L233 969 L365 969 L246 233 Q240 181 240 162 Q240 100 295 100 Q324 100 375 115 L375 2 Z" /><glyph glyph-name="uni0391" unicode="&#x391;" d="M1042 -14 L946 457 L379 457 L141 0 L-6 0 L748 1421 L877 1421 L1176 16 L1042 -14 ZM786 1243 L440 578 L922 578 L786 1243 Z" /><glyph glyph-name="uni0392" unicode="&#x392;" d="M1008 1098 Q1008 969 934 878 Q860 787 739 743 Q969 651 969 436 Q969 233 825 116.5 Q681 0 446 0 L100 0 L326 1413 L625 1413 Q806 1413 907 1329 Q1008 1245 1008 1098 ZM868 1083 Q868 1182 803.5 1238 Q739 1294 614 1294 L442 1294 L365 799 L520 799 Q671 799 769.5 877 Q868 955 868 1083 ZM829 428 Q829 548 744 615 Q659 682 502 682 L346 682 L256 119 L461 119 Q631 119 730 201 Q829 283 829 428 Z" /><glyph glyph-name="uni0393" unicode="&#x393;" d="M326 1413 L983 1413 L983 1286 L442 1286 L240 0 L100 0 L326 1413 Z" /><glyph glyph-name="uni0394" unicode="&#x394;" d="M1198 0 L23 0 L23 94 L768 1421 L911 1421 L1231 109 L1198 0 ZM819 1262 L184 119 L1087 119 L819 1262 Z" /><glyph glyph-name="uni0395" unicode="&#x395;" d="M1016 1413 L995 1288 L444 1288 L367 803 L797 803 L797 676 L346 676 L258 125 L829 125 L811 0 L100 0 L326 1413 L1016 1413 Z" /><glyph glyph-name="uni0396" unicode="&#x396;" d="M1200 1413 L1186 1315 L227 119 L995 119 L995 0 L37 0 L51 98 L1012 1294 L297 1294 L297 1413 L1200 1413 Z" /><glyph glyph-name="uni0397" unicode="&#x397;" d="M1319 1413 L1094 0 L956 0 L1063 676 L346 676 L240 0 L100 0 L326 1413 L463 1413 L367 801 L1083 801 L1180 1413 L1319 1413 Z" /><glyph glyph-name="uni0398" unicode="&#x398;" d="M1047 637 L426 637 L446 772 L1067 772 L1047 637 ZM668 -27 Q502 -27 380 55 Q258 137 196.5 276.5 Q135 416 135 594 Q135 792 203 964.5 Q271 1137 391 1257 Q577 1440 825 1440 Q990 1440 1112 1358 Q1234 1276 1296 1136.5 Q1358 997 1358 819 Q1358 622 1289.5 449.5 Q1221 277 1100 156 Q917 -27 668 -27 ZM672 94 Q852 94 999 238 Q1100 341 1158.5 491 Q1217 641 1217 817 Q1217 1045 1110.5 1182 Q1004 1319 819 1319 Q637 1319 494 1176 Q393 1073 334.5 922.5 Q276 772 276 596 Q276 367 381.5 230.5 Q487 94 672 94 Z" /><glyph glyph-name="uni0399" unicode="&#x399;" d="M477 1413 L252 0 L115 0 L340 1413 L477 1413 Z" /><glyph glyph-name="uni039A" unicode="&#x39a;" d="M1237 1413 L502 750 L1055 18 L909 -14 L354 729 L240 0 L100 0 L326 1413 L463 1413 L360 772 L1057 1413 L1237 1413 Z" /><glyph glyph-name="uni039B" unicode="&#x39b;" d="M870 1421 L1171 16 L1032 -14 L780 1223 L143 0 L-6 0 L752 1421 L870 1421 Z" /><glyph glyph-name="uni039C" unicode="&#x39c;" d="M1657 1413 L1546 0 L1413 0 L1511 1210 L854 -8 L756 -8 L483 1210 L199 0 L72 0 L408 1413 L573 1413 L838 195 L1485 1413 L1657 1413 Z" /><glyph glyph-name="uni039D" unicode="&#x39d;" d="M1317 1413 L1092 0 L1008 0 L418 1200 L229 0 L100 0 L326 1413 L457 1413 L1012 281 L1190 1413 L1317 1413 Z" /><glyph glyph-name="uni039E" unicode="&#x39e;" d="M905 0 L14 0 L35 125 L926 125 L905 0 ZM928 678 L215 678 L236 803 L928 803 L928 678 ZM1096 1288 L233 1288 L254 1413 L1116 1413 L1096 1288 Z" /><glyph glyph-name="uni039F" unicode="&#x39f;" d="M668 -27 Q502 -27 380 55 Q258 137 196.5 276.5 Q135 416 135 594 Q135 792 203 964.5 Q271 1137 391 1257 Q577 1440 825 1440 Q990 1440 1112 1358 Q1234 1276 1296 1136.5 Q1358 997 1358 819 Q1358 622 1289.5 449.5 Q1221 277 1100 156 Q917 -27 668 -27 ZM672 94 Q852 94 999 238 Q1100 340 1157 490.5 Q1214 641 1214 817 Q1214 1046 1109 1182.5 Q1004 1319 819 1319 Q637 1319 494 1176 Q393 1073 334.5 922.5 Q276 772 276 596 Q276 367 381.5 230.5 Q487 94 672 94 Z" /><glyph glyph-name="uni03A0" unicode="&#x3a0;" d="M1309 1413 L1083 0 L946 0 L1151 1288 L444 1288 L240 0 L100 0 L326 1413 L1309 1413 Z" /><glyph glyph-name="uni03A1" unicode="&#x3a1;" d="M1038 1049 Q1038 842 890 719 Q742 596 494 596 L334 596 L240 0 L100 0 L326 1413 L602 1413 Q812 1413 925 1317 Q1038 1221 1038 1049 ZM899 1040 Q899 1160 823.5 1225 Q748 1290 596 1290 L444 1290 L354 719 L502 719 Q691 719 795 805.5 Q899 892 899 1040 Z" /><glyph glyph-name="uni03A3" unicode="&#x3a3;" d="M635 743 L244 1313 L260 1413 L1174 1413 L1155 1294 L403 1294 L793 735 L213 119 L983 119 L983 0 L16 0 L31 98 L635 743 Z" /><glyph glyph-name="uni03A4" unicode="&#x3a4;" d="M1188 1288 L754 1288 L549 0 L412 0 L616 1288 L188 1288 L209 1413 L1188 1413 L1188 1288 Z" /><glyph glyph-name="uni03A5" unicode="&#x3a5;" d="M1298 1413 L688 588 L596 0 L459 0 L551 586 L207 1399 L348 1427 L639 711 L1137 1413 L1298 1413 Z" /><glyph glyph-name="uni03A6" unicode="&#x3a6;" d="M842 -27 L705 -27 L731 139 Q442 154 280.5 290 Q119 426 119 657 Q119 785 175 898.5 Q231 1012 332.5 1095.5 Q434 1179 583.5 1229 Q733 1279 911 1282 L938 1440 L1073 1440 L1047 1282 Q1335 1265 1496 1129 Q1657 993 1657 764 Q1657 635 1600.5 521.5 Q1544 408 1443 324.5 Q1342 241 1193 191 Q1044 141 866 137 L842 -27 ZM260 659 Q260 476 384.5 374 Q509 272 752 260 L895 1163 Q605 1154 432.5 1010 Q260 866 260 659 ZM1516 762 Q1516 944 1392 1046 Q1268 1148 1026 1161 L885 258 Q1030 262 1150 303.5 Q1270 345 1349.5 413 Q1429 481 1472.5 571 Q1516 661 1516 762 Z" /><glyph glyph-name="uni03A7" unicode="&#x3a7;" d="M1255 1413 L725 737 L1073 18 L932 -12 L633 635 L147 0 L-10 0 L573 741 L260 1395 L399 1423 L664 844 L1098 1413 L1255 1413 Z" /><glyph glyph-name="uni03A8" unicode="&#x3a8;" d="M850 1413 L985 1413 L852 571 Q1286 577 1339 944 L1413 1413 L1550 1413 L1475 930 Q1441 694 1278.5 572.5 Q1116 451 831 451 L762 0 L627 0 L696 451 Q456 461 329.5 565 Q203 669 203 852 Q203 912 215 979 L285 1413 L420 1413 L350 969 Q340 913 340 856 Q340 720 432.5 649 Q525 578 717 571 L850 1413 Z" /><glyph glyph-name="uni03A9" unicode="&#x3a9;" d="M836 1440 Q1083 1440 1226.5 1288 Q1370 1136 1370 885 Q1370 672 1271.5 501.5 Q1173 331 975 168 L918 121 L1217 121 L1198 0 L741 0 L741 115 L879 233 Q1054 384 1141.5 538.5 Q1229 693 1229 877 Q1229 1079 1122.5 1198.5 Q1016 1318 831 1319 Q681 1319 559.5 1235.5 Q438 1152 369.5 1008 Q301 864 301 690 Q301 432 477 227 L573 115 L539 0 L80 0 L100 121 L412 121 L356 184 Q158 406 158 705 Q158 856 209.5 991.5 Q261 1127 350.5 1225.5 Q440 1324 566.5 1382 Q693 1440 836 1440 Z" /><glyph glyph-name="uni03AA" unicode="&#x3aa;" d="M477 1413 L252 0 L115 0 L340 1413 L477 1413 ZM692 1559 L522 1559 L553 1741 L723 1741 L692 1559 ZM340 1559 L170 1559 L201 1741 L369 1741 L340 1559 Z" /><glyph glyph-name="uni03AB" unicode="&#x3ab;" d="M1298 1413 L688 588 L596 0 L459 0 L551 586 L207 1399 L348 1427 L639 711 L1137 1413 L1298 1413 ZM1028 1548 L858 1548 L889 1731 L1059 1731 L1028 1548 ZM676 1548 L506 1548 L537 1731 L705 1731 L676 1548 Z" /><glyph glyph-name="uni03AC" unicode="&#x3ac;" d="M518 989 Q647 989 711 902.5 Q775 816 813 608 L1028 969 L1167 969 L850 457 L891 213 Q902 151 924 125.5 Q946 100 993 100 Q1021 100 1075 115 L1040 0 Q990 -16 944 -16 Q868 -16 827 30 Q786 76 772 176 L750 330 Q627 129 539 54.5 Q451 -20 344 -20 Q215 -20 146.5 70 Q78 160 78 328 Q78 502 131 652 Q184 802 286 895.5 Q388 989 518 989 ZM356 86 Q422 86 493 154.5 Q564 223 674 403 L719 477 L709 543 Q676 733 631.5 807 Q587 881 508 881 Q429 881 360 806 Q291 731 250 604 Q209 477 209 332 Q209 211 247.5 148.5 Q286 86 356 86 ZM881 1432 L700 1126 L616 1126 L717 1432 L881 1432 Z" /><glyph glyph-name="uni03AD" unicode="&#x3ad;" d="M655 549 L655 438 L520 438 Q368 438 283.5 384 Q199 330 199 244 Q199 171 254 131.5 Q309 92 410 92 Q572 92 760 190 L760 70 Q578 -20 395 -20 Q238 -20 152 47 Q66 114 66 233 Q66 331 134.5 401.5 Q203 472 322 500 Q243 526 201.5 581.5 Q160 637 162 713 Q162 832 263 909.5 Q364 987 537 987 Q710 987 872 901 L831 791 Q669 877 522 877 Q416 877 353.5 830.5 Q291 784 291 713 Q291 638 351.5 593.5 Q412 549 535 549 L655 549 ZM776 1432 L596 1126 L512 1126 L612 1432 L776 1432 Z" /><glyph glyph-name="uni03AE" unicode="&#x3ae;" d="M799 1432 L618 1126 L535 1126 L635 1432 L799 1432 ZM901 774 Q901 738 893 680 L729 -350 L594 -375 L762 670 Q768 713 768 750 Q768 807 739 838.5 Q710 870 653 870 Q589 870 510 811.5 Q431 753 303 614 L209 0 L78 0 L188 688 L188 969 L303 969 L313 754 Q425 873 510.5 931 Q596 989 684 989 Q787 989 844 933.5 Q901 878 901 774 Z" /><glyph glyph-name="uni03AF" unicode="&#x3af;" d="M539 1432 L358 1126 L274 1126 L375 1432 L539 1432 ZM375 2 Q316 -16 260 -16 Q104 -16 104 139 Q104 162 115 233 L233 969 L365 969 L246 233 Q240 181 240 162 Q240 100 295 100 Q324 100 375 115 L375 2 Z" /><glyph glyph-name="uni03B0" unicode="&#x3b0;" d="M926 1141 L764 1141 L793 1323 L954 1323 L926 1141 ZM449 1141 L287 1141 L315 1323 L477 1323 L449 1141 ZM786 1450 L604 1122 L524 1122 L633 1450 L786 1450 ZM834 381 Q803 187 701 83.5 Q599 -20 432 -20 Q283 -20 199 65 Q115 150 115 297 Q115 360 127 430 L211 969 L342 969 L256 420 Q248 360 248 307 Q248 209 297 152.5 Q346 96 440 96 Q658 96 705 391 L795 969 L926 969 L834 381 Z" /><glyph glyph-name="uni03B1" unicode="&#x3b1;" d="M518 989 Q647 989 711 902.5 Q775 816 813 608 L1028 969 L1167 969 L850 457 L891 213 Q902 151 924 125.5 Q946 100 993 100 Q1021 100 1075 115 L1040 0 Q990 -16 944 -16 Q868 -16 827 30 Q786 76 772 176 L750 330 Q627 129 539 54.5 Q451 -20 344 -20 Q215 -20 146.5 70 Q78 160 78 328 Q78 502 131 652 Q184 802 286 895.5 Q388 989 518 989 ZM356 86 Q422 86 493 154.5 Q564 223 674 403 L719 477 L709 543 Q676 733 631.5 807 Q587 881 508 881 Q429 881 360 806 Q291 731 250 604 Q209 477 209 332 Q209 211 247.5 148.5 Q286 86 356 86 Z" /><glyph glyph-name="uni03B2" unicode="&#x3b2;" d="M561 -18 Q377 -18 219 98 L150 -352 L16 -375 L240 1047 Q270 1238 384 1350 Q498 1462 674 1462 Q832 1462 930 1367 Q1028 1272 1028 1122 Q1028 1056 1008.5 999 Q989 942 955.5 898.5 Q922 855 875 819.5 Q828 784 776.5 759.5 Q725 735 666 717 Q816 661 893.5 576 Q971 491 971 352 Q971 196 855.5 89 Q740 -18 561 -18 ZM518 674 L518 768 Q698 812 798.5 900.5 Q899 989 899 1116 Q899 1217 836 1282.5 Q773 1348 668 1348 Q550 1348 470.5 1261.5 Q391 1175 367 1030 L240 221 Q401 92 559 92 Q683 92 761.5 167.5 Q840 243 840 354 Q840 466 765 540 Q690 614 518 674 Z" /><glyph glyph-name="uni03B3" unicode="&#x3b3;" d="M938 969 L827 762 Q603 343 519.5 152 Q436 -39 408 -209 L385 -350 L250 -375 L279 -197 Q306 -30 279.5 176.5 Q253 383 172 743 L123 956 L254 981 L297 774 Q388 345 391 88 Q437 229 501.5 370.5 Q566 512 717 809 L797 969 L938 969 Z" /><glyph glyph-name="uni03B4" unicode="&#x3b4;" d="M338 1206 Q338 1319 423 1390.5 Q508 1462 664 1462 Q811 1462 977 1393 L958 1268 Q790 1348 655 1348 Q565 1348 515 1310 Q465 1272 465 1212 Q465 1158 498 1112.5 Q531 1067 633 979 Q774 858 834.5 744 Q895 630 895 479 Q895 340 838.5 226 Q782 112 680 46 Q578 -20 449 -20 Q279 -20 180.5 93 Q82 206 82 387 Q82 575 185 714 Q288 853 487 938 Q407 1008 372.5 1069 Q338 1130 338 1206 ZM764 477 Q764 592 720.5 681.5 Q677 771 573 866 Q213 711 213 389 Q213 256 280 172 Q347 88 455 88 Q589 88 676.5 200.5 Q764 313 764 477 Z" /><glyph glyph-name="uni03B5" unicode="&#x3b5;" d="M655 549 L655 438 L520 438 Q368 438 283.5 384 Q199 330 199 244 Q199 171 254 131.5 Q309 92 410 92 Q572 92 760 190 L760 70 Q578 -20 395 -20 Q238 -20 152 47 Q66 114 66 233 Q66 331 134.5 401.5 Q203 472 322 500 Q243 526 201.5 581.5 Q160 637 162 713 Q162 832 263 909.5 Q364 987 537 987 Q710 987 872 901 L831 791 Q669 877 522 877 Q416 877 353.5 830.5 Q291 784 291 713 Q291 638 351.5 593.5 Q412 549 535 549 L655 549 Z" /><glyph glyph-name="uni03B6" unicode="&#x3b6;" d="M74 338 Q74 439 137.5 547.5 Q201 656 377 860 L799 1346 L309 1346 L326 1456 L946 1456 L946 1354 L477 795 Q315 604 261 513.5 Q207 423 207 346 Q207 265 263.5 218.5 Q320 172 465 125 Q638 69 694 25.5 Q750 -18 750 -92 Q750 -152 712 -214 Q674 -276 578 -375 L453 -354 Q553 -243 584.5 -197.5 Q616 -152 616 -115 Q616 -79 580 -55.5 Q544 -32 420 8 Q228 71 151 141.5 Q74 212 74 338 Z" /><glyph glyph-name="uni03B7" unicode="&#x3b7;" d="M901 774 Q901 738 893 680 L729 -350 L594 -375 L762 670 Q768 713 768 750 Q768 807 739 838.5 Q710 870 653 870 Q589 870 510 811.5 Q431 753 303 614 L209 0 L78 0 L188 688 L188 969 L303 969 L313 754 Q425 873 510.5 931 Q596 989 684 989 Q787 989 844 933.5 Q901 878 901 774 Z" /><glyph glyph-name="uni03B8" unicode="&#x3b8;" d="M502 -25 Q379 -25 294 46.5 Q209 118 169 242.5 Q129 367 129 537 Q129 787 201 998 Q273 1209 393 1329 Q529 1462 692 1462 Q877 1462 972 1312 Q1067 1162 1067 903 Q1067 654 994 442.5 Q921 231 801 111 Q668 -25 502 -25 ZM508 90 Q616 90 709 186 Q780 257 834.5 383 Q889 509 915 668 L264 668 Q258 601 258 528 Q258 318 321 204 Q384 90 508 90 ZM485 1253 Q416 1184 362.5 1062.5 Q309 941 281 788 L932 788 Q936 866 936 909 Q936 1120 873.5 1235 Q811 1350 688 1350 Q582 1350 485 1253 Z" /><glyph glyph-name="uni03B9" unicode="&#x3b9;" d="M375 2 Q316 -16 260 -16 Q104 -16 104 139 Q104 162 115 233 L233 969 L365 969 L246 233 Q240 181 240 162 Q240 100 295 100 Q324 100 375 115 L375 2 Z" /><glyph glyph-name="uni03BA" unicode="&#x3ba;" d="M229 969 L360 969 L287 524 L573 805 Q667 900 737 938 Q807 976 899 977 L899 852 Q826 848 770.5 816.5 Q715 785 639 709 L418 504 L793 12 L651 -14 L281 489 L207 0 L76 0 L229 969 Z" /><glyph glyph-name="uni03BB" unicode="&#x3bb;" d="M684 -12 L539 801 L135 0 L-6 0 L467 913 L498 971 L455 1188 Q436 1276 404 1311 Q372 1346 311 1346 Q292 1346 242 1335 L262 1452 Q308 1460 342 1460 Q448 1460 501 1404 Q554 1348 580 1210 L813 10 L684 -12 Z" /><glyph glyph-name="uni03BC" unicode="&#x3bc;" d="M145 -350 L16 -375 L229 969 L360 969 L254 299 Q248 259 248 221 Q248 163 276 130.5 Q304 98 360 98 Q424 98 503 157 Q582 216 711 354 L807 969 L938 969 L821 233 Q813 186 813 162 Q813 100 870 100 Q896 100 950 115 L950 2 Q887 -16 834 -16 Q680 -16 680 139 Q680 175 682 195 Q575 83 495.5 31.5 Q416 -20 338 -20 Q240 -20 193 59 Q187 -91 164 -231 L145 -350 Z" /><glyph glyph-name="uni03BD" unicode="&#x3bd;" d="M750 969 L883 969 Q863 672 748 436 Q633 200 422 -8 L303 -8 L133 956 L264 981 L399 129 Q562 308 648.5 509 Q735 710 750 969 Z" /><glyph glyph-name="uni03BE" unicode="&#x3be;" d="M760 -92 Q760 -150 721.5 -211 Q683 -272 590 -375 L463 -354 Q561 -243 593 -197 Q625 -151 625 -115 Q625 -79 590 -58 Q555 -37 418 16 Q229 85 151.5 160.5 Q74 236 74 362 Q74 513 184.5 613 Q295 713 494 754 Q287 821 287 1018 Q287 1123 352 1207.5 Q417 1292 532 1346 L262 1346 L279 1456 L963 1456 L963 1350 L905 1350 Q684 1350 551 1254 Q418 1158 418 1020 Q418 915 499.5 857 Q581 799 733 799 L801 799 L801 684 L741 684 Q484 684 345.5 597 Q207 510 207 371 Q207 287 266.5 233.5 Q326 180 463 131 Q646 64 703 22 Q760 -20 760 -92 Z" /><glyph glyph-name="uni03BF" unicode="&#x3bf;" d="M895 578 Q895 419 835.5 282.5 Q776 146 667 63 Q558 -20 424 -20 Q265 -20 174.5 91 Q84 202 84 391 Q84 550 143 686.5 Q202 823 310.5 906 Q419 989 553 989 Q712 989 803.5 878 Q895 767 895 578 ZM764 571 Q764 722 704.5 801.5 Q645 881 545 881 Q453 881 376 811.5 Q299 742 257 631.5 Q215 521 215 399 Q215 246 274 167 Q333 88 434 88 Q527 88 604 157.5 Q681 227 722.5 337.5 Q764 448 764 571 Z" /><glyph glyph-name="pi" unicode="&#x3c0;" d="M981 8 Q926 -12 862 -12 Q702 -12 702 141 Q702 170 713 242 L811 858 L434 858 L299 0 L168 0 L303 858 L117 858 L117 969 L1149 969 L1130 858 L942 858 L844 231 Q838 190 838 162 Q838 100 897 100 Q932 100 981 117 L981 8 Z" /><glyph glyph-name="uni03C1" unicode="&#x3c1;" d="M-2 -375 L143 535 Q179 750 289.5 869.5 Q400 989 571 989 Q730 989 816.5 883.5 Q903 778 903 602 Q903 432 837 291 Q771 150 655 69 Q539 -12 399 -12 Q296 -12 193 35 L131 -350 L-2 -375 ZM268 518 L211 150 Q313 98 397 98 Q552 98 662 241 Q772 384 772 594 Q772 726 718 800 Q664 874 565 874 Q453 874 374.5 778.5 Q296 683 268 518 Z" /><glyph glyph-name="uni03C2" unicode="&#x3c2;" d="M414 12 Q235 85 160.5 173.5 Q86 262 86 424 Q86 576 151.5 707 Q217 838 327.5 913.5 Q438 989 565 989 Q719 989 844 893 L801 768 Q685 872 561 872 Q470 872 390.5 809 Q311 746 265 644.5 Q219 543 219 432 Q219 315 271.5 251 Q324 187 467 127 Q614 64 662.5 22.5 Q711 -19 711 -86 Q711 -150 673 -209.5 Q635 -269 537 -375 L412 -354 Q509 -246 542 -197.5 Q575 -149 575 -113 Q575 -77 545 -53.5 Q515 -30 414 12 Z" /><glyph glyph-name="uni03C3" unicode="&#x3c3;" d="M965 858 L791 858 Q874 702 874 512 Q874 368 816.5 246 Q759 124 655 52 Q551 -20 424 -20 Q263 -20 170.5 91 Q78 202 78 387 Q78 645 240.5 807 Q403 969 664 969 L965 969 L965 858 ZM743 518 Q743 703 655 860 Q457 860 333 728 Q209 596 209 389 Q209 248 270 168 Q331 88 428 88 Q560 88 651.5 212.5 Q743 337 743 518 Z" /><glyph glyph-name="uni03C4" unicode="&#x3c4;" d="M866 858 L528 858 L440 297 Q430 229 430 195 Q430 150 456 123 Q482 96 530 96 Q606 96 688 133 L688 20 Q614 -16 512 -16 Q408 -16 353.5 34.5 Q299 85 299 180 Q299 225 311 299 L399 858 L96 858 L113 969 L866 969 L866 858 Z" /><glyph glyph-name="uni03C5" unicode="&#x3c5;" d="M834 381 Q803 187 701 83.5 Q599 -20 432 -20 Q283 -20 199 65 Q115 150 115 297 Q115 360 127 430 L211 969 L342 969 L256 420 Q248 360 248 307 Q248 209 297 152.5 Q346 96 440 96 Q658 96 705 391 L795 969 L926 969 L834 381 Z" /><glyph glyph-name="uni03C6" unicode="&#x3c6;" d="M434 -375 L492 -10 Q296 9 192 121.5 Q88 234 88 420 Q88 728 375 987 L514 961 Q221 695 221 422 Q221 279 293.5 197 Q366 115 508 100 L594 639 Q618 798 703.5 893.5 Q789 989 926 989 Q1058 989 1134 899 Q1210 809 1210 657 Q1210 472 1130 319.5 Q1050 167 915.5 80 Q781 -7 621 -12 L567 -350 L434 -375 ZM721 623 L637 98 Q826 110 953.5 266 Q1081 422 1081 655 Q1081 763 1039 823 Q997 883 924 883 Q843 883 791.5 813.5 Q740 744 721 623 Z" /><glyph glyph-name="uni03C7" unicode="&#x3c7;" d="M965 969 L526 338 L799 -348 L670 -375 L442 233 L37 -362 L-113 -362 L385 350 L145 958 L274 985 L469 455 L813 969 L965 969 Z" /><glyph glyph-name="uni03C8" unicode="&#x3c8;" d="M612 -350 L479 -375 L537 -8 Q334 4 230 96 Q126 188 123 348 Q123 408 139 496 L213 969 L344 969 L268 492 Q258 423 258 358 Q258 239 329.5 176 Q401 113 555 104 L770 1446 L901 1470 L684 102 Q1033 108 1087 442 L1171 969 L1303 969 L1217 426 Q1184 213 1042.5 103 Q901 -7 666 -10 L612 -350 Z" /><glyph glyph-name="uni03C9" unicode="&#x3c9;" d="M1028 -20 Q959 -20 906 5 Q853 30 820 74 Q787 118 768 171 Q749 224 741 287 Q683 138 592 59 Q501 -20 381 -20 Q242 -20 165 77 Q88 174 88 338 Q88 651 391 987 L510 946 Q358 769 289.5 625 Q221 481 221 340 Q221 228 268 162 Q315 96 393 96 Q509 96 593.5 219 Q678 342 715 586 L748 791 L879 791 L848 590 Q836 504 836 406 Q836 262 888 179 Q940 96 1030 96 Q1142 96 1212 206.5 Q1282 317 1282 494 Q1282 614 1257 719.5 Q1232 825 1176 950 L1300 989 Q1413 736 1413 500 Q1413 273 1305 126.5 Q1197 -20 1028 -20 Z" /><glyph glyph-name="uni03CA" unicode="&#x3ca;" d="M600 1145 L430 1145 L461 1327 L631 1327 L600 1145 ZM248 1145 L78 1145 L109 1327 L276 1327 L248 1145 ZM375 2 Q316 -16 260 -16 Q104 -16 104 139 Q104 162 115 233 L233 969 L365 969 L246 233 Q240 181 240 162 Q240 100 295 100 Q324 100 375 115 L375 2 Z" /><glyph glyph-name="uni03CB" unicode="&#x3cb;" d="M862 1141 L692 1141 L723 1323 L893 1323 L862 1141 ZM510 1141 L340 1141 L371 1323 L539 1323 L510 1141 ZM834 381 Q803 187 701 83.5 Q599 -20 432 -20 Q283 -20 199 65 Q115 150 115 297 Q115 360 127 430 L211 969 L342 969 L256 420 Q248 360 248 307 Q248 209 297 152.5 Q346 96 440 96 Q658 96 705 391 L795 969 L926 969 L834 381 Z" /><glyph glyph-name="uni03CC" unicode="&#x3cc;" d="M793 1432 L612 1126 L528 1126 L629 1432 L793 1432 ZM895 578 Q895 419 835.5 282.5 Q776 146 667 63 Q558 -20 424 -20 Q265 -20 174.5 91 Q84 202 84 391 Q84 550 143 686.5 Q202 823 310.5 906 Q419 989 553 989 Q712 989 803.5 878 Q895 767 895 578 ZM764 571 Q764 722 704.5 801.5 Q645 881 545 881 Q453 881 376 811.5 Q299 742 257 631.5 Q215 521 215 399 Q215 246 274 167 Q333 88 434 88 Q527 88 604 157.5 Q681 227 722.5 337.5 Q764 448 764 571 Z" /><glyph glyph-name="uni03CD" unicode="&#x3cd;" d="M801 1427 L621 1122 L537 1122 L637 1427 L801 1427 ZM834 381 Q803 187 701 83.5 Q599 -20 432 -20 Q283 -20 199 65 Q115 150 115 297 Q115 360 127 430 L211 969 L342 969 L256 420 Q248 360 248 307 Q248 209 297 152.5 Q346 96 440 96 Q658 96 705 391 L795 969 L926 969 L834 381 Z" /><glyph glyph-name="uni03CE" unicode="&#x3ce;" d="M1028 -20 Q959 -20 906 5 Q853 30 820 74 Q787 118 768 171 Q749 224 741 287 Q683 138 592 59 Q501 -20 381 -20 Q242 -20 165 77 Q88 174 88 338 Q88 651 391 987 L510 946 Q358 769 289.5 625 Q221 481 221 340 Q221 228 268 162 Q315 96 393 96 Q509 96 593.5 219 Q678 342 715 586 L748 791 L879 791 L848 590 Q836 504 836 406 Q836 262 888 179 Q940 96 1030 96 Q1142 96 1212 206.5 Q1282 317 1282 494 Q1282 614 1257 719.5 Q1232 825 1176 950 L1300 989 Q1413 736 1413 500 Q1413 273 1305 126.5 Q1197 -20 1028 -20 ZM1073 1427 L893 1122 L809 1122 L909 1427 L1073 1427 Z" /><glyph glyph-name="uni0400" unicode="&#x400;" d="M1016 1413 L995 1288 L444 1288 L367 803 L797 803 L797 676 L346 676 L258 125 L829 125 L811 0 L100 0 L326 1413 L1016 1413 ZM733 1540 L645 1540 L410 1815 L586 1853 L733 1540 Z" /><glyph glyph-name="uni0401" unicode="&#x401;" d="M952 1559 L782 1559 L813 1741 L983 1741 L952 1559 ZM600 1559 L430 1559 L461 1741 L629 1741 L600 1559 ZM1016 1413 L995 1288 L444 1288 L367 803 L797 803 L797 676 L346 676 L258 125 L829 125 L811 0 L100 0 L326 1413 L1016 1413 Z" /><glyph glyph-name="uni0402" unicode="&#x402;" d="M864 -10 L864 113 Q1039 140 1137 233.5 Q1235 327 1235 475 Q1235 603 1159 677.5 Q1083 752 944 752 Q806 752 651 694 L541 0 L403 0 L608 1288 L188 1288 L209 1413 L1180 1413 L1180 1288 L745 1288 L672 827 Q824 877 956 877 Q1151 877 1262.5 769 Q1374 661 1374 483 Q1374 280 1237 146.5 Q1100 13 864 -10 Z" /><glyph glyph-name="uni0403" unicode="&#x403;" d="M1028 1815 L707 1540 L600 1540 L846 1853 L1028 1815 ZM326 1413 L983 1413 L983 1286 L442 1286 L240 0 L100 0 L326 1413 Z" /><glyph glyph-name="uni0404" unicode="&#x404;" d="M1196 1313 L1161 1167 Q1009 1313 829 1313 Q631 1313 485.5 1161.5 Q340 1010 291 778 L971 780 L963 653 L274 653 Q272 628 272 584 Q272 355 380.5 227.5 Q489 100 666 100 Q852 100 1032 223 L1032 84 Q854 -25 655 -25 Q420 -25 276.5 134 Q133 293 133 575 Q133 803 222 1000 Q311 1197 473.5 1317.5 Q636 1438 834 1438 Q1045 1438 1196 1313 Z" /><glyph glyph-name="uni0405" unicode="&#x405;" d="M965 1343 L932 1208 Q779 1313 627 1313 Q501 1313 428.5 1241 Q356 1169 356 1065 Q356 988 408 928.5 Q460 869 590 793 Q760 692 826.5 603 Q893 514 893 391 Q893 205 762.5 93.5 Q632 -18 440 -18 Q331 -18 226.5 14 Q122 46 51 94 L84 229 Q163 170 258 135 Q353 100 449 100 Q580 100 666 176 Q752 252 752 373 Q752 463 705.5 522.5 Q659 582 530 659 Q356 763 287.5 845 Q219 927 219 1049 Q219 1214 335.5 1323 Q452 1432 639 1432 Q821 1432 965 1343 Z" /><glyph glyph-name="uni0406" unicode="&#x406;" d="M477 1413 L252 0 L115 0 L340 1413 L477 1413 Z" /><glyph glyph-name="uni0407" unicode="&#x407;" d="M477 1413 L252 0 L115 0 L340 1413 L477 1413 ZM692 1559 L522 1559 L553 1741 L723 1741 L692 1559 ZM340 1559 L170 1559 L201 1741 L369 1741 L340 1559 Z" /><glyph glyph-name="uni0408" unicode="&#x408;" d="M694 1413 L528 360 Q469 -12 143 -12 Q95 -12 -4 4 L-4 133 Q79 111 141 111 Q246 111 308 170.5 Q370 230 393 367 L557 1413 L694 1413 Z" /><glyph glyph-name="uni0409" unicode="&#x409;" d="M1323 1413 L1231 827 L1372 827 Q1581 827 1692.5 730 Q1804 633 1804 459 Q1804 249 1651 124.5 Q1498 0 1251 0 L961 0 L1165 1290 L727 1290 L596 831 Q549 666 507 546 Q465 426 419.5 334 Q374 242 329.5 182 Q285 122 228.5 80.5 Q172 39 113 17 Q54 -5 -25 -18 L-25 115 Q45 128 97 155.5 Q149 183 197.5 233.5 Q246 284 288.5 368 Q331 452 373.5 571 Q416 690 465 862 L623 1413 L1323 1413 ZM1665 453 Q1665 574 1589.5 639.5 Q1514 705 1362 705 L1210 705 L1116 123 L1262 123 Q1446 123 1555.5 211.5 Q1665 300 1665 453 Z" /><glyph glyph-name="uni040A" unicode="&#x40a;" d="M1298 1413 L1204 825 L1348 825 Q1557 825 1668.5 728.5 Q1780 632 1780 459 Q1780 249 1627 124.5 Q1474 0 1227 0 L936 0 L1044 686 L348 686 L240 0 L100 0 L326 1413 L463 1413 L369 809 L1063 809 L1159 1413 L1298 1413 ZM1638 453 Q1638 574 1563.5 639.5 Q1489 705 1337 705 L1186 705 L1092 123 L1237 123 Q1421 123 1529.5 211.5 Q1638 300 1638 453 Z" /><glyph glyph-name="uni040B" unicode="&#x40b;" d="M1180 1288 L745 1288 L674 844 Q827 874 936 874 Q1136 874 1238.5 785 Q1341 696 1341 524 Q1341 475 1327 365 L1268 0 L1130 0 L1190 373 Q1202 456 1202 514 Q1202 750 918 750 Q799 750 653 719 L541 0 L403 0 L606 1288 L188 1288 L209 1413 L1180 1413 L1180 1288 Z" /><glyph glyph-name="uni040C" unicode="&#x40c;" d="M1126 1804 L805 1530 L698 1530 L944 1843 L1126 1804 ZM1237 1413 L502 750 L1055 18 L909 -14 L354 729 L240 0 L100 0 L326 1413 L463 1413 L360 772 L1057 1413 L1237 1413 Z" /><glyph glyph-name="uni040D" unicode="&#x40d;" d="M887 1530 L799 1530 L563 1804 L739 1843 L887 1530 ZM100 0 L326 1413 L461 1413 L274 238 L1176 1413 L1327 1413 L1102 0 L967 0 L1157 1194 L240 0 L100 0 Z" /><glyph glyph-name="uni040E" unicode="&#x40e;" d="M117 115 Q247 121 341 179.5 Q435 238 516 365 L575 457 L229 1401 L369 1427 L664 588 L1163 1413 L1325 1413 L627 303 Q521 133 399 60 Q277 -13 117 -18 L117 115 ZM1118 1767 Q1091 1662 1014.5 1599 Q938 1536 823 1536 Q706 1536 647 1600 Q588 1664 590 1767 L690 1784 Q698 1722 735.5 1688.5 Q773 1655 836 1655 Q965 1655 1026 1784 L1118 1767 Z" /><glyph glyph-name="uni040F" unicode="&#x40f;" d="M100 0 L326 1413 L463 1413 L258 125 L967 125 L1169 1413 L1309 1413 L1083 0 L662 0 L606 -317 L473 -332 L530 0 L100 0 Z" /><glyph glyph-name="uni0410" unicode="&#x410;" d="M1042 -14 L946 457 L379 457 L141 0 L-6 0 L748 1421 L877 1421 L1176 16 L1042 -14 ZM786 1243 L440 578 L922 578 L786 1243 Z" /><glyph glyph-name="uni0411" unicode="&#x411;" d="M326 1413 L987 1413 L987 1286 L442 1286 L369 817 L526 817 Q734 817 842 723 Q950 629 950 457 Q950 253 801 126.5 Q652 0 414 0 L100 0 L326 1413 ZM809 451 Q809 694 516 694 L348 694 L256 123 L422 123 Q598 123 703.5 211 Q809 299 809 451 Z" /><glyph glyph-name="uni0412" unicode="&#x412;" d="M1008 1098 Q1008 969 934 878 Q860 787 739 743 Q969 651 969 436 Q969 233 825 116.5 Q681 0 446 0 L100 0 L326 1413 L625 1413 Q806 1413 907 1329 Q1008 1245 1008 1098 ZM868 1083 Q868 1182 803.5 1238 Q739 1294 614 1294 L442 1294 L365 799 L520 799 Q671 799 769.5 877 Q868 955 868 1083 ZM829 428 Q829 548 744 615 Q659 682 502 682 L346 682 L256 119 L461 119 Q631 119 730 201 Q829 283 829 428 Z" /><glyph glyph-name="uni0413" unicode="&#x413;" d="M326 1413 L983 1413 L983 1286 L442 1286 L240 0 L100 0 L326 1413 Z" /><glyph glyph-name="uni0414" unicode="&#x414;" d="M-68 -326 L8 143 Q234 327 373 546 Q512 765 604 1098 L692 1413 L1362 1413 L1157 127 L1290 127 L1223 -313 L1087 -334 L1141 0 L115 0 L63 -326 L-68 -326 ZM1020 121 L1206 1292 L793 1292 L733 1077 Q686 901 625.5 756.5 Q565 612 492 497.5 Q419 383 339.5 293.5 Q260 204 162 121 L1020 121 Z" /><glyph glyph-name="uni0415" unicode="&#x415;" d="M1016 1413 L995 1288 L444 1288 L367 803 L797 803 L797 676 L346 676 L258 125 L829 125 L811 0 L100 0 L326 1413 L1016 1413 Z" /><glyph glyph-name="uni0416" unicode="&#x416;" d="M252 1395 L391 1430 L860 766 L961 1413 L1098 1413 L989 766 L1636 1413 L1815 1413 L1124 741 L1636 20 L1497 -14 L983 727 L872 0 L735 0 L854 727 L143 0 L-35 0 L721 754 L252 1395 Z" /><glyph glyph-name="uni0417" unicode="&#x417;" d="M1022 1100 Q1022 956 933.5 864.5 Q845 773 688 729 Q811 686 874.5 603 Q938 520 938 401 Q938 224 797.5 100 Q657 -24 436 -23 Q226 -20 23 102 L66 227 Q258 100 442 100 Q600 100 698.5 188.5 Q797 277 797 403 Q797 532 699.5 606 Q602 680 436 680 L324 680 L324 803 L465 803 Q657 803 769 881.5 Q881 960 881 1092 Q881 1193 812.5 1253 Q744 1313 618 1313 Q446 1313 238 1194 L238 1329 Q428 1436 627 1436 Q808 1436 915 1343.5 Q1022 1251 1022 1100 Z" /><glyph glyph-name="uni0418" unicode="&#x418;" d="M100 0 L326 1413 L461 1413 L274 238 L1176 1413 L1327 1413 L1102 0 L967 0 L1157 1194 L240 0 L100 0 Z" /><glyph glyph-name="uni0419" unicode="&#x419;" d="M100 0 L326 1413 L461 1413 L274 238 L1176 1413 L1327 1413 L1102 0 L967 0 L1157 1194 L240 0 L100 0 ZM1141 1767 Q1114 1662 1037.5 1599 Q961 1536 846 1536 Q728 1536 669 1600 Q610 1664 612 1767 L713 1784 Q721 1722 758 1688.5 Q795 1655 858 1655 Q988 1655 1049 1784 L1141 1767 Z" /><glyph glyph-name="uni041A" unicode="&#x41a;" d="M1237 1413 L502 750 L1055 18 L909 -14 L354 729 L240 0 L100 0 L326 1413 L463 1413 L360 772 L1057 1413 L1237 1413 Z" /><glyph glyph-name="uni041B" unicode="&#x41b;" d="M1323 1413 L1098 0 L961 0 L1167 1290 L727 1290 L596 831 Q549 666 507 546 Q465 426 419.5 334 Q374 242 329.5 182 Q285 122 228.5 80.5 Q172 39 113 17 Q54 -5 -25 -18 L-25 115 Q45 128 97 155.5 Q149 183 197.5 233.5 Q246 284 288.5 368 Q331 452 373.5 571 Q416 690 465 862 L623 1413 L1323 1413 Z" /><glyph glyph-name="uni041C" unicode="&#x41c;" d="M1657 1413 L1546 0 L1413 0 L1511 1210 L854 -8 L756 -8 L483 1210 L199 0 L72 0 L408 1413 L573 1413 L838 195 L1485 1413 L1657 1413 Z" /><glyph glyph-name="uni041D" unicode="&#x41d;" d="M1319 1413 L1094 0 L956 0 L1063 676 L346 676 L240 0 L100 0 L326 1413 L463 1413 L367 801 L1083 801 L1180 1413 L1319 1413 Z" /><glyph glyph-name="uni041E" unicode="&#x41e;" d="M668 -27 Q502 -27 380 55 Q258 137 196.5 276.5 Q135 416 135 594 Q135 792 203 964.5 Q271 1137 391 1257 Q577 1440 825 1440 Q990 1440 1112 1358 Q1234 1276 1296 1136.5 Q1358 997 1358 819 Q1358 622 1289.5 449.5 Q1221 277 1100 156 Q917 -27 668 -27 ZM672 94 Q852 94 999 238 Q1100 340 1157 490.5 Q1214 641 1214 817 Q1214 1046 1109 1182.5 Q1004 1319 819 1319 Q637 1319 494 1176 Q393 1073 334.5 922.5 Q276 772 276 596 Q276 367 381.5 230.5 Q487 94 672 94 Z" /><glyph glyph-name="uni041F" unicode="&#x41f;" d="M1309 1413 L1083 0 L946 0 L1151 1288 L444 1288 L240 0 L100 0 L326 1413 L1309 1413 Z" /><glyph glyph-name="uni0420" unicode="&#x420;" d="M1038 1049 Q1038 842 890 719 Q742 596 494 596 L334 596 L240 0 L100 0 L326 1413 L602 1413 Q812 1413 925 1317 Q1038 1221 1038 1049 ZM899 1040 Q899 1160 823.5 1225 Q748 1290 596 1290 L444 1290 L354 719 L502 719 Q691 719 795 805.5 Q899 892 899 1040 Z" /><glyph glyph-name="uni0421" unicode="&#x421;" d="M1196 1313 L1161 1167 Q1009 1313 829 1313 Q709 1313 604.5 1253.5 Q500 1194 428 1094 Q356 994 315 861.5 Q274 729 274 586 Q274 356 382 228 Q490 100 666 100 Q852 100 1032 223 L1032 84 Q854 -25 655 -25 Q420 -25 276.5 134 Q133 293 133 575 Q133 803 222 1000 Q311 1197 473.5 1317.5 Q636 1438 834 1438 Q1045 1438 1196 1313 Z" /><glyph glyph-name="uni0422" unicode="&#x422;" d="M1188 1288 L754 1288 L549 0 L412 0 L616 1288 L188 1288 L209 1413 L1188 1413 L1188 1288 Z" /><glyph glyph-name="uni0423" unicode="&#x423;" d="M117 115 Q247 121 341 179.5 Q435 238 516 365 L575 457 L229 1401 L369 1427 L664 588 L1163 1413 L1325 1413 L627 303 Q521 133 399 60 Q277 -13 117 -18 L117 115 Z" /><glyph glyph-name="uni0424" unicode="&#x424;" d="M842 -27 L705 -27 L731 139 Q442 154 280.5 290 Q119 426 119 657 Q119 785 175 898.5 Q231 1012 332.5 1095.5 Q434 1179 583.5 1229 Q733 1279 911 1282 L938 1440 L1073 1440 L1047 1282 Q1335 1265 1496 1129 Q1657 993 1657 764 Q1657 635 1600.5 521.5 Q1544 408 1443 324.5 Q1342 241 1193 191 Q1044 141 866 137 L842 -27 ZM260 659 Q260 476 384.5 374 Q509 272 752 260 L895 1163 Q605 1154 432.5 1010 Q260 866 260 659 ZM1516 762 Q1516 944 1392 1046 Q1268 1148 1026 1161 L885 258 Q1030 262 1150 303.5 Q1270 345 1349.5 413 Q1429 481 1472.5 571 Q1516 661 1516 762 Z" /><glyph glyph-name="uni0425" unicode="&#x425;" d="M1255 1413 L725 737 L1073 18 L932 -12 L633 635 L147 0 L-10 0 L573 741 L260 1395 L399 1423 L664 844 L1098 1413 L1255 1413 Z" /><glyph glyph-name="uni0426" unicode="&#x426;" d="M100 0 L326 1413 L463 1413 L258 125 L961 125 L1165 1413 L1303 1413 L1100 127 L1233 127 L1163 -313 L1030 -334 L1083 0 L100 0 Z" /><glyph glyph-name="uni0427" unicode="&#x427;" d="M918 0 L778 0 L866 553 Q711 526 606 526 Q406 526 303.5 615.5 Q201 705 201 877 Q201 927 215 1034 L276 1413 L414 1413 L352 1028 Q340 946 340 887 Q340 651 625 651 Q741 651 887 682 L1004 1413 L1141 1413 L918 0 Z" /><glyph glyph-name="uni0428" unicode="&#x428;" d="M260 125 L821 125 L1026 1413 L1163 1413 L961 125 L1524 125 L1726 1413 L1866 1413 L1640 0 L100 0 L326 1413 L463 1413 L260 125 Z" /><glyph glyph-name="uni0429" unicode="&#x429;" d="M260 125 L821 125 L1026 1413 L1163 1413 L958 125 L1520 125 L1724 1413 L1864 1413 L1659 127 L1792 127 L1722 -313 L1589 -334 L1642 0 L100 0 L326 1413 L463 1413 L260 125 Z" /><glyph glyph-name="uni042A" unicode="&#x42a;" d="M743 1413 L651 827 L795 827 Q1003 827 1114 730 Q1225 633 1225 459 Q1225 249 1072.5 124.5 Q920 0 672 0 L381 0 L586 1288 L172 1288 L195 1413 L743 1413 ZM1085 453 Q1085 574 1010 639.5 Q935 705 784 705 L631 705 L537 123 L684 123 Q867 123 976 211.5 Q1085 300 1085 453 Z" /><glyph glyph-name="uni042B" unicode="&#x42b;" d="M1460 1413 L1235 0 L1098 0 L1323 1413 L1460 1413 ZM463 1413 L371 827 L514 827 Q722 827 833 730 Q944 633 944 459 Q944 249 791.5 124.5 Q639 0 391 0 L100 0 L326 1413 L463 1413 ZM805 453 Q805 574 730 639.5 Q655 705 504 705 L350 705 L256 123 L403 123 Q586 123 695.5 211.5 Q805 300 805 453 Z" /><glyph glyph-name="uni042C" unicode="&#x42c;" d="M463 1413 L371 827 L514 827 Q722 827 833 730 Q944 633 944 459 Q944 249 791.5 124.5 Q639 0 391 0 L100 0 L326 1413 L463 1413 ZM805 453 Q805 574 730 639.5 Q655 705 504 705 L350 705 L256 123 L403 123 Q586 123 695.5 211.5 Q805 300 805 453 Z" /><glyph glyph-name="uni042D" unicode="&#x42d;" d="M319 653 L319 780 L979 778 Q981 794 981 827 Q981 1056 872.5 1183.5 Q764 1311 588 1311 Q416 1311 240 1196 L240 1335 Q415 1436 596 1436 Q832 1436 976 1277 Q1120 1118 1120 836 Q1120 640 1051 463 Q982 286 860 164 Q669 -27 422 -27 Q203 -27 39 117 L74 256 Q160 178 244.5 139 Q329 100 426 100 Q558 100 672.5 174.5 Q787 249 861.5 374 Q936 499 965 653 L319 653 Z" /><glyph glyph-name="uni042E" unicode="&#x42e;" d="M1141 -27 Q908 -27 774.5 141.5 Q641 310 643 592 Q643 634 645 657 L344 657 L240 0 L100 0 L326 1413 L463 1413 L365 782 L662 782 Q690 927 752.5 1051.5 Q815 1176 903 1264 Q1079 1440 1313 1440 Q1546 1440 1679 1271.5 Q1812 1103 1810 821 Q1809 620 1739 444.5 Q1669 269 1550 150 Q1373 -27 1141 -27 ZM1309 1319 Q1143 1319 1006 1182 Q906 1082 845.5 927.5 Q785 773 782 592 Q780 361 877.5 227.5 Q975 94 1145 94 Q1309 94 1446 231 Q1546 331 1606 485.5 Q1666 640 1667 821 Q1669 1052 1573.5 1185.5 Q1478 1319 1309 1319 Z" /><glyph glyph-name="uni042F" unicode="&#x42f;" d="M123 -14 L-20 18 L492 641 Q376 678 312 764.5 Q248 851 248 975 Q248 1170 393 1291.5 Q538 1413 782 1413 L1087 1413 L862 0 L725 0 L823 616 L668 616 L633 616 L123 -14 ZM387 979 Q387 861 466 798 Q545 735 696 735 L842 735 L930 1290 L774 1290 Q593 1290 490 1203.5 Q387 1117 387 979 Z" /><glyph glyph-name="uni0430" unicode="&#x430;" d="M680 201 Q575 91 493.5 35.5 Q412 -20 332 -20 Q215 -20 147.5 65 Q80 150 80 305 Q80 449 124.5 576 Q169 703 243.5 792 Q318 881 418.5 932 Q519 983 629 983 Q763 983 907 922 L803 281 L803 0 L690 0 L680 201 ZM682 334 L766 842 Q700 870 612 870 Q535 870 462.5 829 Q390 788 335 717 Q280 646 246.5 541.5 Q213 437 213 317 Q213 209 250 151.5 Q287 94 354 94 Q415 94 489.5 150.5 Q564 207 682 334 Z" /><glyph glyph-name="uni0431" unicode="&#x431;" d="M928 1470 L946 1350 L678 1307 Q532 1282 459 1206 Q348 1092 289 815 Q398 907 478 946 Q558 985 645 985 Q782 985 854.5 890.5 Q927 796 924 625 Q920 445 856.5 297 Q793 149 684 64.5 Q575 -20 444 -20 Q284 -20 201.5 97 Q119 214 119 422 Q119 696 186 934.5 Q253 1173 367 1288 Q468 1392 672 1427 L928 1470 ZM621 872 Q550 872 470 829 Q390 786 266 680 Q250 546 250 418 Q250 264 302 176 Q354 88 453 88 Q541 88 617.5 157 Q694 226 741 347 Q788 468 791 612 Q794 872 621 872 Z" /><glyph glyph-name="uni0432" unicode="&#x432;" d="M80 37 L221 932 Q394 989 557 989 Q715 989 798 920 Q881 851 879 748 Q879 661 825.5 597 Q772 533 680 500 Q759 473 801.5 420 Q844 367 844 293 Q844 155 722.5 67.5 Q601 -20 395 -20 Q230 -20 80 37 ZM403 88 Q543 88 629 144 Q715 200 715 293 Q715 367 658.5 410 Q602 453 492 453 L272 453 L221 115 Q307 88 403 88 ZM494 555 Q609 555 679.5 606 Q750 657 750 735 Q750 802 698 842.5 Q646 883 547 883 Q444 883 336 850 L289 555 L494 555 Z" /><glyph glyph-name="uni0433" unicode="&#x433;" d="M205 899 Q365 989 516 989 Q634 989 701 932 Q768 875 768 776 Q768 659 693 588 Q618 517 442 451 Q288 393 232 343.5 Q176 294 176 219 Q176 162 217 126 Q258 90 330 90 Q475 90 666 209 L659 82 Q480 -20 317 -20 Q190 -20 119.5 42 Q49 104 49 209 Q49 331 127 406.5 Q205 482 399 555 Q538 610 588.5 654.5 Q639 699 639 764 Q639 815 603 846 Q567 877 504 877 Q377 877 199 772 L205 899 Z" /><glyph glyph-name="uni0434" unicode="&#x434;" d="M442 1323 L463 1442 Q527 1462 610 1462 Q795 1462 880 1348.5 Q965 1235 965 997 Q965 726 892.5 478.5 Q820 231 696 104 Q571 -18 408 -18 Q257 -18 169.5 82.5 Q82 183 82 352 Q82 517 146.5 662 Q211 807 329.5 897 Q448 987 592 987 Q711 987 834 915 Q834 928 835 953.5 Q836 979 836 991 Q836 1175 779 1261.5 Q722 1348 590 1348 Q519 1348 442 1323 ZM600 178 Q681 259 741 427 Q801 595 823 795 Q701 877 592 877 Q488 877 400 801 Q312 725 263.5 605 Q215 485 215 354 Q215 228 268.5 158 Q322 88 416 88 Q510 88 600 178 Z" /><glyph glyph-name="uni0435" unicode="&#x435;" d="M453 92 Q528 92 599.5 122.5 Q671 153 760 217 L760 90 Q601 -20 438 -20 Q268 -20 175 88 Q82 196 82 383 Q82 514 119.5 628.5 Q157 743 219.5 821 Q282 899 365 944 Q448 989 537 989 Q681 989 759.5 894 Q838 799 838 629 Q838 569 823 481 L219 481 Q215 423 215 391 Q215 250 278 171 Q341 92 453 92 ZM528 885 Q433 885 354 802 Q275 719 238 582 L705 582 Q717 727 672.5 806 Q628 885 528 885 Z" /><glyph glyph-name="uni0436" unicode="&#x436;" d="M129 0 L-35 0 L489 518 L143 956 L281 981 L623 522 L688 969 L819 969 L745 522 L1206 969 L1370 969 L874 504 L1247 12 L1110 -12 L741 500 L666 0 L535 0 L618 500 L129 0 Z" /><glyph glyph-name="uni0437" unicode="&#x437;" d="M166 784 L166 903 Q334 987 504 987 Q658 987 738.5 921 Q819 855 819 748 Q817 653 756.5 586 Q696 519 580 487 Q671 465 716.5 409.5 Q762 354 762 279 Q762 148 651 64 Q540 -20 362 -20 Q186 -20 12 74 L51 186 Q210 92 369 92 Q485 92 557 142 Q629 192 629 274 Q629 352 567 395 Q505 438 381 438 L250 438 L250 551 L391 551 Q534 551 610 601 Q686 651 686 733 Q686 797 634.5 837 Q583 877 487 877 Q350 877 166 784 Z" /><glyph glyph-name="uni0438" unicode="&#x438;" d="M100 195 Q100 222 109 301 L217 969 L348 969 L240 299 Q231 234 231 213 Q231 161 260.5 129.5 Q290 98 346 98 Q410 98 488.5 156.5 Q567 215 698 354 L793 969 L924 969 L813 281 L813 0 L698 0 L688 215 Q575 95 490.5 37.5 Q406 -20 317 -20 Q214 -20 157 35.5 Q100 91 100 195 Z" /><glyph glyph-name="uni0439" unicode="&#x439;" d="M100 195 Q100 222 109 301 L217 969 L348 969 L240 299 Q231 234 231 213 Q231 161 260.5 129.5 Q290 98 346 98 Q410 98 488.5 156.5 Q567 215 698 354 L793 969 L924 969 L813 281 L813 0 L698 0 L688 215 Q575 95 490.5 37.5 Q406 -20 317 -20 Q214 -20 157 35.5 Q100 91 100 195 ZM887 1354 Q860 1249 783.5 1185.5 Q707 1122 592 1122 Q475 1122 415.5 1186.5 Q356 1251 358 1354 L459 1370 Q467 1308 504 1274.5 Q541 1241 604 1241 Q734 1241 795 1370 L887 1354 Z" /><glyph glyph-name="uni043A" unicode="&#x43a;" d="M657 -14 L283 496 L207 0 L76 0 L229 969 L360 969 L287 524 L737 969 L911 969 L422 504 L795 12 L657 -14 Z" /><glyph glyph-name="uni043B" unicode="&#x43b;" d="M2 -8 L2 111 Q86 120 131.5 157.5 Q177 195 219 293 L397 707 Q457 849 546.5 916 Q636 983 776 983 Q892 983 999 944 L848 0 L717 0 L854 860 Q813 872 764 872 Q679 872 619.5 822.5 Q560 773 514 666 L338 252 Q279 114 205 56 Q131 -2 2 -8 Z" /><glyph glyph-name="uni043C" unicode="&#x43c;" d="M1219 0 L1087 0 L1159 823 L690 -6 L567 -6 L358 823 L174 0 L45 0 L274 969 L446 969 L651 141 L1118 969 L1290 969 L1219 0 Z" /><glyph glyph-name="uni043D" unicode="&#x43d;" d="M674 0 L745 446 L276 446 L207 0 L76 0 L229 969 L360 969 L297 561 L764 561 L829 969 L961 969 L805 0 L674 0 Z" /><glyph glyph-name="uni043E" unicode="&#x43e;" d="M895 578 Q895 419 835.5 282.5 Q776 146 667 63 Q558 -20 424 -20 Q265 -20 174.5 91 Q84 202 84 391 Q84 550 143 686.5 Q202 823 310.5 906 Q419 989 553 989 Q712 989 803.5 878 Q895 767 895 578 ZM764 571 Q764 722 704.5 801.5 Q645 881 545 881 Q453 881 376 811.5 Q299 742 257 631.5 Q215 521 215 399 Q215 246 274 167 Q333 88 434 88 Q527 88 604 157.5 Q681 227 722.5 337.5 Q764 448 764 571 Z" /><glyph glyph-name="uni043F" unicode="&#x43f;" d="M901 774 Q901 738 893 668 L784 0 L653 0 L762 670 Q770 728 770 758 Q770 810 740.5 840 Q711 870 655 870 Q591 870 512 811.5 Q433 753 303 614 L209 0 L78 0 L188 688 L188 969 L303 969 L313 754 Q426 874 510.5 931.5 Q595 989 684 989 Q787 989 844 933.5 Q901 878 901 774 Z" /><glyph glyph-name="uni0440" unicode="&#x440;" d="M16 -375 L188 688 L188 969 L303 969 L313 793 Q402 892 478 940.5 Q554 989 641 989 Q768 989 844 895.5 Q920 802 920 633 Q920 445 848 296.5 Q776 148 655.5 68 Q535 -12 391 -12 Q301 -12 209 18 L152 -350 L16 -375 ZM229 133 Q313 98 397 98 Q559 98 672.5 241.5 Q786 385 786 621 Q786 740 741.5 807 Q697 874 616 874 Q551 874 481 824.5 Q411 775 313 666 L229 133 Z" /><glyph glyph-name="uni0441" unicode="&#x441;" d="M825 907 L791 780 Q673 874 565 874 Q470 874 389 807 Q308 740 262.5 631 Q217 522 217 401 Q217 252 282.5 173 Q348 94 465 94 Q579 94 713 186 L713 63 Q591 -20 451 -20 Q282 -20 183 88 Q84 196 84 389 Q82 546 145 684 Q208 822 321 905.5 Q434 989 569 989 Q706 989 825 907 Z" /><glyph glyph-name="uni0442" unicode="&#x442;" d="M1458 774 Q1458 756 1448 668 L1341 0 L1210 0 L1317 670 Q1325 724 1325 758 Q1325 812 1298.5 841 Q1272 870 1221 870 Q1156 870 1076.5 811 Q997 752 870 614 L774 0 L643 0 L750 670 Q758 724 758 758 Q758 810 731 840 Q704 870 653 870 Q589 870 511 812 Q433 754 303 614 L209 0 L78 0 L188 688 L188 969 L303 969 L313 754 Q426 874 510.5 931.5 Q595 989 684 989 Q784 989 836.5 932 Q889 875 889 780 L889 764 Q992 877 1076 933 Q1160 989 1249 989 Q1349 989 1403.5 931.5 Q1458 874 1458 774 Z" /><glyph glyph-name="uni0443" unicode="&#x443;" d="M936 969 L381 -135 Q316 -265 245.5 -317 Q175 -369 70 -369 Q68 -369 12 -362 L12 -246 Q58 -254 86 -254 Q141 -254 182 -222.5 Q223 -191 260 -121 L328 8 L131 956 L262 981 L416 164 L795 969 L936 969 Z" /><glyph glyph-name="uni0444" unicode="&#x444;" d="M877 1188 L825 862 Q943 987 1055 987 Q1173 987 1247 888 Q1321 789 1321 616 Q1321 442 1264.5 296.5 Q1208 151 1109 66.5 Q1010 -18 891 -18 Q777 -18 705 88 L668 -150 Q648 -268 589 -318.5 Q530 -369 426 -369 Q421 -369 340 -360 L340 -244 Q382 -254 420 -254 Q524 -254 541 -137 L580 104 Q521 43 466 12.5 Q411 -18 350 -18 Q232 -18 159 80.5 Q86 179 86 352 Q86 526 142 671.5 Q198 817 296.5 902 Q395 987 514 987 Q624 987 700 881 L754 1210 Q774 1340 842.5 1401 Q911 1462 1038 1462 Q1080 1462 1126 1454 L1126 1335 Q1080 1343 1042 1343 Q967 1343 929 1306.5 Q891 1270 877 1188 ZM373 96 Q425 96 477 129.5 Q529 163 602 244 L682 750 Q643 814 606 844 Q569 874 518 874 Q438 874 368.5 805.5 Q299 737 258 619.5 Q217 502 217 367 Q217 238 259.5 167 Q302 96 373 96 ZM1032 872 Q979 872 926.5 838.5 Q874 805 803 723 L725 217 Q761 154 799 124 Q837 94 887 94 Q968 94 1037.5 163 Q1107 232 1147.5 349.5 Q1188 467 1188 604 Q1188 733 1145.5 802.5 Q1103 872 1032 872 Z" /><glyph glyph-name="uni0445" unicode="&#x445;" d="M893 969 L522 498 L762 10 L633 -14 L440 403 L137 0 L-10 0 L381 502 L162 958 L291 985 L465 598 L745 969 L893 969 Z" /><glyph glyph-name="uni0446" unicode="&#x446;" d="M715 -315 L766 0 L655 0 L688 215 Q575 95 490.5 37.5 Q406 -20 317 -20 Q214 -20 157 35.5 Q100 91 100 195 Q100 222 109 301 L217 969 L348 969 L240 299 Q231 234 231 213 Q231 161 260.5 129.5 Q290 98 346 98 Q410 98 488.5 156.5 Q567 215 698 354 L795 969 L926 969 L791 115 L907 115 L842 -295 L715 -315 Z" /><glyph glyph-name="uni0447" unicode="&#x447;" d="M184 969 L315 969 L272 700 Q264 643 264 604 Q264 453 469 453 Q565 453 653 475 L733 969 L864 969 L709 0 L578 0 L635 358 Q536 334 438 334 Q292 334 212.5 400.5 Q133 467 133 592 Q133 639 143 711 L184 969 Z" /><glyph glyph-name="uni0448" unicode="&#x448;" d="M96 195 Q96 214 106 301 L213 969 L344 969 L238 299 Q229 238 229 211 Q229 157 256 127.5 Q283 98 334 98 Q398 98 477 156.5 Q556 215 684 354 L780 969 L911 969 L805 299 Q797 245 797 211 Q797 158 823.5 128 Q850 98 901 98 Q965 98 1043 156 Q1121 214 1251 354 L1346 969 L1477 969 L1366 281 L1366 0 L1251 0 L1241 215 Q1128 95 1043.5 37.5 Q959 -20 870 -20 Q770 -20 718 36.5 Q666 93 666 188 L666 205 Q563 92 478.5 36 Q394 -20 305 -20 Q205 -20 150.5 37.5 Q96 95 96 195 Z" /><glyph glyph-name="uni0449" unicode="&#x449;" d="M1268 -315 L1319 0 L1210 0 L1241 215 Q1130 96 1045 38 Q960 -20 870 -20 Q771 -20 719.5 36 Q668 92 666 188 Q666 197 668 205 Q563 91 479 35.5 Q395 -20 305 -20 Q205 -20 151.5 37.5 Q98 95 98 195 Q98 237 109 301 L215 969 L346 969 L240 299 Q231 238 231 213 Q231 98 336 98 Q400 98 477 156 Q554 214 686 354 L782 969 L911 969 L807 299 Q799 245 799 213 Q799 160 825.5 129 Q852 98 903 98 Q966 98 1044 157 Q1122 216 1251 354 L1348 969 L1479 969 L1343 115 L1460 115 L1395 -295 L1268 -315 Z" /><glyph glyph-name="uni044A" unicode="&#x44a;" d="M258 33 L389 854 L94 854 L111 969 L537 969 L479 604 Q556 621 629 621 Q781 621 869.5 550.5 Q958 480 958 350 Q958 191 835 85.5 Q712 -20 518 -20 Q378 -20 258 33 ZM827 340 Q827 419 772.5 465.5 Q718 512 612 512 Q538 512 461 494 L399 109 Q458 90 526 90 Q659 90 743 160.5 Q827 231 827 340 Z" /><glyph glyph-name="uni044B" unicode="&#x44b;" d="M80 33 L229 969 L358 969 L301 604 Q378 621 451 621 Q603 621 691.5 550.5 Q780 480 780 350 Q780 191 657 85.5 Q534 -20 340 -20 Q200 -20 80 33 ZM649 340 Q649 419 594.5 465.5 Q540 512 434 512 Q360 512 283 494 L221 109 Q280 90 348 90 Q481 90 565 160.5 Q649 231 649 340 ZM1192 969 L1036 0 L905 0 L1061 969 L1192 969 Z" /><glyph glyph-name="uni044C" unicode="&#x44c;" d="M80 33 L229 969 L358 969 L301 604 Q378 621 451 621 Q603 621 691.5 550.5 Q780 480 780 350 Q780 191 657 85.5 Q534 -20 340 -20 Q200 -20 80 33 ZM649 340 Q649 419 594.5 465.5 Q540 512 434 512 Q360 512 283 494 L221 109 Q280 90 348 90 Q481 90 565 160.5 Q649 231 649 340 Z" /><glyph glyph-name="uni044D" unicode="&#x44d;" d="M23 70 L55 190 Q170 92 289 92 Q407 92 500.5 189.5 Q594 287 627 432 L233 430 L233 547 L643 545 L643 567 Q643 715 577.5 796 Q512 877 397 877 Q281 877 158 791 L158 915 Q275 989 412 989 Q579 989 677 881.5 Q775 774 776 582 Q777 422 714.5 284 Q652 146 538 63 Q424 -20 285 -20 Q143 -20 23 70 Z" /><glyph glyph-name="uni044E" unicode="&#x44e;" d="M1268 582 Q1268 425 1210 288 Q1152 151 1045 65.5 Q938 -20 807 -20 Q653 -20 565 90.5 Q477 201 477 387 Q477 429 479 449 L276 449 L207 0 L76 0 L229 969 L360 969 L297 561 L496 561 Q539 746 658.5 867.5 Q778 989 936 989 Q1090 989 1179 878.5 Q1268 768 1268 582 ZM1137 578 Q1137 727 1081 804 Q1025 881 932 881 Q840 881 764.5 809.5 Q689 738 648.5 627 Q608 516 608 393 Q608 243 664.5 165.5 Q721 88 815 88 Q906 88 981 159.5 Q1056 231 1096.5 343 Q1137 455 1137 578 Z" /><glyph glyph-name="uni044F" unicode="&#x44f;" d="M-14 18 L344 393 Q258 423 209 488 Q160 553 160 645 Q160 794 288.5 889.5 Q417 985 629 985 Q779 985 901 940 L752 0 L621 0 L682 371 L500 371 L479 371 L127 -10 L-14 18 ZM698 481 L758 852 Q690 872 610 872 Q463 872 377 807.5 Q291 743 291 647 Q291 567 349 524 Q407 481 514 481 L698 481 Z" /><glyph glyph-name="uni0450" unicode="&#x450;" d="M453 92 Q528 92 599.5 122.5 Q671 153 760 217 L760 90 Q601 -20 438 -20 Q268 -20 175 88 Q82 196 82 383 Q82 514 119.5 628.5 Q157 743 219.5 821 Q282 899 365 944 Q448 989 537 989 Q681 989 759.5 894 Q838 799 838 629 Q838 569 823 481 L219 481 Q215 423 215 391 Q215 250 278 171 Q341 92 453 92 ZM528 885 Q433 885 354 802 Q275 719 238 582 L705 582 Q717 727 672.5 806 Q628 885 528 885 ZM616 1126 L528 1126 L293 1401 L469 1440 L616 1126 Z" /><glyph glyph-name="uni0451" unicode="&#x451;" d="M453 92 Q528 92 599.5 122.5 Q671 153 760 217 L760 90 Q601 -20 438 -20 Q268 -20 175 88 Q82 196 82 383 Q82 514 119.5 628.5 Q157 743 219.5 821 Q282 899 365 944 Q448 989 537 989 Q681 989 759.5 894 Q838 799 838 629 Q838 569 823 481 L219 481 Q215 423 215 391 Q215 250 278 171 Q341 92 453 92 ZM528 885 Q433 885 354 802 Q275 719 238 582 L705 582 Q717 727 672.5 806 Q628 885 528 885 ZM836 1145 L666 1145 L696 1327 L866 1327 L836 1145 ZM483 1145 L313 1145 L344 1327 L512 1327 L483 1145 Z" /><glyph glyph-name="uni0452" unicode="&#x452;" d="M729 1114 L395 1114 L344 788 Q465 819 561 819 Q715 819 799 737 Q883 655 883 500 Q883 319 793.5 115 Q704 -89 506 -375 L377 -352 Q575 -64 662.5 134.5 Q750 333 750 492 Q750 700 528 700 Q426 700 324 670 L217 0 L86 0 L262 1114 L66 1114 L66 1223 L281 1223 L315 1446 L451 1470 L412 1223 L748 1223 L729 1114 Z" /><glyph glyph-name="uni0453" unicode="&#x453;" d="M870 1401 L549 1126 L442 1126 L688 1440 L870 1401 ZM205 899 Q365 989 516 989 Q634 989 701 932 Q768 875 768 776 Q768 659 693 588 Q618 517 442 451 Q288 393 232 343.5 Q176 294 176 219 Q176 162 217 126 Q258 90 330 90 Q475 90 666 209 L659 82 Q480 -20 317 -20 Q190 -20 119.5 42 Q49 104 49 209 Q49 331 127 406.5 Q205 482 399 555 Q538 610 588.5 654.5 Q639 699 639 764 Q639 815 603 846 Q567 877 504 877 Q377 877 199 772 L205 899 Z" /><glyph glyph-name="uni0454" unicode="&#x454;" d="M825 907 L791 780 Q669 877 565 877 Q449 877 357.5 782.5 Q266 688 231 545 L629 547 L629 430 L215 432 L215 401 Q215 252 281 172 Q347 92 465 92 Q576 92 713 186 L713 63 Q591 -20 451 -20 Q282 -20 183 88 Q84 196 84 389 Q82 547 144.5 685 Q207 823 320 906 Q433 989 569 989 Q706 989 825 907 Z" /><glyph glyph-name="uni0455" unicode="&#x455;" d="M719 913 L684 788 Q551 877 440 877 Q359 877 310.5 835.5 Q262 794 262 733 Q262 682 297 646.5 Q332 611 428 563 Q569 493 623.5 432.5 Q678 372 678 272 Q678 138 587.5 59 Q497 -20 348 -20 Q167 -20 16 86 L53 209 Q200 92 358 92 Q440 92 495.5 139 Q551 186 551 258 Q551 317 514 353 Q477 389 369 444 Q243 508 190 566.5 Q137 625 137 717 Q137 840 223 914.5 Q309 989 449 989 Q587 989 719 913 Z" /><glyph glyph-name="uni0456" unicode="&#x456;" d="M455 1298 Q455 1259 425.5 1230.5 Q396 1202 356 1202 Q317 1202 288.5 1230.5 Q260 1259 260 1298 Q260 1339 288.5 1368 Q317 1397 356 1397 Q396 1397 425.5 1368 Q455 1339 455 1298 ZM371 969 L215 0 L84 0 L240 969 L371 969 Z" /><glyph glyph-name="uni0457" unicode="&#x457;" d="M594 1145 L424 1145 L455 1327 L625 1327 L594 1145 ZM242 1145 L72 1145 L102 1327 L270 1327 L242 1145 ZM371 969 L215 0 L84 0 L240 969 L371 969 Z" /><glyph glyph-name="uni0458" unicode="&#x458;" d="M455 1298 Q455 1259 425.5 1230.5 Q396 1202 356 1202 Q317 1202 288.5 1230.5 Q260 1259 260 1298 Q260 1339 288.5 1368 Q317 1397 356 1397 Q396 1397 425.5 1368 Q455 1339 455 1298 ZM371 969 L193 -150 Q173 -267 113 -318 Q53 -369 -49 -369 Q-56 -369 -137 -360 L-137 -244 Q-95 -254 -57 -254 Q46 -254 66 -131 L240 969 L371 969 Z" /><glyph glyph-name="uni0459" unicode="&#x459;" d="M2 -8 L2 111 Q86 120 131.5 157.5 Q177 195 219 293 L397 707 Q457 849 546.5 916 Q636 983 776 983 Q896 983 997 946 L942 604 Q1018 621 1090 621 Q1241 621 1329 550.5 Q1417 480 1417 350 Q1417 191 1295.5 85.5 Q1174 -20 981 -20 Q843 -20 723 33 L852 860 Q814 872 764 872 Q679 872 619.5 822.5 Q560 773 514 666 L338 252 Q279 114 205 56 Q131 -2 2 -8 ZM1288 340 Q1288 419 1232.5 465.5 Q1177 512 1073 512 Q1001 512 924 494 L864 109 Q923 90 989 90 Q1119 90 1203.5 160.5 Q1288 231 1288 340 Z" /><glyph glyph-name="uni045A" unicode="&#x45a;" d="M666 33 L731 446 L276 446 L207 0 L76 0 L229 969 L360 969 L297 561 L750 561 L815 969 L944 969 L887 604 Q963 621 1032 621 Q1184 621 1273 550.5 Q1362 480 1362 350 Q1362 191 1239.5 85.5 Q1117 -20 924 -20 Q789 -20 666 33 ZM868 494 L807 109 Q866 90 932 90 Q1062 90 1146.5 160.5 Q1231 231 1231 340 Q1231 419 1176.5 465.5 Q1122 512 1020 512 Q945 512 868 494 Z" /><glyph glyph-name="uni045B" unicode="&#x45b;" d="M729 1114 L393 1114 L342 786 Q467 819 567 819 Q713 819 792.5 751.5 Q872 684 872 559 Q872 515 862 440 L791 0 L659 0 L731 451 Q741 507 741 547 Q741 700 535 700 Q429 700 324 668 L217 0 L86 0 L262 1114 L66 1114 L66 1223 L281 1223 L315 1446 L451 1470 L412 1223 L748 1223 L729 1114 Z" /><glyph glyph-name="uni045C" unicode="&#x45c;" d="M657 -14 L283 496 L207 0 L76 0 L229 969 L360 969 L287 524 L737 969 L911 969 L422 504 L795 12 L657 -14 ZM920 1397 L598 1122 L492 1122 L737 1436 L920 1397 Z" /><glyph glyph-name="uni045D" unicode="&#x45d;" d="M100 195 Q100 222 109 301 L217 969 L348 969 L240 299 Q231 234 231 213 Q231 161 260.5 129.5 Q290 98 346 98 Q410 98 488.5 156.5 Q567 215 698 354 L793 969 L924 969 L813 281 L813 0 L698 0 L688 215 Q575 95 490.5 37.5 Q406 -20 317 -20 Q214 -20 157 35.5 Q100 91 100 195 ZM633 1122 L545 1122 L309 1397 L485 1436 L633 1122 Z" /><glyph glyph-name="uni045E" unicode="&#x45e;" d="M936 969 L381 -135 Q316 -265 245.5 -317 Q175 -369 70 -369 Q68 -369 12 -362 L12 -246 Q58 -254 86 -254 Q141 -254 182 -222.5 Q223 -191 260 -121 L328 8 L131 956 L262 981 L416 164 L795 969 L936 969 ZM866 1360 Q839 1255 762.5 1191.5 Q686 1128 571 1128 Q454 1128 395 1192.5 Q336 1257 338 1360 L438 1376 Q446 1314 483.5 1280.5 Q521 1247 584 1247 Q713 1247 774 1376 L866 1360 Z" /><glyph glyph-name="uni045F" unicode="&#x45f;" d="M283 -375 L346 -100 L463 -100 L422 -354 L283 -375 ZM100 195 Q100 222 109 301 L217 969 L348 969 L240 299 Q231 234 231 213 Q231 161 260.5 129.5 Q290 98 346 98 Q410 98 488.5 156.5 Q567 215 698 354 L793 969 L924 969 L813 281 L813 0 L698 0 L688 215 Q575 95 490.5 37.5 Q406 -20 317 -20 Q214 -20 157 35.5 Q100 91 100 195 Z" /><glyph glyph-name="uni0462" unicode="&#x462;" d="M750 1440 L713 1208 L1128 1208 L1128 1087 L694 1087 L645 780 L823 780 Q1022 780 1128.5 689 Q1235 598 1235 434 Q1235 238 1091 119 Q947 0 709 0 L383 0 L555 1087 L139 1087 L160 1208 L575 1208 L612 1440 L750 1440 ZM1094 428 Q1094 536 1024.5 596.5 Q955 657 817 657 L625 657 L539 123 L723 123 Q894 123 994 205.5 Q1094 288 1094 428 Z" /><glyph glyph-name="uni0463" unicode="&#x463;" d="M684 989 Q783 989 836 933 Q889 877 889 780 Q889 752 881 686 L866 606 Q947 621 1001 621 Q1153 621 1242 550.5 Q1331 480 1331 350 Q1331 191 1208.5 85.5 Q1086 -20 893 -20 Q773 -20 645 27 L748 676 Q756 730 756 758 Q756 811 729 840.5 Q702 870 653 870 Q591 870 511.5 810.5 Q432 751 305 614 L211 0 L80 0 L188 688 L188 969 L305 969 L315 754 Q427 873 512.5 931 Q598 989 684 989 ZM987 512 Q914 512 848 496 L786 104 Q827 90 901 90 Q1031 90 1115.5 160.5 Q1200 231 1200 340 Q1200 419 1145.5 465.5 Q1091 512 987 512 Z" /><glyph glyph-name="uni0472" unicode="&#x472;" d="M668 -27 Q502 -27 380 55 Q258 137 196.5 276.5 Q135 416 135 594 Q135 792 203 964.5 Q271 1137 391 1257 Q577 1440 825 1440 Q990 1440 1112 1358 Q1234 1276 1296 1136.5 Q1358 997 1358 819 Q1358 622 1289.5 449.5 Q1221 277 1100 156 Q917 -27 668 -27 ZM672 92 Q852 92 1001 238 Q1158 398 1204 647 L272 647 L272 596 Q272 368 379 230 Q486 92 672 92 ZM492 1176 Q334 1018 287 770 L1217 770 Q1219 784 1219 817 Q1219 1046 1112.5 1183.5 Q1006 1321 819 1321 Q637 1321 492 1176 Z" /><glyph glyph-name="uni0473" unicode="&#x473;" d="M895 578 Q895 419 835.5 282.5 Q776 146 667 63 Q558 -20 424 -20 Q265 -20 174.5 91 Q84 202 84 391 Q84 550 143 686.5 Q202 823 310.5 906 Q419 989 553 989 Q712 989 803.5 878 Q895 767 895 578 ZM434 86 Q549 86 635.5 184 Q722 282 754 432 L209 432 L209 395 Q209 242 270 164 Q331 86 434 86 ZM768 573 Q768 726 707 805.5 Q646 885 545 885 Q430 885 343.5 787.5 Q257 690 225 543 L766 543 Q766 548 767 558 Q768 568 768 573 Z" /><glyph glyph-name="uni0474" unicode="&#x474;" d="M1462 1296 Q1365 1276 1295.5 1203.5 Q1226 1131 1126 950 L621 -8 L510 -8 L211 1397 L348 1427 L596 190 L1016 1010 Q1131 1232 1224 1319.5 Q1317 1407 1462 1427 L1462 1296 Z" /><glyph glyph-name="uni0475" unicode="&#x475;" d="M426 -8 L313 -8 L131 956 L262 981 L397 170 L631 659 Q713 833 790 905.5 Q867 978 993 987 L993 866 Q909 854 856.5 801 Q804 748 733 604 L426 -8 Z" /><glyph glyph-name="uni0490" unicode="&#x490;" d="M975 1286 L442 1286 L240 0 L100 0 L326 1413 L866 1413 L911 1694 L1044 1694 L975 1286 Z" /><glyph glyph-name="uni0491" unicode="&#x491;" d="M754 852 L340 852 L207 0 L76 0 L229 969 L645 969 L696 1266 L825 1266 L754 852 Z" /><glyph glyph-name="uni0492" unicode="&#x492;" d="M354 1413 L1012 1413 L1012 1286 L471 1286 L391 784 L686 784 L670 680 L375 680 L268 0 L129 0 L238 680 L72 680 L72 784 L254 784 L354 1413 Z" /><glyph glyph-name="uni0493" unicode="&#x493;" d="M567 426 L311 426 L244 0 L113 0 L180 426 L41 426 L41 526 L197 526 L266 969 L807 969 L807 852 L379 852 L328 526 L584 526 L567 426 Z" /><glyph glyph-name="uni0496" unicode="&#x496;" d="M252 1395 L391 1430 L860 766 L961 1413 L1098 1413 L989 766 L1636 1413 L1815 1413 L1124 741 L1561 125 L1710 125 L1640 -313 L1507 -334 L1561 0 L1489 0 L983 727 L872 0 L735 0 L854 727 L143 0 L-35 0 L721 754 L252 1395 Z" /><glyph glyph-name="uni0497" unicode="&#x497;" d="M1110 -315 L1161 0 L1100 0 L741 500 L666 0 L535 0 L618 500 L129 0 L-35 0 L489 518 L143 956 L281 981 L623 522 L688 969 L819 969 L745 522 L1206 969 L1370 969 L874 504 L1167 115 L1300 115 L1237 -295 L1110 -315 Z" /><glyph glyph-name="uni0498" unicode="&#x498;" d="M1022 1100 Q1022 956 933.5 864.5 Q845 773 688 729 Q811 686 874.5 603 Q938 520 938 401 Q938 233 809.5 111.5 Q681 -10 475 -20 L428 -313 L291 -334 L348 -16 Q183 6 23 102 L66 227 Q258 100 442 100 Q600 100 698.5 188.5 Q797 277 797 403 Q797 532 699.5 606 Q602 680 436 680 L324 680 L324 803 L465 803 Q657 803 769 881.5 Q881 960 881 1092 Q881 1193 812.5 1253 Q744 1313 618 1313 Q446 1313 238 1194 L238 1329 Q428 1436 627 1436 Q808 1436 915 1343.5 Q1022 1251 1022 1100 Z" /><glyph glyph-name="uni0499" unicode="&#x499;" d="M166 784 L166 903 Q334 987 504 987 Q658 987 738.5 921 Q819 855 819 748 Q817 653 756.5 586 Q696 519 580 487 Q671 465 716.5 409.5 Q762 354 762 279 Q762 159 667.5 77 Q573 -5 418 -18 L373 -295 L244 -315 L297 -16 Q147 -1 12 74 L51 186 Q210 92 369 92 Q485 92 557 142 Q629 192 629 274 Q629 352 567 395 Q505 438 381 438 L250 438 L250 551 L391 551 Q534 551 610 601 Q686 651 686 733 Q686 797 634.5 837 Q583 877 487 877 Q350 877 166 784 Z" /><glyph glyph-name="uni049A" unicode="&#x49a;" d="M918 -334 L971 0 L899 0 L354 729 L240 0 L100 0 L326 1413 L463 1413 L360 772 L1057 1413 L1237 1413 L502 750 L973 125 L1120 125 L1051 -313 L918 -334 Z" /><glyph glyph-name="uni049B" unicode="&#x49b;" d="M647 0 L283 496 L207 0 L76 0 L229 969 L360 969 L287 524 L737 969 L911 969 L422 504 L717 115 L848 115 L782 -295 L655 -315 L709 0 L647 0 Z" /><glyph glyph-name="uni049C" unicode="&#x49c;" d="M676 1161 L621 819 L1122 1413 L1292 1413 L711 737 L1106 20 L965 -14 L600 680 L545 334 L442 334 L500 686 L348 686 L240 0 L100 0 L326 1413 L463 1413 L369 809 L518 809 L575 1161 L676 1161 Z" /><glyph glyph-name="uni049D" unicode="&#x49d;" d="M449 201 L352 201 L391 449 L274 449 L205 0 L76 0 L229 969 L358 969 L295 563 L410 563 L449 811 L545 811 L504 567 L831 969 L991 969 L596 504 L872 12 L741 -12 L485 451 L449 201 Z" /><glyph glyph-name="uni04A0" unicode="&#x4a0;" d="M1518 1413 L782 750 L1335 18 L1190 -14 L635 729 L520 0 L381 0 L586 1288 L172 1288 L195 1413 L743 1413 L641 772 L1337 1413 L1518 1413 Z" /><glyph glyph-name="uni04A1" unicode="&#x4a1;" d="M836 -14 L461 496 L385 0 L254 0 L389 854 L94 854 L111 969 L539 969 L465 524 L915 969 L1090 969 L600 504 L973 12 L836 -14 Z" /><glyph glyph-name="uni04A2" unicode="&#x4a2;" d="M1319 1413 L1112 125 L1247 125 L1178 -313 L1044 -334 L1098 0 L956 0 L1063 676 L346 676 L240 0 L100 0 L326 1413 L463 1413 L367 801 L1083 801 L1180 1413 L1319 1413 Z" /><glyph glyph-name="uni04A3" unicode="&#x4a3;" d="M674 0 L745 446 L276 446 L207 0 L76 0 L229 969 L360 969 L297 561 L764 561 L829 969 L961 969 L823 115 L940 115 L877 -295 L748 -315 L799 0 L674 0 Z" /><glyph glyph-name="uni04A4" unicode="&#x4a4;" d="M1159 1413 L1798 1413 L1798 1290 L1278 1290 L1073 0 L936 0 L1042 678 L346 678 L240 0 L100 0 L326 1413 L463 1413 L367 801 L1063 801 L1159 1413 Z" /><glyph glyph-name="uni04A5" unicode="&#x4a5;" d="M666 0 L737 449 L276 449 L207 0 L76 0 L229 969 L360 969 L297 561 L756 561 L819 969 L1339 969 L1339 852 L932 852 L797 0 L666 0 Z" /><glyph glyph-name="uni04AA" unicode="&#x4aa;" d="M1196 1313 L1161 1167 Q1009 1313 829 1313 Q709 1313 604.5 1253.5 Q500 1194 428 1094 Q356 994 315 861.5 Q274 729 274 586 Q274 356 382 228 Q490 100 666 100 Q852 100 1032 223 L1032 84 Q862 -22 664 -25 L616 -313 L481 -334 L537 -12 Q351 24 242 177.5 Q133 331 133 575 Q133 803 222 1000 Q311 1197 473.5 1317.5 Q636 1438 834 1438 Q1045 1438 1196 1313 Z" /><glyph glyph-name="uni04AB" unicode="&#x4ab;" d="M825 907 L791 780 Q673 874 565 874 Q470 874 389 807 Q308 740 262.5 631 Q217 522 217 401 Q217 252 282.5 173 Q348 94 465 94 Q579 94 713 186 L713 63 Q602 -14 465 -20 L422 -295 L291 -315 L346 -8 Q223 22 153.5 125 Q84 228 84 389 Q82 546 145 684 Q208 822 321 905.5 Q434 989 569 989 Q706 989 825 907 Z" /><glyph glyph-name="uni04AE" unicode="&#x4ae;" d="M1298 1413 L688 588 L596 0 L459 0 L551 586 L207 1399 L348 1427 L639 711 L1137 1413 L1298 1413 Z" /><glyph glyph-name="uni04AF" unicode="&#x4af;" d="M946 969 L451 6 L393 -350 L258 -375 L319 12 L131 956 L260 981 L410 162 L803 969 L946 969 Z" /><glyph glyph-name="uni04B0" unicode="&#x4b0;" d="M938 358 L651 358 L594 0 L459 0 L516 358 L229 358 L248 461 L532 461 L553 586 L207 1399 L348 1427 L639 711 L1137 1413 L1298 1413 L688 586 L668 461 L938 461 L938 358 Z" /><glyph glyph-name="uni04B1" unicode="&#x4b1;" d="M946 969 L451 6 L446 -23 L668 -23 L668 -123 L430 -123 L393 -350 L258 -375 L297 -123 L70 -123 L86 -23 L313 -23 L319 12 L131 956 L260 981 L410 162 L803 969 L946 969 Z" /><glyph glyph-name="uni04B2" unicode="&#x4b2;" d="M948 -334 L1001 0 L928 0 L633 635 L147 0 L-10 0 L573 741 L260 1395 L399 1423 L664 844 L1098 1413 L1255 1413 L725 737 L1020 125 L1151 125 L1081 -313 L948 -334 Z" /><glyph glyph-name="uni04B3" unicode="&#x4b3;" d="M637 -315 L688 0 L627 0 L440 403 L137 0 L-10 0 L381 502 L162 958 L291 985 L465 598 L745 969 L893 969 L522 498 L709 115 L829 115 L764 -295 L637 -315 Z" /><glyph glyph-name="uni04B6" unicode="&#x4b6;" d="M866 -334 L922 0 L778 0 L866 553 Q711 526 606 526 Q406 526 303.5 615.5 Q201 705 201 877 Q201 927 215 1034 L276 1413 L414 1413 L352 1028 Q340 946 340 887 Q340 651 625 651 Q741 651 887 682 L1004 1413 L1141 1413 L936 125 L1069 125 L1001 -313 L866 -334 Z" /><glyph glyph-name="uni04B7" unicode="&#x4b7;" d="M184 969 L315 969 L272 700 Q264 643 264 604 Q264 453 469 453 Q565 453 653 475 L733 969 L864 969 L727 115 L844 115 L778 -295 L651 -315 L702 0 L578 0 L635 358 Q536 334 438 334 Q292 334 212.5 400.5 Q133 467 133 592 Q133 639 143 711 L184 969 Z" /><glyph glyph-name="uni04B8" unicode="&#x4b8;" d="M698 1020 L637 651 Q751 651 887 682 L1004 1413 L1141 1413 L918 0 L778 0 L866 553 Q696 526 618 526 L567 195 L467 195 L520 530 Q201 568 201 877 Q201 927 215 1034 L276 1413 L414 1413 L352 1028 Q340 946 340 887 Q340 687 541 657 L596 1020 L698 1020 Z" /><glyph glyph-name="uni04B9" unicode="&#x4b9;" d="M535 719 L492 451 Q576 451 672 473 L752 969 L883 969 L727 0 L596 0 L653 358 Q564 334 473 334 L436 98 L340 98 L377 336 Q259 350 196 415 Q133 480 133 592 Q133 639 143 711 L184 969 L315 969 L272 700 Q264 643 264 604 Q264 480 397 455 L440 719 L535 719 Z" /><glyph glyph-name="uni04BA" unicode="&#x4ba;" d="M324 1413 L463 1413 L375 858 Q542 887 635 887 Q835 887 937.5 798 Q1040 709 1040 537 Q1040 486 1026 379 L965 0 L827 0 L889 385 Q901 468 901 526 Q901 762 616 762 Q498 762 352 731 L238 0 L100 0 L324 1413 Z" /><glyph glyph-name="uni04BB" unicode="&#x4bb;" d="M899 774 Q899 726 889 668 L782 0 L651 0 L758 670 Q766 728 766 758 Q766 810 737.5 840 Q709 870 653 870 Q589 870 510 811.5 Q431 753 301 614 L207 0 L76 0 L305 1446 L438 1470 L326 768 Q434 881 515.5 935 Q597 989 682 989 Q784 989 841.5 933 Q899 877 899 774 Z" /><glyph glyph-name="uni04C0" unicode="&#x4c0;" d="M477 1413 L252 0 L115 0 L340 1413 L477 1413 Z" /><glyph glyph-name="uni04C1" unicode="&#x4c1;" d="M252 1395 L391 1430 L860 766 L961 1413 L1098 1413 L989 766 L1636 1413 L1815 1413 L1124 741 L1636 20 L1497 -14 L983 727 L872 0 L735 0 L854 727 L143 0 L-35 0 L721 754 L252 1395 ZM1341 1778 Q1314 1673 1238 1609.5 Q1162 1546 1047 1546 Q930 1546 870.5 1610.5 Q811 1675 813 1778 L913 1794 Q921 1732 958.5 1698.5 Q996 1665 1059 1665 Q1188 1665 1249 1794 L1341 1778 Z" /><glyph glyph-name="uni04C2" unicode="&#x4c2;" d="M129 0 L-35 0 L489 518 L143 956 L281 981 L623 522 L688 969 L819 969 L745 522 L1206 969 L1370 969 L874 504 L1247 12 L1110 -12 L741 500 L666 0 L535 0 L618 500 L129 0 ZM1073 1364 Q1046 1259 969.5 1196 Q893 1133 778 1133 Q661 1133 602 1197 Q543 1261 545 1364 L645 1380 Q653 1318 690.5 1284.5 Q728 1251 791 1251 Q920 1251 981 1380 L1073 1364 Z" /><glyph glyph-name="uni04CF" unicode="&#x4cf;" d="M449 1470 L215 0 L84 0 L313 1446 L449 1470 Z" /><glyph glyph-name="uni04D0" unicode="&#x4d0;" d="M1042 -14 L946 457 L379 457 L141 0 L-6 0 L748 1421 L877 1421 L1176 16 L1042 -14 ZM786 1243 L440 578 L922 578 L786 1243 ZM1133 1798 Q1106 1693 1029.5 1630 Q953 1567 838 1567 Q720 1567 661 1631 Q602 1695 604 1798 L705 1815 Q713 1753 750 1719.5 Q787 1686 850 1686 Q979 1686 1040 1815 L1133 1798 Z" /><glyph glyph-name="uni04D1" unicode="&#x4d1;" d="M680 201 Q575 91 493.5 35.5 Q412 -20 332 -20 Q215 -20 147.5 65 Q80 150 80 305 Q80 449 124.5 576 Q169 703 243.5 792 Q318 881 418.5 932 Q519 983 629 983 Q763 983 907 922 L803 281 L803 0 L690 0 L680 201 ZM682 334 L766 842 Q700 870 612 870 Q535 870 462.5 829 Q390 788 335 717 Q280 646 246.5 541.5 Q213 437 213 317 Q213 209 250 151.5 Q287 94 354 94 Q415 94 489.5 150.5 Q564 207 682 334 ZM915 1364 Q888 1259 812 1196 Q736 1133 621 1133 Q503 1133 444 1197 Q385 1261 387 1364 L487 1380 Q495 1318 532.5 1284.5 Q570 1251 633 1251 Q762 1251 823 1380 L915 1364 Z" /><glyph glyph-name="uni04D2" unicode="&#x4d2;" d="M1042 -14 L946 457 L379 457 L141 0 L-6 0 L748 1421 L877 1421 L1176 16 L1042 -14 ZM786 1243 L440 578 L922 578 L786 1243 ZM1098 1579 L928 1579 L958 1761 L1128 1761 L1098 1579 ZM745 1579 L575 1579 L606 1761 L774 1761 L745 1579 Z" /><glyph glyph-name="uni04D3" unicode="&#x4d3;" d="M680 201 Q575 91 493.5 35.5 Q412 -20 332 -20 Q215 -20 147.5 65 Q80 150 80 305 Q80 449 124.5 576 Q169 703 243.5 792 Q318 881 418.5 932 Q519 983 629 983 Q763 983 907 922 L803 281 L803 0 L690 0 L680 201 ZM682 334 L766 842 Q700 870 612 870 Q535 870 462.5 829 Q390 788 335 717 Q280 646 246.5 541.5 Q213 437 213 317 Q213 209 250 151.5 Q287 94 354 94 Q415 94 489.5 150.5 Q564 207 682 334 ZM881 1145 L711 1145 L741 1327 L911 1327 L881 1145 ZM528 1145 L358 1145 L389 1327 L557 1327 L528 1145 Z" /><glyph glyph-name="uni04D4" unicode="&#x4d4;" d="M94 0 L-55 0 L1004 1413 L1776 1413 L1755 1288 L1202 1288 L1126 801 L1556 801 L1556 676 L1106 676 L1018 125 L1589 125 L1571 0 L860 0 L932 457 L434 457 L94 0 ZM524 578 L952 578 L1067 1305 L524 578 Z" /><glyph glyph-name="uni04D5" unicode="&#x4d5;" d="M1403 629 Q1403 563 1389 481 L786 481 Q780 440 780 395 Q780 251 843.5 171.5 Q907 92 1020 92 Q1094 92 1165 122.5 Q1236 153 1325 217 L1325 90 Q1166 -20 1004 -20 Q895 -20 815 27.5 Q735 75 692 164 Q477 -18 303 -18 Q188 -18 116.5 45 Q45 108 45 225 Q45 564 678 614 L684 666 Q701 775 661 826 Q621 877 522 877 Q398 877 221 791 L221 911 Q395 989 537 989 Q762 989 801 829 Q926 989 1102 989 Q1246 989 1324.5 894 Q1403 799 1403 629 ZM1270 582 Q1282 727 1238 806 Q1194 885 1094 885 Q1001 885 920 802.5 Q839 720 803 582 L1270 582 ZM659 262 Q647 320 647 387 Q647 448 657 516 Q521 503 425.5 476.5 Q330 450 277 412 Q224 374 201 331.5 Q178 289 178 236 Q178 166 218.5 129 Q259 92 330 92 Q459 92 659 262 Z" /><glyph glyph-name="uni04D6" unicode="&#x4d6;" d="M1016 1413 L995 1288 L444 1288 L367 803 L797 803 L797 676 L346 676 L258 125 L829 125 L811 0 L100 0 L326 1413 L1016 1413 ZM987 1778 Q960 1673 883.5 1609.5 Q807 1546 692 1546 Q575 1546 516 1610.5 Q457 1675 459 1778 L559 1794 Q567 1732 604.5 1698.5 Q642 1665 705 1665 Q834 1665 895 1794 L987 1778 Z" /><glyph glyph-name="uni04D7" unicode="&#x4d7;" d="M453 92 Q528 92 599.5 122.5 Q671 153 760 217 L760 90 Q601 -20 438 -20 Q268 -20 175 88 Q82 196 82 383 Q82 514 119.5 628.5 Q157 743 219.5 821 Q282 899 365 944 Q448 989 537 989 Q681 989 759.5 894 Q838 799 838 629 Q838 569 823 481 L219 481 Q215 423 215 391 Q215 250 278 171 Q341 92 453 92 ZM528 885 Q433 885 354 802 Q275 719 238 582 L705 582 Q717 727 672.5 806 Q628 885 528 885 ZM872 1364 Q845 1259 769 1196 Q693 1133 578 1133 Q460 1133 401 1197 Q342 1261 344 1364 L444 1380 Q452 1318 489.5 1284.5 Q527 1251 590 1251 Q719 1251 780 1380 L872 1364 Z" /><glyph glyph-name="uni04D8" unicode="&#x4d8;" d="M139 512 Q139 632 164 782 L1135 782 Q1135 791 1136 811.5 Q1137 832 1137 842 Q1137 1067 1033.5 1191 Q930 1315 748 1315 Q635 1315 527 1278 Q419 1241 291 1163 L291 1300 Q412 1371 522.5 1405.5 Q633 1440 756 1440 Q1001 1440 1138.5 1284.5 Q1276 1129 1276 854 Q1276 679 1223 517.5 Q1170 356 1080 236 Q990 116 861.5 44.5 Q733 -27 590 -27 Q372 -27 255.5 112 Q139 251 139 512 ZM596 94 Q722 94 832.5 170 Q943 246 1016.5 374.5 Q1090 503 1120 662 L285 662 Q274 592 274 512 Q274 305 355.5 199.5 Q437 94 596 94 Z" /><glyph glyph-name="uni04D9" unicode="&#x4d9;" d="M461 877 Q386 877 314.5 846.5 Q243 816 154 752 L154 879 Q313 989 475 989 Q645 989 738 881 Q831 773 831 586 Q831 455 793.5 341 Q756 227 694 148.5 Q632 70 549 25 Q466 -20 377 -20 Q233 -20 154.5 75 Q76 170 76 340 Q76 405 90 487 L692 487 Q698 531 698 578 Q698 719 635.5 798 Q573 877 461 877 ZM385 84 Q479 84 559 167 Q639 250 674 387 L209 387 Q197 242 241 163 Q285 84 385 84 Z" /><glyph glyph-name="uni04DC" unicode="&#x4dc;" d="M252 1395 L391 1430 L860 766 L961 1413 L1098 1413 L989 766 L1636 1413 L1815 1413 L1124 741 L1636 20 L1497 -14 L983 727 L872 0 L735 0 L854 727 L143 0 L-35 0 L721 754 L252 1395 ZM1309 1559 L1139 1559 L1169 1741 L1339 1741 L1309 1559 ZM956 1559 L786 1559 L817 1741 L985 1741 L956 1559 Z" /><glyph glyph-name="uni04DD" unicode="&#x4dd;" d="M129 0 L-35 0 L489 518 L143 956 L281 981 L623 522 L688 969 L819 969 L745 522 L1206 969 L1370 969 L874 504 L1247 12 L1110 -12 L741 500 L666 0 L535 0 L618 500 L129 0 ZM1038 1145 L868 1145 L899 1327 L1069 1327 L1038 1145 ZM686 1145 L516 1145 L547 1327 L715 1327 L686 1145 Z" /><glyph glyph-name="uni04DE" unicode="&#x4de;" d="M1022 1100 Q1022 956 933.5 864.5 Q845 773 688 729 Q811 686 874.5 603 Q938 520 938 401 Q938 224 797.5 100 Q657 -24 436 -23 Q226 -20 23 102 L66 227 Q258 100 442 100 Q600 100 698.5 188.5 Q797 277 797 403 Q797 532 699.5 606 Q602 680 436 680 L324 680 L324 803 L465 803 Q657 803 769 881.5 Q881 960 881 1092 Q881 1193 812.5 1253 Q744 1313 618 1313 Q446 1313 238 1194 L238 1329 Q428 1436 627 1436 Q808 1436 915 1343.5 Q1022 1251 1022 1100 ZM932 1579 L762 1579 L793 1761 L963 1761 L932 1579 ZM580 1579 L410 1579 L440 1761 L608 1761 L580 1579 Z" /><glyph glyph-name="uni04DF" unicode="&#x4df;" d="M166 784 L166 903 Q334 987 504 987 Q658 987 738.5 921 Q819 855 819 748 Q817 653 756.5 586 Q696 519 580 487 Q671 465 716.5 409.5 Q762 354 762 279 Q762 148 651 64 Q540 -20 362 -20 Q186 -20 12 74 L51 186 Q210 92 369 92 Q485 92 557 142 Q629 192 629 274 Q629 352 567 395 Q505 438 381 438 L250 438 L250 551 L391 551 Q534 551 610 601 Q686 651 686 733 Q686 797 634.5 837 Q583 877 487 877 Q350 877 166 784 ZM788 1145 L618 1145 L649 1327 L819 1327 L788 1145 ZM436 1145 L266 1145 L297 1327 L465 1327 L436 1145 Z" /><glyph glyph-name="uni04E2" unicode="&#x4e2;" d="M1118 1585 L586 1585 L604 1700 L1137 1700 L1118 1585 ZM100 0 L326 1413 L461 1413 L274 238 L1176 1413 L1327 1413 L1102 0 L967 0 L1157 1194 L240 0 L100 0 Z" /><glyph glyph-name="uni04E3" unicode="&#x4e3;" d="M100 195 Q100 222 109 301 L217 969 L348 969 L240 299 Q231 234 231 213 Q231 161 260.5 129.5 Q290 98 346 98 Q410 98 488.5 156.5 Q567 215 698 354 L793 969 L924 969 L813 281 L813 0 L698 0 L688 215 Q575 95 490.5 37.5 Q406 -20 317 -20 Q214 -20 157 35.5 Q100 91 100 195 ZM862 1178 L330 1178 L348 1292 L881 1292 L862 1178 Z" /><glyph glyph-name="uni04E4" unicode="&#x4e4;" d="M1106 1548 L936 1548 L967 1731 L1137 1731 L1106 1548 ZM754 1548 L584 1548 L614 1731 L782 1731 L754 1548 ZM100 0 L326 1413 L461 1413 L274 238 L1176 1413 L1327 1413 L1102 0 L967 0 L1157 1194 L240 0 L100 0 Z" /><glyph glyph-name="uni04E5" unicode="&#x4e5;" d="M852 1141 L682 1141 L713 1323 L883 1323 L852 1141 ZM500 1141 L330 1141 L360 1323 L528 1323 L500 1141 ZM100 195 Q100 222 109 301 L217 969 L348 969 L240 299 Q231 234 231 213 Q231 161 260.5 129.5 Q290 98 346 98 Q410 98 488.5 156.5 Q567 215 698 354 L793 969 L924 969 L813 281 L813 0 L698 0 L688 215 Q575 95 490.5 37.5 Q406 -20 317 -20 Q214 -20 157 35.5 Q100 91 100 195 Z" /><glyph glyph-name="uni04E6" unicode="&#x4e6;" d="M1153 1579 L983 1579 L1014 1761 L1184 1761 L1153 1579 ZM801 1579 L631 1579 L662 1761 L829 1761 L801 1579 ZM668 -27 Q502 -27 380 55 Q258 137 196.5 276.5 Q135 416 135 594 Q135 792 203 964.5 Q271 1137 391 1257 Q577 1440 825 1440 Q990 1440 1112 1358 Q1234 1276 1296 1136.5 Q1358 997 1358 819 Q1358 622 1289.5 449.5 Q1221 277 1100 156 Q917 -27 668 -27 ZM672 94 Q852 94 999 238 Q1100 340 1157 490.5 Q1214 641 1214 817 Q1214 1046 1109 1182.5 Q1004 1319 819 1319 Q637 1319 494 1176 Q393 1073 334.5 922.5 Q276 772 276 596 Q276 367 381.5 230.5 Q487 94 672 94 Z" /><glyph glyph-name="uni04E7" unicode="&#x4e7;" d="M852 1145 L682 1145 L713 1327 L883 1327 L852 1145 ZM500 1145 L330 1145 L360 1327 L528 1327 L500 1145 ZM895 578 Q895 419 835.5 282.5 Q776 146 667 63 Q558 -20 424 -20 Q265 -20 174.5 91 Q84 202 84 391 Q84 550 143 686.5 Q202 823 310.5 906 Q419 989 553 989 Q712 989 803.5 878 Q895 767 895 578 ZM764 571 Q764 722 704.5 801.5 Q645 881 545 881 Q453 881 376 811.5 Q299 742 257 631.5 Q215 521 215 399 Q215 246 274 167 Q333 88 434 88 Q527 88 604 157.5 Q681 227 722.5 337.5 Q764 448 764 571 Z" /><glyph glyph-name="uni04E8" unicode="&#x4e8;" d="M668 -27 Q502 -27 380 55 Q258 137 196.5 276.5 Q135 416 135 594 Q135 792 203 964.5 Q271 1137 391 1257 Q577 1440 825 1440 Q990 1440 1112 1358 Q1234 1276 1296 1136.5 Q1358 997 1358 819 Q1358 622 1289.5 449.5 Q1221 277 1100 156 Q917 -27 668 -27 ZM672 92 Q852 92 1001 238 Q1158 398 1204 647 L272 647 L272 596 Q272 368 379 230 Q486 92 672 92 ZM492 1176 Q334 1018 287 770 L1217 770 Q1219 784 1219 817 Q1219 1046 1112.5 1183.5 Q1006 1321 819 1321 Q637 1321 492 1176 Z" /><glyph glyph-name="uni04E9" unicode="&#x4e9;" d="M895 578 Q895 419 835.5 282.5 Q776 146 667 63 Q558 -20 424 -20 Q265 -20 174.5 91 Q84 202 84 391 Q84 550 143 686.5 Q202 823 310.5 906 Q419 989 553 989 Q712 989 803.5 878 Q895 767 895 578 ZM434 86 Q549 86 635.5 184 Q722 282 754 432 L209 432 L209 395 Q209 242 270 164 Q331 86 434 86 ZM768 573 Q768 726 707 805.5 Q646 885 545 885 Q430 885 343.5 787.5 Q257 690 225 543 L766 543 Q766 548 767 558 Q768 568 768 573 Z" /><glyph glyph-name="uni04EE" unicode="&#x4ee;" d="M117 115 Q247 121 341 179.5 Q435 238 516 365 L575 457 L229 1401 L369 1427 L664 588 L1163 1413 L1325 1413 L627 303 Q521 133 399 60 Q277 -13 117 -18 L117 115 ZM1096 1585 L563 1585 L582 1700 L1114 1700 L1096 1585 Z" /><glyph glyph-name="uni04EF" unicode="&#x4ef;" d="M936 969 L381 -135 Q316 -265 245.5 -317 Q175 -369 70 -369 Q68 -369 12 -362 L12 -246 Q58 -254 86 -254 Q141 -254 182 -222.5 Q223 -191 260 -121 L328 8 L131 956 L262 981 L416 164 L795 969 L936 969 ZM842 1178 L309 1178 L328 1292 L860 1292 L842 1178 Z" /><glyph glyph-name="uni04F0" unicode="&#x4f0;" d="M117 115 Q247 121 341 179.5 Q435 238 516 365 L575 457 L229 1401 L369 1427 L664 588 L1163 1413 L1325 1413 L627 303 Q521 133 399 60 Q277 -13 117 -18 L117 115 ZM1083 1548 L913 1548 L944 1731 L1114 1731 L1083 1548 ZM731 1548 L561 1548 L592 1731 L760 1731 L731 1548 Z" /><glyph glyph-name="uni04F1" unicode="&#x4f1;" d="M936 969 L381 -135 Q316 -265 245.5 -317 Q175 -369 70 -369 Q68 -369 12 -362 L12 -246 Q58 -254 86 -254 Q141 -254 182 -222.5 Q223 -191 260 -121 L328 8 L131 956 L262 981 L416 164 L795 969 L936 969 ZM831 1141 L662 1141 L692 1323 L862 1323 L831 1141 ZM479 1141 L309 1141 L340 1323 L508 1323 L479 1141 Z" /><glyph glyph-name="uni04F2" unicode="&#x4f2;" d="M117 115 Q247 121 341 179.5 Q435 238 516 365 L575 457 L229 1401 L369 1427 L664 588 L1163 1413 L1325 1413 L627 303 Q521 133 399 60 Q277 -13 117 -18 L117 115 ZM999 1810 L680 1538 L590 1538 L836 1849 L999 1810 ZM1323 1810 L1006 1538 L915 1538 L1161 1849 L1323 1810 Z" /><glyph glyph-name="uni04F3" unicode="&#x4f3;" d="M936 969 L381 -135 Q316 -265 245.5 -317 Q175 -369 70 -369 Q68 -369 12 -362 L12 -246 Q58 -254 86 -254 Q141 -254 182 -222.5 Q223 -191 260 -121 L328 8 L131 956 L262 981 L416 164 L795 969 L936 969 ZM1069 1403 L752 1130 L662 1130 L907 1442 L1069 1403 ZM745 1403 L426 1130 L336 1130 L582 1442 L745 1403 Z" /><glyph glyph-name="uni04F4" unicode="&#x4f4;" d="M918 0 L778 0 L866 553 Q711 526 606 526 Q406 526 303.5 615.5 Q201 705 201 877 Q201 927 215 1034 L276 1413 L414 1413 L352 1028 Q340 946 340 887 Q340 651 625 651 Q741 651 887 682 L1004 1413 L1141 1413 L918 0 ZM1024 1548 L854 1548 L885 1731 L1055 1731 L1024 1548 ZM672 1548 L502 1548 L532 1731 L700 1731 L672 1548 Z" /><glyph glyph-name="uni04F5" unicode="&#x4f5;" d="M184 969 L315 969 L272 700 Q264 643 264 604 Q264 453 469 453 Q565 453 653 475 L733 969 L864 969 L709 0 L578 0 L635 358 Q536 334 438 334 Q292 334 212.5 400.5 Q133 467 133 592 Q133 639 143 711 L184 969 ZM811 1141 L641 1141 L672 1323 L842 1323 L811 1141 ZM459 1141 L289 1141 L319 1323 L487 1323 L459 1141 Z" /><glyph glyph-name="uni04F8" unicode="&#x4f8;" d="M1169 1548 L999 1548 L1030 1731 L1200 1731 L1169 1548 ZM817 1548 L647 1548 L678 1731 L846 1731 L817 1548 ZM1460 1413 L1235 0 L1098 0 L1323 1413 L1460 1413 ZM463 1413 L371 827 L514 827 Q722 827 833 730 Q944 633 944 459 Q944 249 791.5 124.5 Q639 0 391 0 L100 0 L326 1413 L463 1413 ZM805 453 Q805 574 730 639.5 Q655 705 504 705 L350 705 L256 123 L403 123 Q586 123 695.5 211.5 Q805 300 805 453 Z" /><glyph glyph-name="uni04F9" unicode="&#x4f9;" d="M1001 1141 L831 1141 L862 1323 L1032 1323 L1001 1141 ZM649 1141 L479 1141 L510 1323 L678 1323 L649 1141 ZM80 33 L229 969 L358 969 L301 604 Q378 621 451 621 Q603 621 691.5 550.5 Q780 480 780 350 Q780 191 657 85.5 Q534 -20 340 -20 Q200 -20 80 33 ZM649 340 Q649 419 594.5 465.5 Q540 512 434 512 Q360 512 283 494 L221 109 Q280 90 348 90 Q481 90 565 160.5 Q649 231 649 340 ZM1192 969 L1036 0 L905 0 L1061 969 L1192 969 Z" /><glyph glyph-name="Wgrave" unicode="&#x1e80;" d="M2075 1413 L1434 0 L1323 0 L1120 1208 L535 0 L424 0 L236 1397 L379 1427 L522 231 L1085 1413 L1223 1413 L1411 231 L1927 1413 L2075 1413 ZM1217 1540 L1128 1540 L893 1815 L1069 1853 L1217 1540 Z" /><glyph glyph-name="wgrave" unicode="&#x1e81;" d="M1427 969 L961 -6 L858 -6 L752 776 L401 -6 L299 -6 L139 961 L266 985 L381 190 L727 973 L842 973 L942 190 L1294 969 L1427 969 ZM850 1126 L762 1126 L526 1401 L702 1440 L850 1126 Z" /><glyph glyph-name="Wacute" unicode="&#x1e82;" d="M1536 1815 L1214 1540 L1108 1540 L1354 1853 L1536 1815 ZM2075 1413 L1434 0 L1323 0 L1120 1208 L535 0 L424 0 L236 1397 L379 1427 L522 231 L1085 1413 L1223 1413 L1411 231 L1927 1413 L2075 1413 Z" /><glyph glyph-name="wacute" unicode="&#x1e83;" d="M1169 1401 L848 1126 L741 1126 L987 1440 L1169 1401 ZM1427 969 L961 -6 L858 -6 L752 776 L401 -6 L299 -6 L139 961 L266 985 L381 190 L727 973 L842 973 L942 190 L1294 969 L1427 969 Z" /><glyph glyph-name="Wdieresis" unicode="&#x1e84;" d="M1438 1559 L1268 1559 L1298 1741 L1468 1741 L1438 1559 ZM1085 1559 L915 1559 L946 1741 L1114 1741 L1085 1559 ZM2075 1413 L1434 0 L1323 0 L1120 1208 L535 0 L424 0 L236 1397 L379 1427 L522 231 L1085 1413 L1223 1413 L1411 231 L1927 1413 L2075 1413 Z" /><glyph glyph-name="wdieresis" unicode="&#x1e85;" d="M1071 1145 L901 1145 L932 1327 L1102 1327 L1071 1145 ZM719 1145 L549 1145 L580 1327 L748 1327 L719 1145 ZM1427 969 L961 -6 L858 -6 L752 776 L401 -6 L299 -6 L139 961 L266 985 L381 190 L727 973 L842 973 L942 190 L1294 969 L1427 969 Z" /><glyph glyph-name="Ygrave" unicode="&#x1ef2;" d="M1298 1413 L688 588 L596 0 L459 0 L551 586 L207 1399 L348 1427 L639 711 L1137 1413 L1298 1413 ZM807 1530 L719 1530 L483 1804 L659 1843 L807 1530 Z" /><glyph glyph-name="ygrave" unicode="&#x1ef3;" d="M936 969 L381 -135 Q316 -265 245.5 -317 Q175 -369 70 -369 Q68 -369 12 -362 L12 -246 Q58 -254 86 -254 Q141 -254 182 -222.5 Q223 -191 260 -121 L328 8 L131 956 L262 981 L416 164 L795 969 L936 969 ZM610 1122 L522 1122 L287 1397 L463 1436 L610 1122 Z" /><glyph glyph-name="uni2000" unicode="&#x2000;" d="" /><glyph glyph-name="uni2001" unicode="&#x2001;" d="" /><glyph glyph-name="enspace" unicode="&#x2002;" d="" /><glyph glyph-name="emspace" unicode="&#x2003;" d="" /><glyph glyph-name="threeperemspace" unicode="&#x2004;" d="" /><glyph glyph-name="fourperemspace" unicode="&#x2005;" d="" /><glyph glyph-name="uni2006" unicode="&#x2006;" d="" /><glyph glyph-name="uni2007" unicode="&#x2007;" d="" /><glyph glyph-name="uni2008" unicode="&#x2008;" d="" /><glyph glyph-name="thinspace" unicode="&#x2009;" d="" /><glyph glyph-name="hairspace" unicode="&#x200a;" d="" /><glyph glyph-name="uni2010" unicode="&#x2010;" d="M639 647 L621 512 L125 512 L141 647 L639 647 Z" /><glyph glyph-name="uni2011" unicode="&#x2011;" d="M639 647 L621 512 L125 512 L141 647 L639 647 Z" /><glyph glyph-name="figuredash" unicode="&#x2012;" d="M639 647 L621 512 L125 512 L141 647 L639 647 Z" /><glyph glyph-name="endash" unicode="&#x2013;" d="M817 514 L125 514 L145 645 L838 645 L817 514 Z" /><glyph glyph-name="emdash" unicode="&#x2014;" d="M1751 516 L125 516 L145 645 L1772 645 L1751 516 Z" /><glyph glyph-name="quoteleft" unicode="&#x2018;" d="M178 969 L410 1425 L481 1407 L342 969 L178 969 Z" /><glyph glyph-name="quoteright" unicode="&#x2019;" d="M483 1413 L252 956 L180 975 L319 1413 L483 1413 Z" /><glyph glyph-name="quotesinglbase" unicode="&#x201a;" d="M281 201 L49 -254 L-23 -238 L117 201 L281 201 Z" /><glyph glyph-name="quotedblleft" unicode="&#x201c;" d="M178 969 L410 1425 L481 1407 L342 969 L178 969 ZM516 969 L748 1425 L819 1407 L680 969 L516 969 Z" /><glyph glyph-name="quotedblright" unicode="&#x201d;" d="M483 1413 L252 956 L180 975 L319 1413 L483 1413 ZM821 1413 L590 956 L518 975 L657 1413 L821 1413 Z" /><glyph glyph-name="quotedblbase" unicode="&#x201e;" d="M281 201 L49 -254 L-23 -238 L117 201 L281 201 ZM618 201 L387 -254 L315 -238 L455 201 L618 201 Z" /><glyph glyph-name="dagger" unicode="&#x2020;" d="M684 1202 L608 969 L563 969 L563 1196 L596 1413 L717 1413 L684 1202 ZM973 848 L870 848 L639 885 L643 928 L891 967 L991 967 L973 848 ZM508 885 L264 848 L162 848 L180 967 L283 967 L514 928 L508 885 ZM489 -2 L416 -238 L377 -238 L377 -2 L477 635 L545 846 L590 846 L590 635 L489 -2 Z" /><glyph glyph-name="daggerdbl" unicode="&#x2021;" d="M702 1202 L629 969 L584 969 L584 1198 L616 1413 L735 1413 L702 1202 ZM991 848 L889 848 L657 885 L664 928 L909 967 L1012 967 L991 848 ZM526 885 L283 848 L180 848 L199 967 L301 967 L535 928 L526 885 ZM571 401 L506 190 L459 190 L459 395 L496 635 L563 846 L610 846 L610 641 L571 401 ZM868 70 L766 70 L532 106 L541 150 L786 188 L887 188 L868 70 ZM403 106 L160 70 L57 70 L76 188 L178 188 L412 150 L403 106 ZM453 -379 L332 -379 L365 -168 L440 66 L485 66 L485 -162 L453 -379 Z" /><glyph glyph-name="bullet" unicode="&#x2022;" d="M688 713 L653 489 L449 455 L246 489 L211 713 L246 936 L449 969 L653 936 L688 713 Z" /><glyph glyph-name="ellipsis" unicode="&#x2026;" d="M1186 0 L1026 0 L1059 201 L1219 201 L1186 0 ZM715 0 L553 0 L586 201 L745 201 L715 0 ZM240 0 L80 0 L113 201 L272 201 L240 0 Z" /><glyph glyph-name="uni202F" unicode="&#x202f;" d="" /><glyph glyph-name="guilsinglleft" unicode="&#x2039;" d="M608 969 L233 475 L444 14 L346 -10 L80 485 L487 969 L608 969 Z" /><glyph glyph-name="guilsinglright" unicode="&#x203a;" d="M29 0 L406 494 L190 954 L291 979 L557 483 L152 0 L29 0 Z" /><glyph glyph-name="fraction" unicode="&#x2044;" d="M342 672 L-174 -16 L-268 10 L276 719 L795 1407 L887 1380 L342 672 Z" /><glyph glyph-name="uni205F" unicode="&#x205f;" d="" /><glyph glyph-name="Euro" unicode="&#x20ac;" d="M885 588 L866 483 L395 483 Q412 291 500.5 189.5 Q589 88 729 88 Q807 88 879 113.5 Q951 139 1042 201 L1042 76 Q882 -27 717 -27 Q521 -27 401 108 Q281 243 262 483 L72 483 L72 588 L260 588 Q263 705 291 827 L113 827 L131 934 L324 934 Q401 1147 547.5 1279 Q694 1411 879 1411 Q1075 1411 1210 1292 L1180 1165 Q1103 1233 1031.5 1264.5 Q960 1296 870 1296 Q738 1296 629.5 1196.5 Q521 1097 457 934 L926 934 L926 827 L424 827 Q391 698 391 588 L885 588 Z" /><glyph glyph-name="hryvnia" unicode="&#x20b4;" d="M141 860 L160 961 L743 887 Q855 978 899.5 1035 Q944 1092 944 1155 Q944 1220 892 1259 Q840 1298 737 1298 Q570 1298 330 1169 L330 1288 Q445 1348 544 1378.5 Q643 1409 748 1409 Q904 1409 987.5 1343.5 Q1071 1278 1071 1167 Q1071 1090 1027 1020 Q983 950 891 868 L1110 842 L1110 739 L782 780 L547 590 L1061 526 L1042 426 L440 502 Q342 422 303 359.5 Q264 297 264 233 Q264 163 316 124.5 Q368 86 475 86 Q657 86 897 223 L897 104 Q652 -25 465 -25 Q310 -25 222.5 40.5 Q135 106 135 223 Q135 306 176 376.5 Q217 447 299 520 L94 547 L94 647 L406 608 L641 797 L141 860 Z" /><glyph glyph-name="numero" unicode="&#x2116;" d="M1235 1413 L1010 0 L899 0 L422 1194 L233 0 L106 0 L332 1413 L469 1413 L926 258 L1108 1413 L1235 1413 ZM1898 0 L1249 0 L1266 100 L1915 100 L1898 0 ZM2036 752 Q2036 630 1985.5 522 Q1935 414 1842 346.5 Q1749 279 1636 279 Q1493 279 1410 375 Q1327 471 1327 631 Q1327 753 1376.5 861 Q1426 969 1518 1036.5 Q1610 1104 1722 1104 Q1867 1104 1951.5 1008.5 Q2036 913 2036 752 ZM1917 748 Q1917 866 1864 935 Q1811 1004 1720 1004 Q1641 1004 1576.5 948.5 Q1512 893 1478 809 Q1444 725 1444 635 Q1444 516 1496 448.5 Q1548 381 1640 381 Q1719 381 1783.5 436 Q1848 491 1882.5 574.5 Q1917 658 1917 748 Z" /><glyph glyph-name="published" unicode="&#x2117;" d="M1565 707 Q1565 494 1477.5 327 Q1390 160 1228.5 66.5 Q1067 -27 858 -27 Q650 -27 489 66 Q328 159 240 326 Q152 493 152 707 Q152 920 240 1087 Q328 1254 489 1347 Q650 1440 858 1440 Q1067 1440 1228.5 1347 Q1390 1254 1477.5 1087.5 Q1565 921 1565 707 ZM1493 707 Q1493 1012 1317 1196 Q1141 1380 858 1380 Q573 1380 399 1196.5 Q225 1013 225 707 Q225 402 401 217.5 Q577 33 860 33 Q1145 33 1319 217 Q1493 401 1493 707 ZM1145 874 Q1145 755 1066 692 Q987 629 856 629 L758 629 L758 307 L649 307 L649 1112 L870 1112 Q995 1112 1070 1048.5 Q1145 985 1145 874 ZM1036 870 Q1036 941 990.5 978.5 Q945 1016 866 1016 L758 1016 L758 725 L860 725 Q944 725 990 761.5 Q1036 798 1036 870 Z" /><glyph glyph-name="servicemark" unicode="&#x2120;" d="M1589 707 L1493 707 L1452 1255 L1233 705 L1153 705 L936 1253 L895 707 L801 707 L856 1413 L971 1413 L1196 834 L1421 1413 L1532 1413 L1589 707 ZM424 696 Q317 696 227 745 L240 840 Q338 780 428 780 Q486 780 523.5 809 Q561 838 561 889 Q561 937 531.5 967.5 Q502 998 432 1028 Q322 1076 280 1119 Q238 1162 238 1239 Q238 1320 298 1371.5 Q358 1423 451 1423 Q547 1423 621 1382 L604 1290 Q527 1339 446 1339 Q391 1339 358.5 1313 Q326 1287 326 1247 Q326 1203 355.5 1175 Q385 1147 463 1114 Q567 1069 610 1022 Q653 975 653 895 Q653 803 588 749.5 Q523 696 424 696 Z" /><glyph glyph-name="trademark" unicode="&#x2122;" d="M1604 707 L1507 707 L1466 1255 L1247 705 L1169 705 L952 1253 L909 707 L817 707 L870 1413 L985 1413 L1210 834 L1436 1413 L1548 1413 L1604 707 ZM719 1325 L492 1325 L492 707 L393 707 L393 1325 L174 1325 L174 1413 L705 1413 L719 1325 Z" /><glyph glyph-name="minus" unicode="&#x2212;" d="M1075 635 L143 635 L160 750 L1092 750 L1075 635 Z" /><glyph glyph-name="uni25FC" unicode="&#x25fc;" d="M0 983 L983 983 L983 0 L0 0 L0 983 Z" /><glyph glyph-name="f_f" unicode="&#xfb00;" d="M682 1335 Q640 1346 594 1346 Q522 1346 484 1309 Q446 1272 434 1194 L399 969 L594 969 L594 858 L381 858 L190 -352 L57 -375 L252 858 L109 858 L125 969 L270 969 L309 1217 Q329 1341 398.5 1401.5 Q468 1462 594 1462 Q622 1462 682 1456 L682 1335 ZM1255 1335 Q1213 1346 1167 1346 Q1095 1346 1057.5 1309 Q1020 1272 1008 1194 L973 969 L1167 969 L1167 858 L954 858 L764 -352 L631 -375 L825 858 L682 858 L698 969 L844 969 L883 1217 Q903 1341 972 1401.5 Q1041 1462 1167 1462 Q1195 1462 1255 1456 L1255 1335 Z" /><glyph glyph-name="fi" unicode="&#xfb01;" d="M1026 1298 Q1026 1258 997 1230 Q968 1202 928 1202 Q889 1202 860 1230.5 Q831 1259 831 1298 Q831 1339 860 1368 Q889 1397 928 1397 Q968 1397 997 1368 Q1026 1339 1026 1298 ZM942 969 L786 0 L655 0 L811 969 L942 969 ZM682 1335 Q640 1346 594 1346 Q522 1346 484 1309 Q446 1272 434 1194 L399 969 L594 969 L594 858 L381 858 L190 -352 L57 -375 L252 858 L109 858 L125 969 L270 969 L309 1217 Q329 1341 398.5 1401.5 Q468 1462 594 1462 Q622 1462 682 1456 L682 1335 Z" /><glyph glyph-name="fl" unicode="&#xfb02;" d="M1020 1470 L786 0 L655 0 L885 1446 L1020 1470 ZM682 1335 Q640 1346 594 1346 Q522 1346 484 1309 Q446 1272 434 1194 L399 969 L594 969 L594 858 L381 858 L190 -352 L57 -375 L252 858 L109 858 L125 969 L270 969 L309 1217 Q329 1341 398.5 1401.5 Q468 1462 594 1462 Q622 1462 682 1456 L682 1335 Z" /><glyph glyph-name="f_f_i" unicode="&#xfb03;" d="M1599 1298 Q1599 1258 1570 1230 Q1541 1202 1501 1202 Q1462 1202 1433.5 1230.5 Q1405 1259 1405 1298 Q1405 1339 1433.5 1368 Q1462 1397 1501 1397 Q1541 1397 1570 1368 Q1599 1339 1599 1298 ZM1516 969 L1360 0 L1229 0 L1384 969 L1516 969 ZM682 1335 Q640 1346 594 1346 Q522 1346 484 1309 Q446 1272 434 1194 L399 969 L594 969 L594 858 L381 858 L190 -352 L57 -375 L252 858 L109 858 L125 969 L270 969 L309 1217 Q329 1341 398.5 1401.5 Q468 1462 594 1462 Q622 1462 682 1456 L682 1335 ZM1255 1335 Q1213 1346 1167 1346 Q1095 1346 1057.5 1309 Q1020 1272 1008 1194 L973 969 L1167 969 L1167 858 L954 858 L764 -352 L631 -375 L825 858 L682 858 L698 969 L844 969 L883 1217 Q903 1341 972 1401.5 Q1041 1462 1167 1462 Q1195 1462 1255 1456 L1255 1335 Z" /></font>
</defs>
</svg>
